<?xml version="1.0" encoding="UTF-8"?><svg id="Livello_1" xmlns="http://www.w3.org/2000/svg" viewBox="0 0 55.1053132 11.171875"><defs><style>.cls-1{fill:#1a1a1a;stroke-width:0px;}</style></defs><path class="cls-1" d="M3.3990479,0L0,11.1359863h2.5140381l.4019775-1.7080078h3.2139893l.4239502,1.7080078h2.4370117L5.7509766,0h-2.3519287ZM3.3990479,7.2229614l1.0689697-4.177002,1.2020264,4.177002h-2.2709961Z"/><polygon class="cls-1" points="15.5515137 .0845947 13.2225342 .0845947 13.2225342 11.1495972 19.0145264 11.1495972 19.0145264 8.8195801 15.5515137 8.8195801 15.5515137 .0845947"/><path class="cls-1" d="M29.0625,5.5438843c.5119629-.1729736.940918-.53302,1.1989746-1.0079956.4599609-.8190308.4829102-1.0490112.4599609-1.7850342-.0369873-.7439575-.3349609-1.4509888-.842041-1.9959717-.3859863-.3850098-.8859863-.6359863-1.4259033-.7119751h-5.0480957v11.1289673h5.3850098c.5090332-.164978.9650879-.4630127,1.3220215-.8619995.5629883-.5979614.8780518-1.3880005.8809814-2.2099609.0130615-.7280273-.223999-1.4390259-.6710205-2.0150146-.3209229-.3550415-.7810059-.552002-1.2598877-.5410156ZM25.595459,2.1228638h2.2159424c.486084.1050415.8190918.5540161.7780762,1.0490112-.0090332.5480347-.3370361,1.0390015-.8389893,1.257019h-2.1550293v-2.3060303ZM28.8583984,8.0188599c-.1459961,1.0079956-1.3380127,1.2189941-1.4259033,1.2189941l-1.8560791.0130005v-2.6799927h2.611084c.4989014.3000488.7648926.8740234.6708984,1.447998Z"/><polygon class="cls-1" points="35.7492676 2.0578003 39.9672852 2.0578003 39.9672852 4.2417603 35.8532715 4.2417603 35.8532715 6.3217773 39.9262695 6.3217773 39.9262695 9.0917969 35.3092041 9.0917969 35.3092041 11.12677 42.1712646 11.12677 42.1712646 .0647583 35.7692871 .0647583 35.7492676 2.0578003"/><path class="cls-1" d="M51.2822266.0424805h-4.0310059v11.0839844h4.5358887s3.3380127-.5639648,3.3181152-5.5629883c-.019043-4.9989624-3.822998-5.5209961-3.822998-5.5209961ZM51.347168,8.8394775h-1.9959717V2.3594971h1.5549316s1.8859863.0289917,1.8570557,3.21698c-.0290527,3.1879883-1.4160156,3.2630005-1.4160156,3.2630005Z"/></svg>