<?xml version="1.0" encoding="UTF-8"?>
<svg id="Livello_1" data-name="Livello 1" xmlns="http://www.w3.org/2000/svg" viewBox="0 0 54.62 53.48">
  <defs>
    <style>
      .cls-1 {
        fill: #cabad7;
      }

      .cls-2 {
        fill: #0f3830;
      }
    </style>
  </defs>
  <path class="cls-2" d="M45.49,29.22c-4.49,1.08-7.11,4.67-8.69,10.85-2.01,7.87-3.12,9.41-5.32,9.93-2.09.5-3.95-.63-4.86-4.43-2.09-8.68-1.28-20.82,2.83-29.03,4.1-7.39,12.01-6.03,13.13-5.75,3.28.82,5.75,3.28,9.43,7.19,1.07.48,3.13-1.91,2.49-2.81C50.79,2.59,32.67-2.11,20.3.86,5.43,4.44-2.85,17.41.9,32.97c3.14,13.05,14.17,20.52,27.74,20.51h0s6.82,0,6.82,0l19.18-19.18c-.94-3.89-4.65-6.16-9.14-5.08Z"/>
  <polyline class="cls-1" points="54.62 36.78 54.62 53.48 37.92 53.48"/>
</svg>