<?xml version="1.0" encoding="UTF-8"?>
<svg id="Livello_1" data-name="Livello 1" xmlns="http://www.w3.org/2000/svg" viewBox="0 0 447.87 192.32">
  <defs>
    <style>
      .cls-1 {
        fill: #fff;
      }

      .cls-2 {
        opacity: .69;
      }
    </style>
  </defs>
  <g>
    <path class="cls-1" d="M21.09,191.76H.03l-.03-41.54h5.46l.03,40.54h15.6v.99Z"/>
    <path class="cls-1" d="M27.92,158.8c0,3.72-3.3,5.98-6.03,6.78l-.61-1.37c2.12-.99,3.77-2.26,3.77-4.05,0-1.65-1.37-2.12-3.01-2.54-.28-.05-.75-.61-.75-1.46,0-1.17.89-2.35,2.63-2.35s4,1.55,4,4.99Z"/>
    <path class="cls-1" d="M58.19,191.76l-3.34-8.13h-19.67l-2.94,8.13h-1.38l14.91-41.54h1.03l17.92,41.54h-6.52ZM54.26,182.38l-10.23-23.5-8.45,23.5h18.68Z"/>
    <path class="cls-1" d="M98.87,150.22v41.54l-1.41.04-27.32-31.73v31.65l-1.44.06v-41.57h1.25l27.51,32.11v-32.1h0l1.42-.02Z"/>
    <path class="cls-1" d="M128.71,171.73h15.95v1.12c-.01,6.82-5.82,19.47-20.49,19.47-11.09,0-20.49-9.67-20.49-22.13,0-13.76,11.58-20.4,21.53-20.4,9.1,0,15.95,4.5,17.94,11.17l-2.37.51c-1.49.32-2.98-.44-3.58-1.84-1.5-3.51-4.09-8.63-12.14-8.63s-13.92,9.18-13.92,20.06c0,10,5.62,20.22,14.25,20.22s13.21-7.13,13.21-18.42h-9.88v-1.13Z"/>
    <path class="cls-1" d="M169.58,192.27c-.1,0-1.57.01-1.6.01-9.93,0-20.5-7.37-20.5-21.23s10.01-21.25,21.3-21.25c10.54,0,21.08,7.82,21.08,21.25,0,14.28-11.76,21.22-20.29,21.22ZM183.53,171.03c0-10.95-6.31-19.93-14.94-19.93s-14.93,8.82-14.93,19.97c0,9.17,6.68,19.9,14.93,19.9s14.94-9.56,14.93-19.93Z"/>
    <path class="cls-1" d="M215.73,191.76h-21.06l-.03-41.54h5.46l.03,40.54h15.6v.99Z"/>
    <path class="cls-1" d="M236.31,192.27c-.1,0-1.57.01-1.6.01-9.93,0-20.5-7.37-20.5-21.23s10.01-21.25,21.3-21.25c10.54,0,21.08,7.82,21.08,21.25,0,14.28-11.76,21.22-20.29,21.22ZM250.26,171.03c0-10.95-6.31-19.93-14.94-19.93s-14.93,8.82-14.93,19.97c0,9.17,6.68,19.9,14.93,19.9s14.94-9.56,14.93-19.93Z"/>
    <path class="cls-1" d="M309.92,171.73h15.95v1.12c-.01,6.82-5.82,19.47-20.49,19.47-11.09,0-20.49-9.67-20.49-22.13,0-13.76,11.58-20.4,21.53-20.4,9.1,0,15.95,4.5,17.94,11.17l-2.37.51c-1.49.32-2.98-.44-3.58-1.84-1.5-3.51-4.09-8.63-12.14-8.63s-13.92,9.18-13.92,20.06c0,10,5.62,20.22,14.25,20.22s13.21-7.13,13.21-18.42h-9.88v-1.13Z"/>
    <path class="cls-1" d="M357.04,191.76h-6.17s-9.88-15.22-9.88-15.22h-5.26v15.21l-5.26.03v-41.55h7.09c4.82,0,8.65,1.22,11.47,3.68,2.82,2.46,4.23,5.62,4.23,9.47s-1.41,7.01-4.23,9.47c-1.05.91-2.29,1.59-3.62,2.16l11.63,16.76ZM347.86,162.79c0-7.96-5.46-11.42-7.91-11.42h-4.23v23.98h4.23c3.47,0,7.91-5.7,7.91-12.56Z"/>
    <path class="cls-1" d="M385.06,190.74v1.17h-23.42v-41.69h22.86s.01,1.17.01,1.17h-17.46s0,18.43,0,18.43h11.35s0,1.24,0,1.24l-11.35-.09v19.79l18.01-.02Z"/>
    <path class="cls-1" d="M413.09,190.74v1.17h-23.42v-41.69h22.86s.01,1.17.01,1.17h-17.46s0,18.43,0,18.43h11.35s0,1.24,0,1.24l-11.35-.09v19.79l18.01-.02Z"/>
    <path class="cls-1" d="M447.87,150.22v41.54l-1.41.04-27.32-31.73v31.65l-1.44.06v-41.57h1.25l27.51,32.11v-32.1h0l1.42-.02Z"/>
  </g>
  <g>
    <path class="cls-1" d="M155.19,109.14h4.56c1.74,0,2.92,1.07,2.92,2.68,0,1.19-.48,2.03-1.78,2.43v.04c1.1.33,1.41.98,1.51,2.38.12,1.53.25,2,.45,2.13v.07h-1.43c-.22-.18-.25-.63-.35-2.19-.09-1.38-.67-1.87-1.94-1.87h-2.59v4.06h-1.34v-9.74ZM156.53,113.75h2.79c1.32,0,1.98-.67,1.98-1.73,0-1.14-.54-1.73-1.91-1.73h-2.85v3.46Z"/>
    <path class="cls-1" d="M172.22,109.14h6.93v1.18h-5.59v2.95h5.05v1.11h-5.05v3.29h5.73v1.22h-7.07v-9.74Z"/>
    <path class="cls-1" d="M188.07,115.73h1.32c.16,1.47,1.13,2.28,2.89,2.28,1.3,0,2.24-.58,2.24-1.75,0-1.27-1.13-1.57-2.83-1.95-1.74-.37-3.22-.86-3.22-2.74,0-1.64,1.38-2.61,3.38-2.61,2.4,0,3.47,1.2,3.71,2.87h-1.3c-.17-1.18-1.02-1.82-2.4-1.82-1.28,0-2.12.52-2.12,1.49,0,1.06,1.06,1.36,2.53,1.66,1.88.38,3.6.86,3.6,3.04,0,1.85-1.52,2.88-3.63,2.88-2.72,0-4.07-1.49-4.18-3.35Z"/>
    <path class="cls-1" d="M205.36,109.14h1.34v9.74h-1.34v-9.74Z"/>
    <path class="cls-1" d="M216.6,109.14h3.6c2.91,0,4.35,1.99,4.35,4.91s-1.52,4.83-4.44,4.83h-3.51v-9.74ZM220.05,117.72c2.2,0,3.1-1.43,3.1-3.67s-.81-3.74-3.02-3.74h-2.19v7.41h2.11Z"/>
    <path class="cls-1" d="M234.04,109.14h6.93v1.18h-5.59v2.95h5.05v1.11h-5.05v3.29h5.73v1.22h-7.07v-9.74Z"/>
    <path class="cls-1" d="M250.62,109.14h1.4l3.99,6.1c.47.72,1.09,1.94,1.09,1.94h.04s-.09-1.27-.09-2.08v-5.96h1.26v9.74h-1.39l-3.98-6.1c-.47-.73-1.11-1.92-1.11-1.92h-.03s.08,1.27.08,2.05v5.97h-1.26v-9.74Z"/>
    <path class="cls-1" d="M267.69,117.64l4.75-6.06c.42-.54,1.17-1.31,1.17-1.31v-.04s-1.07.05-1.74.05h-3.82v-1.14h7.06v1.05l-4.69,6.06c-.47.59-1.28,1.45-1.28,1.45v.04s1.1-.05,1.82-.05h4.37v1.19h-7.63v-1.24Z"/>
    <path class="cls-1" d="M287.6,109.14h1.49l3.59,9.74h-1.47l-.97-2.84h-3.84l-1,2.84h-1.37l3.56-9.74ZM286.78,114.99h3.12l-.93-2.72c-.33-.94-.59-2.07-.59-2.07h-.04s-.29,1.17-.6,2.07l-.96,2.72Z"/>
  </g>
  <g>
    <path class="cls-1" d="M242.11,29.22c-4.49,1.08-7.11,4.67-8.69,10.85-2.01,7.87-3.12,9.41-5.32,9.93-2.09.5-3.95-.63-4.86-4.43-2.09-8.68-1.28-20.82,2.83-29.03,4.1-7.39,12.01-6.03,13.13-5.75,3.28.82,5.75,3.28,9.43,7.19,1.07.48,3.13-1.91,2.49-2.81-3.71-12.59-21.82-17.29-34.19-14.32-14.87,3.58-23.15,16.54-19.41,32.11,3.14,13.05,14.17,20.52,27.74,20.51h0s6.82,0,6.82,0l19.18-19.18c-.94-3.89-4.65-6.16-9.14-5.08Z"/>
    <g class="cls-2">
      <polyline class="cls-1" points="251.25 36.78 251.25 53.48 234.55 53.48"/>
    </g>
  </g>
</svg>