<?xml version="1.0" encoding="UTF-8"?><svg id="Livello_1" xmlns="http://www.w3.org/2000/svg" viewBox="0 0 574.6060734 120.0256085"><defs><style>.cls-1{fill:#151412;stroke-width:0px;}</style></defs><path class="cls-1" d="M0,0h41.137656v29.2895515h2.6062876c13.2299015,0,26.459803-.0826932,39.6897044.0248711,9.0764305.0661546,15.7285616,6.7762972,15.7699714,15.9188822.0910256,19.6504285.0993581,39.3090632.0248711,58.9678242-.0165386,7.777453-6.8176438,14.5619563-14.777148,14.9508037-.8852591.0497422-1.7788506.0497422-2.6724421.0579484-23.6632579.0330773-47.3265158.0661546-70.9897738.0993581-3.549495.0082062-7.0906576,0-10.7891266,0V0ZM42.1884909,54.582686c-.0910256.3310253-.1903206.5130766-.1903206.6951278-.0827563,11.3765639-.1655126,22.761334-.2482058,34.1462303-.0165386,1.3900032.6618612,1.6960312,1.8946842,1.6794925,4.6416764-.0412835,9.2915591-.0826932,13.9331724.0165386,1.7292347.0414097,2.2670561-.455002,2.2505174-2.2338526-.0827563-10.7560493-.0413466-21.5037661-.0413466-32.2598154v-2.0437213h-17.598501Z"/><path class="cls-1" d="M525.1471857,28.7608201c11.3187418,0,22.6455635-.2151286,33.9559728.074487,8.5220705.2151286,15.3811871,7.628479,15.4142644,16.1587556.0826932,19.460171.1075643,38.9203421.074487,58.3803869-.0083324,9.0682243-7.777453,16.6305487-16.9614478,16.6387549-21.7437658.0165386-43.4957377.0165386-65.2477097,0-9.7134838,0-17.0028575-7.2312991-17.0276023-16.9861926-.0414097-13.5443881,0-27.08865-.0165386-40.6412443-.0083324-5.2125751-.1158967-10.425024-.0993581-15.6375991.0248711-10.8305363,7.247964-18.0618354,18.0452968-18.0949127,10.6236139-.0248711,21.2473541,0,31.8626356,0v.1075643M516.3769094,91.6008321h16.5228582v-34.8163608h-16.5228582v34.8163608Z"/><path class="cls-1" d="M467.3972871,118.745663h-38.9368807v-62.8233472h-19.2532487v62.815141h-38.3080337V28.8916142h1.9692343c25.9550588,0,51.9184501.0082062,77.8736352.0247448,1.762312,0,3.5660336.223461,5.2869359.6123084,7.2561702,1.6216704,11.3434866,6.7100164,11.3600252,14.1565703.0248711,15.5300348.0330773,31.0518635.0083324,46.5735659v28.4868594Z"/><path class="cls-1" d="M313.4587883,68.4272947h-38.2584178v-12.7333636h-19.6752996v37.1661101h19.6008126v-12.9154148h38.4072655c.0414097.5791049.1241029,1.1830808.1241029,1.7870568.0083324,6.9336036.0414097,13.867081,0,20.8005583-.0578221,9.3246364-7.1568121,16.3326007-16.5228582,16.3408069-19.9731214.0083324-39.9544489,0-59.9275703-.0082062-2.4739784,0-4.9809079.1157705-7.4300153-.1820513-6.9169387-.8439756-11.8895142-5.9323216-12.8078506-12.9155411-.2069224-1.5719282-.3061542-3.1605214-.3144866-4.7491145-.0165386-18.1942708.1820513-36.3885415-.0992318-54.582686-.1241029-7.926427,5.386294-15.5714446,14.5123404-17.193115,2.6559035-.4716668,5.4359099-.330899,8.1663004-.3392315,18.8892724-.0248711,37.7867509-.0248711,56.6760233,0,3.8720616,0,7.578863.7776948,10.9463068,2.7883388,4.1865482,2.5069295,6.6356556,6.2136047,6.7348874,11.0704097.1737188,8.3234806.0496159,16.6634998.0330773,24.9953128.0083324.1820513-.0826932.3557701-.1653864.6701305"/><path class="cls-1" d="M146.3498514,93.1091308h16.3491394v25.7649276h-1.7624382c-12.4024645-.0248711-24.804929-.0497422-37.2075198-.0828194-8.6379672-.0330773-15.9188822-7.1402735-15.9354209-15.7451634-.0414097-33.8400761-.0496159-67.6801522-.0165386-101.5203545,0-.3723088.0412835-.7446175.0661546-1.2244906h38.2004694v28.5200629h16.5477293v26.9562146h-16.2415751v37.3316227Z"/><rect class="cls-1" x="169.5695961" y="29.0090259" width="39.2512411" height="89.7382783"/><rect class="cls-1" x="322.4638881" y="29.0511931" width="39.193419" height="89.6804562"/></svg>