<?xml version="1.0" encoding="UTF-8"?>
<svg id="Livello_1" data-name="Livello 1" xmlns="http://www.w3.org/2000/svg" viewBox="0 0 8192.03 1711.19">
  <defs>
    <style>
      .cls-1 {
        fill: #151412;
      }
    </style>
  </defs>
  <path class="cls-1" d="M0,0h586.5v417.6h37.13c188.64,0,377.28-1.16,565.91.32,129.35,1.01,224.19,96.6,224.81,226.94,1.28,280.23,1.41,560.48.39,840.72-.27,110.91-97.25,207.64-210.7,213.2-12.67.62-25.38.71-38.08.73-337.36.53-674.73,1.03-1012.09,1.5-50.58.07-101.17,0-153.85,0V0h-.02ZM601.49,778.2c-1.34,4.71-2.68,7.28-2.7,9.86-1.19,162.29-2.38,324.57-3.56,486.85-.17,19.79,9.4,24.15,27,23.98,66.21-.64,132.44-1.24,198.62.27,24.72.58,32.31-6.57,32.11-31.94-1.16-153.27-.58-306.55-.58-459.84v-29.18h-250.9Z"/>
  <path class="cls-1" d="M7486.89,410.11c161.36,0,322.8-3.06,484.06,1.01,121.49,3.06,219.32,108.77,219.84,230.43,1.16,277.4,1.51,554.82,1.05,832.26-.19,129.3-110.88,237.1-241.81,237.2-310.07.24-620.15.26-930.22.06-138.47-.03-242.41-103.12-242.85-242.2-.58-193.12,0-386.23-.23-579.35-.08-74.31-1.55-148.63-1.36-222.94.39-154.4,103.28-257.59,257.29-257.99,151.41-.39,302.83-.09,454.24-.09,0,.54,0,1.08,0,1.62ZM7361.87,809.56v496.39h235.6v-496.39h-235.6Z"/>
  <path class="cls-1" d="M6663.55,1692.96h-555.09v-895.64h-274.51v895.54h-546.09V411.91h28.02c370.09,0,740.17.13,1110.25.4,25.14.03,50.76,3.18,75.32,8.67,103.53,23.12,161.77,95.75,161.97,201.9.4,221.32.45,442.65.13,663.97,0,124.27,0,248.54,0,372.81v33.31h0Z"/>
  <path class="cls-1" d="M4468.9,975.58h-545.39v-181.56h-280.53v529.92h279.47v-184.16h547.56c.58,8.25,1.73,16.86,1.73,25.48.12,98.86.54,197.72-.04,296.57-.79,132.97-102.03,232.84-235.56,232.9-284.78.1-569.56.08-854.34-.06-35.33,0-71.04,1.65-105.94-2.62-98.6-12.06-169.45-84.54-182.56-184.12-2.95-22.45-4.45-45.07-4.48-67.72-.3-259.39,2.55-518.81-1.46-778.13-1.73-112.98,76.78-222.02,206.89-245.12,37.9-6.73,77.54-4.77,116.39-4.83,269.36-.35,538.72-.37,808.08-.05,55.17.06,108.07,11.09,156.04,39.8,59.66,35.67,94.62,88.55,96.07,157.77,2.48,118.75.62,237.59.49,356.4.01,2.54-1.23,5.07-2.42,9.54Z"/>
  <path class="cls-1" d="M2086.48,1327.47h233.14v367.28h-25.18c-176.84-.34-353.67-.7-530.48-1.1-123.1-.47-226.95-101.88-227.12-224.54-.67-482.45-.75-964.89-.24-1447.34,0-5.3.52-10.6.87-17.4h544.59v406.62h235.95v384.22h-231.54v532.26Z"/>
  <path class="cls-1" d="M2417.57,1692.93V413.56h559.62v1279.37h-559.62Z"/>
  <path class="cls-1" d="M5156.05,414.22v1278.49h-558.74V414.22h558.74Z"/>
</svg>