<svg width="9" height="165" viewBox="0 0 9 165" fill="none" xmlns="http://www.w3.org/2000/svg">
<path d="M7.42 161.295L4.81 161.295L4.81 163.945L4.23 163.945L4.23 161.295L1.58 161.295L1.58 164.245L0.999999 164.245L1 160.595L8 160.595L8 164.245L7.42 164.245L7.42 161.295Z" fill="#0F3930"/>
<path d="M7.98999 157.69L7.40999 157.69L7.40999 155.75L0.999989 155.75L0.999989 155.05L7.40999 155.05L7.40999 153.1L7.98999 153.1L7.98999 157.69Z" fill="#0F3930"/>
<path d="M2.66002 149.327L2.66002 146.146L1.00002 145.536L1.00002 144.797L7.90002 147.346L7.90002 148.137L1.00002 150.676L1.00002 149.937L2.66002 149.327ZM3.24002 149.117L7.02002 147.736L3.24002 146.357L3.24002 149.117Z" fill="#0F3930"/>
<path d="M7.98999 142.425L0.999989 139.775L0.999989 138.975L7.98999 136.325L7.98999 137.085L1.75999 139.375L7.98999 141.685L7.98999 142.425Z" fill="#0F3930"/>
<path d="M0.929946 130.344C0.929946 129.697 1.07995 129.111 1.37995 128.584C1.68661 128.057 2.10995 127.641 2.64995 127.334C3.19661 127.034 3.81328 126.884 4.49995 126.884C5.18661 126.884 5.79995 127.034 6.33995 127.334C6.88661 127.641 7.30995 128.057 7.60995 128.584C7.91661 129.111 8.06995 129.697 8.06995 130.344C8.06995 130.997 7.91661 131.587 7.60995 132.114C7.30995 132.641 6.88661 133.054 6.33995 133.354C5.79995 133.654 5.18661 133.804 4.49995 133.804C3.81328 133.804 3.19661 133.654 2.64995 133.354C2.10995 133.054 1.68661 132.641 1.37995 132.114C1.07995 131.587 0.929946 130.997 0.929946 130.344ZM1.53995 130.344C1.53995 130.864 1.65995 131.331 1.89995 131.744C2.13995 132.157 2.48328 132.484 2.92995 132.724C3.38328 132.964 3.90661 133.084 4.49995 133.084C5.09328 133.084 5.61328 132.964 6.05995 132.724C6.50661 132.484 6.84995 132.157 7.08995 131.744C7.32995 131.331 7.44995 130.864 7.44995 130.344C7.44995 129.824 7.32995 129.357 7.08995 128.944C6.84995 128.531 6.50661 128.204 6.05995 127.964C5.61328 127.724 5.09328 127.604 4.49995 127.604C3.90661 127.604 3.38328 127.724 2.92995 127.964C2.48328 128.204 2.13995 128.531 1.89995 128.944C1.65995 129.357 1.53995 129.824 1.53995 130.344Z" fill="#0F3930"/>
<path d="M0.999989 123.818L0.999989 123.118L6.87999 119.248L0.999989 119.248L0.99999 118.548L7.98999 118.548L7.98999 119.248L2.11999 123.118L7.98999 123.118L7.98999 123.818L0.999989 123.818Z" fill="#0F3930"/>
<path d="M0.999989 115.163L0.999989 114.463L6.87999 110.593L0.999989 110.593L0.99999 109.893L7.98999 109.893L7.98999 110.593L2.11999 114.463L7.98999 114.463L7.98999 115.163L0.999989 115.163Z" fill="#0F3930"/>
<path d="M7.98999 106.508L0.999989 106.508L0.99999 105.808L7.98999 105.808L7.98999 106.508Z" fill="#0F3930"/>
<path d="M7.98999 98.3583L7.40999 98.3583L7.40999 96.4183L0.999989 96.4183L0.999989 95.7183L7.40999 95.7183L7.40999 93.7683L7.98999 93.7683L7.98999 98.3583Z" fill="#0F3930"/>
<path d="M2.66002 89.995L2.66002 86.815L1.00002 86.205L1.00002 85.465L7.90002 88.015L7.90002 88.805L1.00002 91.345L1.00002 90.605L2.66002 89.995ZM3.24002 89.785L7.02002 88.405L3.24002 87.025L3.24002 89.785Z" fill="#0F3930"/>
<path d="M7.98999 82.5478L0.999989 82.5478L0.999989 81.8478L4.26999 81.8478L4.26999 78.0578L0.999989 78.0578L0.99999 77.3578L7.98999 77.3578L7.98999 78.0578L4.84999 78.0578L4.84999 81.8478L7.98999 81.8478L7.98999 82.5478Z" fill="#0F3930"/>
<path d="M7.98999 74.4525L7.40999 74.4525L7.40999 72.5125L0.999989 72.5125L0.999989 71.8125L7.40999 71.8125L7.40999 69.8625L7.98999 69.8625L7.98999 74.4525Z" fill="#0F3930"/>
<path d="M0.929946 60.4157C0.929946 59.9557 1.00995 59.549 1.16995 59.1957C1.32995 58.849 1.55328 58.5757 1.83995 58.3757C2.12661 58.1757 2.44661 58.069 2.79995 58.0557L2.79995 58.7957C2.45995 58.829 2.15995 58.979 1.89995 59.2457C1.64661 59.5123 1.51995 59.9023 1.51995 60.4157C1.51995 60.889 1.63995 61.2623 1.87995 61.5357C2.12661 61.8157 2.43661 61.9557 2.80995 61.9557C3.10995 61.9557 3.34995 61.879 3.52995 61.7257C3.71661 61.5723 3.85328 61.3823 3.93995 61.1557C4.03328 60.929 4.13328 60.6157 4.23995 60.2157C4.36661 59.749 4.48995 59.379 4.60995 59.1057C4.72995 58.8323 4.91661 58.599 5.16995 58.4057C5.42328 58.2123 5.76661 58.1157 6.19995 58.1157C6.55995 58.1157 6.87995 58.209 7.15995 58.3957C7.44661 58.5823 7.66995 58.8457 7.82995 59.1857C7.98995 59.5257 8.06995 59.9157 8.06995 60.3557C8.06995 61.0023 7.90995 61.5223 7.58995 61.9157C7.27661 62.3157 6.86995 62.5457 6.36995 62.6057L6.36995 61.8457C6.65661 61.799 6.90995 61.6423 7.12995 61.3757C7.35661 61.109 7.46995 60.749 7.46995 60.2957C7.46995 59.8757 7.35661 59.5257 7.12995 59.2457C6.90995 58.9657 6.60661 58.8257 6.21995 58.8257C5.92661 58.8257 5.68995 58.9023 5.50995 59.0557C5.32995 59.209 5.19328 59.399 5.09995 59.6257C5.00661 59.859 4.90661 60.1723 4.79995 60.5657C4.67328 61.019 4.54661 61.3857 4.41995 61.6657C4.29995 61.9457 4.11328 62.1823 3.85995 62.3757C3.60661 62.569 3.26661 62.6657 2.83995 62.6657C2.51328 62.6657 2.20328 62.579 1.90995 62.4057C1.61661 62.2323 1.37995 61.9757 1.19995 61.6357C1.01995 61.2957 0.929946 60.889 0.929946 60.4157Z" fill="#0F3930"/>
<path d="M5.94995 54.1734C6.40995 53.9734 6.76995 53.6667 7.02995 53.2534C7.29661 52.8467 7.42995 52.3667 7.42995 51.8134C7.42995 51.2934 7.30995 50.8267 7.06995 50.4134C6.82995 50.0001 6.48661 49.6734 6.03995 49.4334C5.59995 49.1934 5.08661 49.0734 4.49995 49.0734C3.91328 49.0734 3.39661 49.1934 2.94995 49.4334C2.50328 49.6734 2.15995 50.0001 1.91995 50.4134C1.67995 50.8267 1.55995 51.2934 1.55995 51.8134C1.55995 52.3001 1.66328 52.7367 1.86995 53.1234C2.08328 53.5167 2.38328 53.8301 2.76995 54.0634C3.16328 54.3034 3.61995 54.4401 4.13995 54.4734L4.13995 51.5334L4.70995 51.5334L4.70995 55.2134L4.19995 55.2134C3.58661 55.1801 3.02995 55.0134 2.52995 54.7134C2.03661 54.4134 1.64661 54.0101 1.35995 53.5034C1.07328 53.0034 0.929946 52.4401 0.929946 51.8134C0.929946 51.1667 1.07995 50.5801 1.37995 50.0534C1.68661 49.5267 2.10995 49.1101 2.64995 48.8034C3.19661 48.5034 3.81328 48.3534 4.49995 48.3534C5.18661 48.3534 5.79995 48.5034 6.33995 48.8034C6.88661 49.1101 7.30995 49.5267 7.60995 50.0534C7.91661 50.5801 8.06995 51.1667 8.06995 51.8134C8.06995 52.5601 7.88328 53.2134 7.50995 53.7734C7.13661 54.3334 6.61661 54.7401 5.94995 54.9934L5.94995 54.1734Z" fill="#0F3930"/>
<path d="M0.999989 45.2879L0.999989 44.5879L6.87999 40.7179L0.999989 40.7179L0.99999 40.0179L7.98999 40.0179L7.98999 40.7179L2.11999 44.5879L7.98999 44.5879L7.98999 45.2879L0.999989 45.2879Z" fill="#0F3930"/>
<path d="M7.98999 36.6329L0.999989 36.6329L0.99999 35.9329L7.98999 35.9329L7.98999 36.6329Z" fill="#0F3930"/>
<path d="M7.98999 29.1423C7.98999 29.9156 7.84999 30.5789 7.56999 31.1323C7.28999 31.6856 6.88666 32.1089 6.35999 32.4023C5.83332 32.6956 5.20666 32.8423 4.47999 32.8423C3.75999 32.8423 3.13666 32.6956 2.60999 32.4023C2.08999 32.1089 1.68999 31.6856 1.40999 31.1323C1.13666 30.5789 0.999989 29.9156 0.999989 29.1423L0.99999 27.0723L7.98999 27.0723L7.98999 29.1423ZM1.57999 29.1423C1.57999 30.1156 1.83332 30.8556 2.33999 31.3623C2.85332 31.8756 3.56666 32.1323 4.47999 32.1323C5.39999 32.1323 6.11666 31.8756 6.62999 31.3623C7.14999 30.8556 7.40999 30.1156 7.40999 29.1423L7.40999 27.7723L1.57999 27.7723L1.57999 29.1423Z" fill="#0F3930"/>
<path d="M1.56999 21.7632L1.56999 24.2732L0.999989 24.2732L0.99999 21.0632L7.98999 21.0632L7.98999 21.7632L1.56999 21.7632Z" fill="#0F3930"/>
<path d="M7.98999 17.6782L0.999989 17.6781L0.99999 16.9781L7.98999 16.9781L7.98999 17.6782Z" fill="#0F3930"/>
<path d="M7.98999 9.23674L3.58999 9.23674C2.89666 9.23674 2.38332 9.40008 2.04999 9.72674C1.71666 10.0601 1.54999 10.5134 1.54999 11.0867C1.54999 11.6601 1.71332 12.1067 2.03999 12.4267C2.37332 12.7534 2.88999 12.9167 3.58999 12.9167L7.98999 12.9167L7.98999 13.6167L3.59999 13.6167C2.71332 13.6167 2.04666 13.3801 1.59999 12.9067C1.15332 12.4401 0.92999 11.8301 0.92999 11.0767C0.92999 10.3234 1.15332 9.71008 1.59999 9.23674C2.04666 8.77008 2.71332 8.53674 3.59999 8.53674L7.98999 8.53674L7.98999 9.23674Z" fill="#0F3930"/>
<path d="M4.60999 4.07005C4.53666 4.46338 4.33666 4.79672 4.00999 5.07005C3.68332 5.34338 3.30332 5.48005 2.86999 5.48005C2.51666 5.48005 2.19666 5.39005 1.90999 5.21005C1.62999 5.03672 1.40666 4.78005 1.23999 4.44005C1.07999 4.10005 0.999989 3.69338 0.999989 3.22005L0.99999 0.800049L7.98999 0.800049L7.98999 3.15005C7.98999 3.85672 7.82666 4.39338 7.49999 4.76005C7.17332 5.13338 6.74999 5.32005 6.22999 5.32005C5.79666 5.32005 5.44332 5.20338 5.16999 4.97005C4.90332 4.73672 4.71666 4.43672 4.60999 4.07005ZM4.89999 1.50005L4.89999 3.13005C4.89999 3.60338 5.00999 3.96672 5.22999 4.22005C5.45666 4.48005 5.76666 4.61005 6.15999 4.61005C6.54666 4.61005 6.84999 4.48005 7.06999 4.22005C7.28999 3.96672 7.39999 3.59338 7.39999 3.10005L7.39999 1.50005L4.89999 1.50005ZM1.58999 3.17005C1.58999 3.67672 1.70999 4.07005 1.94999 4.35005C2.18999 4.63672 2.51999 4.78005 2.93999 4.78005C3.35999 4.78005 3.69332 4.63005 3.93999 4.33005C4.19332 4.03672 4.31999 3.64005 4.31999 3.14005L4.31999 1.50005L1.58999 1.50005L1.58999 3.17005Z" fill="#0F3930"/>
</svg>
