<?xml version="1.0" encoding="UTF-8"?><svg id="Livello_1" xmlns="http://www.w3.org/2000/svg" viewBox="0 0 47.3383179 14.4927368"><defs><style>.cls-1{fill:#1a1a1a;stroke-width:0px;}</style></defs><path class="cls-1" d="M0,10.3267212c0,2.3770142,1.7639771,4.1149902,4.1409912,4.1660156,1.1499634,0,1.8150024-.2810059,2.4279785-.7150269v-.9970093c-.5620117.5109863-1.3549805.9199829-2.4279785.9199829-1.9940186,0-3.3740234-1.4059448-3.3740234-3.3739624s1.4060059-3.3480225,3.3740234-3.3480225c1.0479736,0,1.8150024.3829956,2.4279785.8690186v-.9459839c-.5109863-.4089966-1.2780151-.6900024-2.4279785-.6900024C1.7889404,6.211731,0,7.949707,0,10.3267212Z"/><path class="cls-1" d="M14.569458,7.7200317c-.7669678-.9210205-1.8909912-1.5090332-3.1949463-1.5090332-2.2750244,0-4.1150513,1.8410034-4.1150513,4.1160278,0,2.2749634,1.8400269,4.1149902,4.1150513,4.1149902,1.3039551,0,2.4539795-.5880127,3.1949463-1.5079956v1.3800049h.7920532v-7.9750366h-.7920532v1.3810425ZM11.3745117,13.6749878c-1.8660278,0-3.3480225-1.4819946-3.3480225-3.3479614,0-1.8660278,1.5079956-3.348999,3.3480225-3.348999,1.8659668,0,3.3479614,1.4829712,3.3479614,3.348999,0,1.8659668-1.4819946,3.3479614-3.3479614,3.3479614Z"/><rect class="cls-1" x="16.9720459" y=".0007324" width=".7670288" height="14.3139648"/><path class="cls-1" d="M23.0045776,6.2111206c-2.3519897,0-4.1409912,1.6619873-4.1409912,4.0899658,0,2.4280396,1.7130127,4.1410522,4.1409912,4.1410522,2.0189819,0,3.1439819-1.0480347,3.6809692-2.1220093l-.7159424-.3320312c-.4860229.9200439-1.3800049,1.6870117-2.9400024,1.6610107-1.993042,0-3.3740234-1.3029785-3.3740234-3.5269775h7.4639893c0-2.1470337-1.6099854-3.9110107-4.1149902-3.9110107ZM23.0296021,6.9780884c2.0709839,0,3.0169678,1.4830322,3.2209473,2.4030151h-6.46698c.2559814-.9459839,1.098999-2.4030151,3.2460327-2.4030151Z"/><path class="cls-1" d="M28.5512695,3.604187c-.3579712,0-.6389771.2810059-.6389771.6390381,0,.3579712.2810059.6389771.6389771.6389771.3580322,0,.6390381-.2810059.6390381-.6389771,0-.3580322-.2810059-.6390381-.6390381-.6390381Z"/><rect class="cls-1" x="28.1422729" y="6.3132324" width=".7919922" height="7.9749756"/><path class="cls-1" d="M37.5227661,7.7709961c-.7410278-.9719849-1.9420166-1.5599976-3.2459717-1.5599976-2.2750244,0-4.1150513,1.8410034-4.1150513,4.1160278,0,2.2749634,1.8400269,4.1149902,4.1150513,4.1149902,1.3289795,0,2.4789429-.6390381,3.2459717-1.559021v1.4310303h.7929688V0h-.7929688v7.7709961ZM34.2767944,13.6749878c-1.8660278,0-3.3480225-1.4819946-3.3480225-3.3479614,0-1.8660278,1.4819946-3.348999,3.3480225-3.348999,1.8659668,0,3.3479614,1.4829712,3.3479614,3.348999,0,1.8659668-1.4819946,3.3479614-3.3479614,3.3479614Z"/><path class="cls-1" d="M43.2232056,6.211731c-2.2749023,0-4.1149292,1.8399658-4.1149292,4.1149902,0,2.2749634,1.8400269,4.1149902,4.1149292,4.1149902,2.2750244,0,4.1151123-1.8400269,4.1151123-4.1149902,0-2.2999878-1.8400879-4.1409912-4.1151123-4.1149902ZM43.2232056,13.6747437c-1.8659668,0-3.348999-1.4820557-3.348999-3.3480225,0-1.8660278,1.4830322-3.3480225,3.348999-3.3480225,1.8660889,0,3.3480225,1.4819946,3.3480225,3.3480225,0,1.8659668-1.4819336,3.3480225-3.3480225,3.3480225Z"/></svg>