<?xml version="1.0" encoding="UTF-8"?><svg id="Livello_1" xmlns="http://www.w3.org/2000/svg" viewBox="0 0 74.8342896 13.1950073"><defs><style>.cls-1{fill:#1a1a1a;stroke-width:0px;}</style></defs><path class="cls-1" d="M68.2373047,0c-3.6430054,0-6.5970459,2.9539795-6.5970459,6.5969849,0,3.6439819,2.9540405,6.5980225,6.5970459,6.5980225,3.6439819,0,6.5969849-2.9540405,6.5969849-6.5980225,0-3.6430054-2.9530029-6.5969849-6.5969849-6.5969849ZM68.2373047,11.28302v-.0050049c-1.5430298,0-2.7960205-1.2520142-2.7960205-2.7960205,0-1.5429688,1.2529907-2.7949829,2.7960205-2.7949829.7659912,0,1.4579468.3070068,1.9629517.8059692l1.3380127-1.3380127c-.8480225-.8399658-2.0139771-1.3589478-3.3009644-1.3589478-2.2650146,0-4.1540527,1.6069946-4.5900269,3.7420044v.0029907c-.0629883-.3049927-.0960083-.6199951-.0960083-.9440308,0-2.5889893,2.0980225-4.6859741,4.6860352-4.6859741,2.5889893,0,4.6849976,2.0969849,4.6849976,4.6859741,0,2.5880127-2.0960083,4.6860352-4.6849976,4.6860352Z"/><path class="cls-1" d="M6.0720215,7.9639893c-.4040527.6010132-.9320068,1.0620117-1.9590454,1.0620117-1.8850098,0-2.8389893-1.6459961-2.8389893-3.0269775,0-1.875,1.2009888-2.8480225,2.4360352-2.8480225.7229614,0,1.3739624.460022,1.7679443.9379883.0670166.0880127.1560059.1229858.2460327.1229858.2080078,0,.3869629-.3359985.3869629-.6539917,0-.3009644-.1229858-.5839844-.2629395-.7069702-.4780273-.2109985-1.1680298-.2999878-1.5710449-.2999878C1.3469849,2.5510254,0,4.5839844,0,6.4949951c0,1.1500244.4089966,2.0170288,1.0269775,2.617981.618042.6000366,1.4810181.9000244,2.4190063.9000244,1.0209961,0,2.3460083-.492981,2.9459839-1.802002-.0159912-.1589966-.1739502-.28302-.3199463-.2470093Z"/><path class="cls-1" d="M15.4334717,8.1594238c-.5450439.6889648-1.0380249.8659668-1.6220093.8659668-1.8850098,0-2.9290161-1.5200195-2.9290161-3.3029785,0-.4420166.0159912-.4780273.4769897-.4780273h3.2660522c.7399902,0,.9879761-.0159912,1.0379639-.1220093.0339966-.0689697.072998-.2089844.072998-.4549561,0-1.0740356-.9879761-2.1170044-2.5079956-2.1170044-2.1159668,0-3.5479736,1.8309937-3.5479736,4.0020142,0,.7769775.2129517,1.6069946.7409668,2.2959595.5170288.6710205,1.4140015,1.1650391,2.559021,1.1650391.9209595,0,2.1889648-.44104,2.7730103-1.6420288-.0170288-.15802-.1400146-.2650146-.3200073-.2119751ZM13.036438,3.0734253c1.0220337,0,1.3590088.6269531,1.3590088,1.1289673,0,.2319946-.0559692.3040161-.1069946.3400269-.1400146.1079712-.5280151.1789551-1.835022.1789551h-1.2519531c-.1230469,0-.1230469-.0539551-.1230469-.0889893.0170288-.5910034.9150391-1.55896,1.9580078-1.55896Z"/><path class="cls-1" d="M22.0725708,5.6079712c-.6170044-.3539429-1.3629761-.7439575-1.3629761-1.4719849,0-.6380005.4429932-1.0819702,1.1329956-1.0819702.723999,0,1.2519531.5149536,1.5549927,1.2949829.0839844.1060181.3479614.0709839.4209595-.0529785,0-.4790039-.1239624-1.0469971-.2809448-1.4330444-.1620483-.1389771-.8140259-.3129883-1.5550537-.3129883-1.3410034,0-2.3959961.717041-2.3959961,2.0120239,0,.9760132.7189941,1.5960083,1.7449951,2.1820068.651001.3709717,1.3590088.8150024,1.3590088,1.6309814,0,.7620239-.5499878,1.1350098-1.18396,1.1350098-1.0050049,0-1.56604-.8519897-1.8690186-1.8270264-.085022-.105957-.3150024-.0889893-.4050293.0180054-.032959.585022.072998,1.4539795.2140503,1.7910156.4379883.3480225,1.0549927.5219727,1.8849487.5219727,1.3030396,0,2.5370483-.6640015,2.5370483-2.0119629,0-1.2579956-.8640137-1.8619995-1.7960205-2.394043Z"/><path class="cls-1" d="M34.1893311,9.0070801c-.0559692,0-.1399536.0710449-.2299805.125-.1060181.0530396-.2639771.1060181-.4429932.1060181-.6849976,0-.84198-.7260132-.8079834-1.5419922l.105957-3.0839844c.0510254-1.3300171-.565979-2.0620117-1.8289795-2.0620117-1.2910156,0-3.28302,1.2459717-3.28302,2.1679688,0,.1589966.0840454.2480469.2470093.2480469.2630005,0,.7399902-.1240234,1.0040283-.3370361.1409912-.1060181.1569824-.3189697.1740112-.6029663.0389404-.5490112.6399536-.7980347,1.1339722-.7980347,1.0939941,0,1.302002.8870239,1.2849731,1.5430298l-.0169678.8150024c-.0170288.2659912-.03302.4259644-.2969971.5149536l-2.1049805.7620239c-1.1280518.40802-1.4590454.8150024-1.4590454,1.5059814,0,.4970093.2080078.9400024.5440063,1.2390137.2980347.2650146.723999.4050293,1.2349854.4050293.4940186,0,.8810425-.2280273,1.269043-.4390259.3529663-.1950073.565979-.3540039.6900024-.3540039.105957,0,.2129517.1420288.2799683.2470093.2980347.3880005.723999.5460205,1.1450195.5460205.8640137,0,1.4819946-.6870117,1.4819946-.7750244,0-.1240234-.0560303-.2310181-.1240234-.2310181ZM31.4393311,7.9440918c0,.3729858-.0159912.6199951-.2299805.8330078-.1740112.177002-.7180176.4429932-1.0720215.4429932-.9029541,0-1.1109619-.7620239-1.1109619-1.0629883,0-.690979.5109863-.9570313,1.5490112-1.3120117.3199463-.1069946.617981-.1779785.723999-.1779785.1069946,0,.1799927.0360107.1799927.230957l-.0400391,1.0460205Z"/><path class="cls-1" d="M45.2401733,9.328125c-.6340332-.0880127-.6680298-.2660522-.6680298-1.5390015v-3.0430298c0-1.1849976-.5999756-2.1950073-2.05896-2.1950073-.9040527,0-1.7350464.4440308-2.4810181.9030151-.1229858,0-.19104-.0880127-.19104-.1940308,0-.1599731,0-.4249878.0340576-.8319702-.0340576-.0880127-.1230469-.1229858-.19104-.1229858-.3529663.2650146-1.3529663.723999-1.7619629.8659668-.0840454.0530396-.0840454.2480469-.0170288.3179932l.1569824.1070557c.4770508.3189697.4770508.4069824.4770508,1.0969849v3.0960083c0,1.2729492-.0170288,1.4509888-.6680298,1.5390015l-.3699951.0529785c-.1240234.0880127-.0900269.3859863.03302.4379883.4939575-.0339966,1.0219727-.0570068,1.6559448-.0570068.6119995,0,1.1280518.0230103,1.6050415.0570068.1239624-.052002.157959-.3499756.0339966-.4379883l-.3200073-.0529785c-.6339722-.1060181-.6680298-.2660522-.6680298-1.5390015v-2.7070313c0-.5130005.0340576-.7600098.2640381-1.0609741.2470093-.3359985.8309937-.6199951,1.5039673-.6199951,1.2010498,0,1.6610107.742981,1.6610107,1.7519531v2.6360474c0,1.2729492-.0169678,1.4329834-.6729736,1.5390015l-.3370361.0529785c-.1229858.0880127-.0839844.3859863.0390015.4379883.4770508-.0339966,1.0050049-.0570068,1.6390381-.0570068.6119995,0,1.1220093.0230103,1.6560059.0570068.1239624-.052002.1569824-.3499756.032959-.4379883l-.3869629-.0529785Z"/><path class="cls-1" d="M55.8754883,9.0070801c-.0559692,0-.1459961.0710449-.2299805.125-.1069946.0530396-.2689819.1060181-.4429932.1060181-.690979,0-.8480225-.7260132-.8140259-1.5419922l.1069946-3.0839844c.0560303-1.3300171-.5619507-2.0620117-1.8299561-2.0620117-1.2850342,0-3.2780151,1.2459717-3.2780151,2.1679688,0,.1589966.085022.2480469.2420044.2480469.2689819,0,.7459717-.1240234,1.0100098-.3370361.1399536-.1060181.1569824-.3189697.1740112-.6029663.032959-.5490112.6339722-.7980347,1.1279907-.7980347,1.0939941,0,1.3070068.8870239,1.2909546,1.5430298l-.0169678.8150024c-.0170288.2659912-.0390015.4259644-.3029785.5149536l-2.098999.7620239c-1.1280518.40802-1.4650269.8150024-1.4650269,1.5059814,0,.4970093.2130127.9400024.5499878,1.2390137.2980347.2650146.723999.4050293,1.2340088.4050293.4949951,0,.882019-.2280273,1.2689819-.4390259.3540039-.1950073.5670166-.3540039.69104-.3540039.105957,0,.2069702.1420288.2799683.2470093.2969971.3880005.7180176.5460205,1.1390381.5460205.8649902,0,1.4879761-.6870117,1.4879761-.7750244,0-.1240234-.0560303-.2310181-.1240234-.2310181ZM53.1254883,7.9440918c0,.3729858-.0159912.6199951-.2299805.8330078-.1740112.177002-.723999.4429932-1.0780029.4429932-.8980103,0-1.1110229-.7620239-1.1110229-1.0629883,0-.690979.5110474-.9570313,1.5550537-1.3120117.3199463-.1069946.6169434-.1779785.723999-.1779785.1069946,0,.1739502.0360107.1739502.230957l-.0339966,1.0460205Z"/></svg>