<svg width="100" height="100" viewBox="0 0 100 100" fill="none" xmlns="http://www.w3.org/2000/svg">
<path d="M99 58.6461V41.3539H86.0021C85.0853 37.5245 83.58 33.9211 81.5757 30.6546L90.7655 21.4648L78.5352 9.23454L69.3454 18.4243C66.0789 16.42 62.4797 14.9147 58.6461 13.9979V1H41.3539V13.9979C37.5245 14.9147 33.9211 16.42 30.6546 18.4243L21.4648 9.23454L9.23454 21.4648L18.4243 30.6546C16.42 33.9211 14.9147 37.5203 13.9979 41.3539H1V58.6461H13.9979C14.9147 62.4755 16.42 66.0789 18.4243 69.3454L9.23454 78.5352L21.4648 90.7655L30.6546 81.5757C33.9211 83.58 37.5203 85.0853 41.3539 86.0021V99H58.6461V86.0021C62.4755 85.0853 66.0789 83.58 69.3454 81.5757L78.5352 90.7655L90.7655 78.5352L81.5757 69.3454C83.58 66.0789 85.0853 62.4797 86.0021 58.6461H99Z" stroke="#D4F7C7" stroke-width="2" stroke-miterlimit="10"/>
<path d="M67.802 39.0127C60.6506 43.9167 55.0259 51.1534 52.2029 60.0617C51.495 62.3005 51.0003 64.5649 50.7061 66.8251" stroke="#D4F7C7" stroke-width="2" stroke-linecap="round" stroke-linejoin="round"/>
<path d="M31.708 48.049C31.708 48.049 32.7357 47.9637 34.3477 48.1897C40.3647 49.0341 45.4138 53.1492 47.6227 58.808L50.8892 65.4946" stroke="#D4F7C7" stroke-width="2" stroke-linecap="round" stroke-linejoin="round"/>
<path d="M46.8721 57.8956C46.8721 57.8956 41.145 63.7847 34.1514 58.8849C27.1578 53.9851 29.1706 46.0917 23.7676 44.4244C23.7676 44.4244 31.9979 39.9169 37.6652 41.4393C46.0448 43.6866 48.5181 52.8252 48.5181 52.8252" stroke="#D4F7C7" stroke-width="2" stroke-linecap="round" stroke-linejoin="round"/>
<path d="M56.3561 52.3134C56.3561 52.3134 63.162 56.9147 69.0085 50.693C74.855 44.4712 71.2772 37.1535 76.2281 34.42C76.2281 34.42 67.2516 31.6866 62.0149 34.3262C54.2665 38.2367 53.7036 47.6823 53.7036 47.6823" stroke="#D4F7C7" stroke-width="2" stroke-linecap="round" stroke-linejoin="round"/>
<path d="M30.2876 36.8252C34.5392 30.4712 41.7844 26.2921 50.0019 26.2921C54.0914 26.2921 57.9422 27.3284 61.3025 29.1535" stroke="#D4F7C7" stroke-width="2" stroke-miterlimit="10"/>
<path d="M73.3796 53.9509C71.499 65.162 61.7463 73.7079 49.9979 73.7079C40.8082 73.7079 32.838 68.4797 28.9062 60.8337" stroke="#D4F7C7" stroke-width="2" stroke-miterlimit="10"/>
</svg>
