<svg width="87" height="89" viewBox="0 0 87 89" fill="none" xmlns="http://www.w3.org/2000/svg">
<path d="M43.6992 88.6175L43.6914 79.3135L19.8721 79.333L19.8799 88.6409" stroke="#C2E3B9" stroke-width="2" stroke-miterlimit="10"/>
<path d="M40.9548 79.3251L41.2276 66.6924C41.2666 64.8214 40.8963 62.9661 40.1401 61.255C38.8188 58.2576 36.4021 55.8799 33.3814 54.6131L29.698 53.0657C28.6339 52.6175 27.6633 51.9743 26.8409 51.1753C26.568 50.9102 26.3069 50.6257 26.0652 50.3256L18.1722 40.4798C16.4923 38.3867 13.4364 38.0515 11.3433 39.7275C9.2502 41.4075 8.91499 44.4633 10.591 46.5564L22.6001 61.5356" stroke="#C2E3B9" stroke-width="2" stroke-miterlimit="10"/>
<path d="M11.3471 39.7237C11.3471 39.7237 10.8053 33.7795 12.7776 20.4803C13.144 18.013 11.4095 15.7991 8.92267 15.5613C6.7711 15.3586 4.80661 16.7813 4.32719 18.89C3.30597 23.3958 2.1912 35.0853 1.57535 42.1832C1.25573 45.8783 0.91273 49.4135 4.41684 53.783C8.55238 58.9397 15.0812 66.7821 20.6472 74.0358C21.2786 74.8583 21.6216 76.7955 21.8009 79.0016" stroke="#C2E3B9" stroke-width="2" stroke-miterlimit="10"/>
<path d="M43.6831 88.6175L43.6909 79.3135L67.5103 79.333L67.5025 88.6409" stroke="#C2E3B9" stroke-width="2" stroke-miterlimit="10"/>
<path d="M46.4309 79.3251L46.1581 66.6924C46.1191 64.8214 46.4894 62.9661 47.2455 61.255C48.5669 58.2576 50.9835 55.8799 54.0043 54.6131L57.6877 53.0657C58.7518 52.6175 59.7223 51.9743 60.5448 51.1753C60.8176 50.9102 61.0788 50.6257 61.3204 50.3256L69.2134 40.4798C70.8934 38.3867 73.9492 38.0515 76.0424 39.7275C78.1355 41.4075 78.4707 44.4633 76.7946 46.5564L64.7856 61.5356" stroke="#C2E3B9" stroke-width="2" stroke-miterlimit="10"/>
<path d="M76.0388 39.7237C76.0388 39.7237 76.5806 33.7795 74.6083 20.4803C74.2419 18.013 75.9764 15.7991 78.4632 15.5613C80.6148 15.3586 82.5793 16.7813 83.0587 18.89C84.0799 23.3958 85.1947 35.0853 85.8106 42.1832C86.1302 45.8783 86.4732 49.4135 82.9691 53.783C78.8335 58.9397 72.3047 66.7821 66.7387 74.0358C66.1073 74.8583 65.7643 76.7955 65.585 79.0016" stroke="#C2E3B9" stroke-width="2" stroke-miterlimit="10"/>
<path d="M29.4842 4.02382C27.243 5.27501 25.1772 6.85361 23.353 8.66218C21.5288 10.4708 19.9346 12.5327 18.6172 14.7388C17.288 16.9645 16.2317 19.3616 15.4912 21.8445C14.7506 24.3274 14.3335 26.8726 14.2634 29.4413C14.1815 32.4192 14.6064 35.4166 15.4873 38.2658C15.6042 38.6478 15.7328 39.0259 15.8654 39.4001C15.9979 39.7743 16.4032 40.0822 16.8242 39.9458C17.2023 39.8249 17.5141 39.4001 17.3699 38.9869C16.8359 37.4824 16.4266 35.935 16.1616 34.3603C15.9472 33.0896 15.8303 31.7293 15.8186 30.3767C15.8108 29.145 15.8848 27.9133 16.0408 26.6933C16.0408 26.6699 16.0641 26.5218 16.0485 26.6193C16.0369 26.7089 16.0524 26.592 16.0524 26.5803C16.0641 26.5101 16.0719 26.44 16.0836 26.3659C16.107 26.21 16.1304 26.058 16.1538 25.906C16.2045 25.598 16.259 25.294 16.3214 24.9861C16.4422 24.3741 16.5825 23.7661 16.7424 23.1619C17.062 21.9536 17.4595 20.7648 17.9273 19.6072C17.9546 19.5409 17.9818 19.4746 18.0091 19.4084C18.0247 19.3733 18.1105 19.1667 18.0559 19.2953C18.1183 19.1511 18.1806 19.0069 18.243 18.8666C18.3677 18.582 18.5003 18.2975 18.6367 18.013C18.9056 17.4478 19.1941 16.8904 19.4981 16.3447C20.1061 15.2533 20.7805 14.197 21.5171 13.1836C21.6029 13.0667 21.6886 12.9497 21.7744 12.8367C21.8173 12.7782 21.8601 12.7198 21.903 12.6652C21.9264 12.6379 21.9459 12.6067 21.9693 12.5795C21.8874 12.6886 21.9849 12.56 22.0005 12.5366C22.1915 12.291 22.3902 12.0494 22.589 11.8077C22.9788 11.34 23.3842 10.88 23.8051 10.4357C24.6587 9.53139 25.5669 8.68167 26.5336 7.89822C26.6544 7.80077 26.7752 7.70333 26.8961 7.60588C26.9234 7.5825 26.9506 7.56301 26.9818 7.53962C26.9857 7.53572 27.0793 7.46166 27.0169 7.51234C26.9545 7.56301 27.0481 7.48895 27.052 7.48505C27.091 7.45777 27.126 7.42658 27.165 7.3993C27.4106 7.21221 27.6639 7.02901 27.9173 6.84971C28.424 6.49501 28.9424 6.15591 29.4725 5.83629C29.7376 5.67648 30.0065 5.52057 30.2755 5.37245C30.6301 5.17367 30.7783 4.65526 30.5561 4.30446C30.3339 3.95366 29.8701 3.81334 29.4881 4.02382H29.4842Z" fill="#C2E3B9"/>
<path d="M30.2709 5.37252C32.2744 4.25776 34.2233 3.4782 36.4645 2.87794C37.5675 2.58171 38.6901 2.35564 39.8205 2.19193C39.992 2.16854 40.2063 2.13736 40.4948 2.10618C40.7832 2.075 41.0833 2.04382 41.3757 2.02043C41.937 1.97366 42.5021 1.94247 43.0673 1.93078C44.1977 1.9035 45.328 1.93858 46.4506 2.03992C46.7195 2.0633 46.9846 2.09059 47.2535 2.12177C47.6004 2.16465 47.655 2.16854 48.0058 2.22311C48.5632 2.30886 49.1206 2.41021 49.6702 2.52714C50.7732 2.76101 51.8646 3.06114 52.9326 3.42753C54.0006 3.79392 54.8542 4.14472 55.8676 4.63974C56.7797 5.08408 57.6684 5.583 58.5259 6.12869C58.9547 6.40154 59.3756 6.68607 59.7888 6.97841C59.9876 7.11873 60.1825 7.26295 60.3735 7.40716C60.4319 7.45004 60.4904 7.49681 60.5489 7.53969C60.736 7.68001 60.4826 7.48902 60.5917 7.57477C60.7009 7.66052 60.8022 7.73847 60.9036 7.82033C62.5017 9.0988 63.9672 10.5488 65.2691 12.1313C65.4328 12.3262 65.5887 12.5288 65.7485 12.7276C65.7641 12.7471 65.8382 12.8446 65.7602 12.7432C65.8031 12.8017 65.8499 12.8602 65.8927 12.9186C65.9746 13.0239 66.0525 13.133 66.1305 13.2382C66.4384 13.6592 66.7386 14.088 67.0231 14.5245C67.5844 15.3742 68.0989 16.2551 68.5705 17.1633C68.8044 17.6155 69.0265 18.0754 69.237 18.5392C69.3384 18.7614 69.4358 18.9836 69.5294 19.2057C69.4787 19.0849 69.5294 19.198 69.5333 19.2213C69.5605 19.2876 69.5878 19.3578 69.6151 19.424C69.6697 19.5604 69.7243 19.693 69.7749 19.8294C70.1452 20.7805 70.4609 21.751 70.726 22.7371C71.9889 27.4613 71.7901 32.4309 70.4025 37.1239C70.2232 37.728 70.0244 38.3283 69.81 38.9246C69.6697 39.3066 69.9659 39.7938 70.3557 39.8835C70.7961 39.9848 71.1664 39.751 71.3145 39.3378C73.0997 34.4188 73.6454 29.0399 72.6047 23.8948C71.7628 19.7397 69.9347 15.7679 67.4129 12.3651C64.891 8.96238 61.6636 6.04294 57.9413 3.97322C53.8876 1.7125 49.3038 0.508089 44.6771 0.371666C40.0504 0.235244 35.2406 1.21359 30.9881 3.24433C30.4775 3.48989 29.9747 3.74715 29.4835 4.02389C29.1249 4.22268 28.9807 4.74108 29.2029 5.09188C29.4251 5.44268 29.8889 5.583 30.2709 5.37252Z" fill="#C2E3B9"/>
<path d="M36.8465 1.63457C36.5152 2.67527 37.4 3.52889 38.2887 3.87189C38.4524 3.93426 38.6239 3.98883 38.7915 4.04729C38.8695 4.07458 38.9474 4.10186 39.0254 4.13305C38.8928 4.07848 39.1345 4.19151 39.1813 4.22269C39.2008 4.23439 39.3177 4.31624 39.2398 4.25777C39.1618 4.19931 39.2709 4.28896 39.2865 4.30455C39.3099 4.32793 39.3333 4.35132 39.3528 4.37861C39.2475 4.24218 39.3411 4.3864 39.345 4.3864C39.3489 4.3864 39.4307 4.55401 39.345 4.37471C39.3645 4.41369 39.3762 4.45656 39.3918 4.49554C39.4229 4.57739 39.4463 4.65925 39.4775 4.7411C39.649 5.20494 39.8907 5.6142 40.3701 5.81689C40.8223 6.00788 41.2666 5.91433 41.7265 5.81689C41.7733 5.80909 41.8162 5.7974 41.863 5.7896C41.8279 5.7974 41.7109 5.7935 41.8591 5.7896C41.9643 5.7896 42.0384 5.77791 41.8824 5.77011C41.7772 5.76232 41.9721 5.81299 41.8786 5.75842C41.8045 5.71555 41.8785 5.75842 41.898 5.77791C41.9994 5.87535 41.9136 5.7974 41.898 5.77011C41.9292 5.81689 41.9565 5.86366 41.9838 5.91043C42.0033 5.94941 42.0228 5.99229 42.0423 6.03127C42.0072 5.91823 42.0968 6.13651 42.0423 6.03127C42.0695 6.12091 42.1085 6.21056 42.1436 6.30021L42.4048 7.00961L42.9076 8.38553C43.0518 8.7753 43.1843 9.18067 43.4104 9.53147C43.6598 9.91735 43.9911 10.2409 44.4355 10.3851C44.8798 10.5293 45.3593 10.4436 45.7257 10.1941C46.0726 9.95633 46.3103 9.62502 46.5403 9.27812C46.5832 9.21575 46.6222 9.14949 46.665 9.08713C46.6923 9.04815 46.8404 8.85716 46.7313 8.98578C46.7976 8.90783 46.8638 8.83767 46.9379 8.76751C46.9379 8.76751 47.0353 8.68176 46.9807 8.72463C46.9262 8.76751 47.0782 8.65447 47.0938 8.64278C47.4641 8.39722 47.8733 8.20623 48.267 8.00354C48.6997 7.77747 49.1323 7.5553 49.565 7.32923C50.5121 6.83811 51.51 6.38986 52.1765 5.51676C52.7689 4.7411 52.9872 3.76665 53.1665 2.83119C53.2445 2.43361 53.0535 1.96978 52.6208 1.87233C52.235 1.78268 51.7438 1.98927 51.662 2.41802C51.5879 2.79611 51.5139 3.17809 51.4086 3.54838C51.3619 3.71209 51.3073 3.87579 51.2449 4.0356C51.2878 3.93036 51.241 4.05119 51.2332 4.06678C51.2098 4.11356 51.1903 4.16033 51.167 4.2071C51.1202 4.30065 51.0695 4.3903 51.0149 4.47605C50.8668 4.70602 50.6174 4.95158 50.3874 5.10359C50.0522 5.33356 49.6858 5.51676 49.3272 5.69995C48.5321 6.11312 47.7369 6.52628 46.9418 6.93945C46.5598 7.13824 46.1934 7.34872 45.8699 7.63715C45.597 7.87881 45.3982 8.19064 45.1995 8.49077C45.1566 8.55313 45.1176 8.61939 45.0708 8.67786C45.0474 8.71294 45.0202 8.74802 44.9968 8.7831C45.0046 8.77141 45.0825 8.69345 45.0202 8.74802C44.9695 8.7909 44.9227 8.84936 44.8759 8.90003C44.8915 8.88444 45.0007 8.787 44.8954 8.88054C44.8331 8.93901 44.8642 8.89224 44.9305 8.88054C44.8954 8.88834 44.8526 8.90003 44.8214 8.91173C44.8292 8.91173 44.9695 8.89614 44.8798 8.89614C44.7902 8.89614 44.9305 8.90393 44.9383 8.90783C44.8058 8.85326 44.9383 8.91952 44.9617 8.93122C44.9461 8.92342 44.8915 8.90393 44.8837 8.88834C44.8487 8.80259 44.9617 8.98578 44.8993 8.90393C44.8837 8.88054 44.8526 8.86106 44.8331 8.84157C44.8175 8.82598 44.7161 8.68955 44.7746 8.7753C44.8214 8.84546 44.7044 8.65837 44.6927 8.63498C44.6616 8.57652 44.6304 8.51805 44.5992 8.45958C44.5797 8.42061 44.5602 8.37773 44.5446 8.33875C44.5485 8.35045 44.5836 8.45569 44.5602 8.37383C44.529 8.26859 44.4823 8.16335 44.4433 8.06201L43.9717 6.77574C43.8235 6.37037 43.6832 5.95721 43.5234 5.55574C43.3636 5.15426 43.1765 4.79957 42.8296 4.53062C42.4242 4.2188 41.9409 4.19541 41.4576 4.28116C41.2978 4.30845 41.1419 4.35132 40.9821 4.37861C41.1769 4.34353 40.8534 4.37081 40.9665 4.37861C41.0639 4.3864 40.9665 4.37861 40.947 4.37081C40.9743 4.3864 41.099 4.48774 41.0522 4.42928C40.9977 4.36301 41.0756 4.46825 41.0756 4.47215C41.0483 4.42928 41.0288 4.37861 40.9977 4.33963C40.9509 4.27726 41.0054 4.36301 41.0132 4.3825C40.9938 4.33183 40.9743 4.28116 40.9587 4.23049C40.8885 4.02391 40.8145 3.81343 40.7131 3.62244C40.5026 3.22486 40.1362 2.92473 39.727 2.74154C39.5126 2.64409 39.2982 2.56224 39.076 2.48818C38.9864 2.457 38.8967 2.42582 38.8071 2.39463C38.7759 2.38294 38.7408 2.37125 38.7097 2.35955C38.8461 2.41412 38.698 2.34786 38.6707 2.33227C38.6395 2.31278 38.6083 2.29719 38.5771 2.2777C38.5771 2.2777 38.4212 2.16077 38.4797 2.21144C38.5382 2.26211 38.4524 2.18026 38.4485 2.17636C38.4485 2.17636 38.316 2.02435 38.3705 2.0984C38.4212 2.16467 38.3589 2.07112 38.355 2.06332C38.2536 1.88792 38.3744 2.14518 38.3433 2.03994C38.316 1.95419 38.3433 2.07891 38.3433 2.09061C38.3511 1.89572 38.2965 2.23483 38.3589 2.03994C38.4836 1.65016 38.2146 1.17073 37.8132 1.08108C37.3883 0.983637 36.9868 1.20971 36.8543 1.62677L36.8465 1.63457Z" fill="#C2E3B9"/>
<path d="M62.5639 7.18121C62.0416 6.69399 61.227 6.47961 60.5254 6.53418C60.0927 6.56926 59.7068 6.69399 59.3872 6.99802C59.0871 7.27866 58.8727 7.68402 58.8064 8.08939C58.7324 8.56882 58.7986 9.02876 59.0403 9.45362C59.2118 9.75764 59.4574 10.011 59.6328 10.3111C59.7029 10.432 59.625 10.2215 59.6484 10.354C59.6172 10.1825 59.6367 10.276 59.6445 10.3228C59.6406 10.2722 59.7029 10.1786 59.6445 10.2955C59.66 10.2644 59.6873 10.2215 59.699 10.1942C59.7419 10.089 59.6328 10.2566 59.7185 10.1786C59.7887 10.1162 59.7185 10.1747 59.7029 10.1825C59.8549 10.1084 59.738 10.1669 59.6912 10.1825C59.6678 10.1903 59.5353 10.2215 59.6406 10.1981C59.7341 10.1786 59.6406 10.1981 59.6172 10.1981C59.5314 10.1981 59.4496 10.1981 59.3638 10.1942C59.5119 10.1981 59.2703 10.1786 59.2235 10.1708C59.0715 10.1474 58.9195 10.124 58.7675 10.1084C57.871 10.0071 57.1616 10.4826 56.7796 11.27C56.6471 11.5389 56.5496 11.8274 56.3976 12.0846C56.3625 12.1431 56.3274 12.2016 56.2846 12.2561C56.3742 12.1314 56.2846 12.2444 56.2339 12.2912C56.1637 12.3614 56.3235 12.2405 56.2222 12.299C56.191 12.3185 56.1598 12.338 56.1287 12.3536C56 12.4276 56.0819 12.377 56.1131 12.3614C56.0546 12.3809 55.9961 12.4003 55.9377 12.4159C55.583 12.5095 55.2166 12.5212 54.8619 12.603C54.4526 12.6966 54.0628 12.8993 53.751 13.176C53.0494 13.8035 53.026 14.9339 53.7783 15.5303C54.5306 16.1266 55.4115 16.1071 56.2573 15.8616C56.9706 15.655 57.6293 15.2925 58.3582 15.1366C58.366 15.1366 58.4868 15.1171 58.3972 15.1288C58.2997 15.1405 58.4517 15.1288 58.4712 15.1249C58.557 15.121 58.6388 15.1171 58.7246 15.1249C58.7713 15.1249 58.822 15.1288 58.8688 15.1366C58.8532 15.1366 58.7597 15.1171 58.8493 15.1366C58.9623 15.16 59.0715 15.1873 59.1845 15.2223C59.5431 15.3315 59.8822 15.4874 60.2408 15.5965C60.6813 15.729 61.1334 15.7719 61.5894 15.6862C62.0182 15.6043 62.3573 15.3432 62.7159 15.1132C62.79 15.0664 62.8679 15.0197 62.9459 14.9768C62.8367 15.0313 63.0472 14.9456 63.0901 14.9378C63.2187 14.9144 62.9965 14.9378 63.1213 14.9378C63.1603 14.9378 63.2031 14.9378 63.2421 14.9378C63.1252 14.93 63.2538 14.9378 63.2733 14.9456C63.3395 14.9651 63.4058 14.9807 63.4721 15.0002C63.5111 15.0119 63.55 15.0274 63.589 15.043C63.4994 15.008 63.628 15.0625 63.6358 15.0664C63.7254 15.1093 63.8151 15.1561 63.9008 15.2067C64.0918 15.312 64.275 15.4289 64.4582 15.5458C64.6102 15.6433 64.7661 15.7407 64.9143 15.8421C64.9883 15.8928 65.0624 15.9473 65.1364 15.998C65.2612 16.0915 65.191 16.0409 65.1637 16.0175C65.2144 16.0565 65.2651 16.0993 65.3118 16.1422C65.4483 16.2591 65.5769 16.3839 65.6938 16.5164C65.7172 16.5437 65.7445 16.5749 65.7679 16.6021C65.6938 16.5125 65.7757 16.6099 65.7874 16.6255C65.8458 16.7113 65.9004 16.7931 65.9511 16.8828C65.9784 16.9296 66.0485 17.1439 66.0056 16.9841C66.0251 17.0543 66.0524 17.1245 66.0719 17.1985C66.0914 17.2726 66.107 17.3427 66.1187 17.4168C66.0914 17.2453 66.1187 17.4675 66.1187 17.5298C66.1187 17.6156 66.1148 17.6974 66.107 17.7832C66.1187 17.6273 66.1031 17.7832 66.0836 17.8533C66.068 17.9157 66.0056 18.0716 66.0719 17.9274C66.0368 18.0015 65.9978 18.0677 65.955 18.1379C65.8809 18.2587 65.9472 18.1457 65.9667 18.1223C65.9394 18.1496 65.9082 18.1808 65.8848 18.208C65.7952 18.3094 65.9706 18.1691 65.8497 18.2392C65.8068 18.2626 65.764 18.2938 65.7172 18.3133C65.7523 18.2977 65.8341 18.2782 65.6938 18.3133C65.6587 18.3211 65.6198 18.3328 65.5847 18.3406C65.5028 18.3639 65.6782 18.3445 65.534 18.3484C65.4444 18.3484 65.3547 18.3523 65.269 18.3484C65.2495 18.3484 65.0935 18.325 65.1793 18.3406C65.2573 18.3562 65.1325 18.3289 65.1286 18.3289C64.9221 18.2782 64.7194 18.2197 64.5206 18.1457C64.505 18.1379 64.3842 18.0872 64.4894 18.134C64.4543 18.1184 64.4153 18.1028 64.3803 18.0833C64.2906 18.0404 64.2049 17.9976 64.1152 17.9586C63.9125 17.8611 63.7098 17.7637 63.5033 17.674C63.0433 17.4791 62.5873 17.3271 62.0806 17.2999C61.6089 17.2765 61.1568 17.4246 60.7008 17.5298C60.6579 17.5376 60.615 17.5493 60.576 17.5571C60.4396 17.5844 60.6696 17.5571 60.5293 17.5649C60.4396 17.5727 60.3539 17.5649 60.2681 17.5688C60.2369 17.5688 60.1161 17.5493 60.2603 17.5727C60.2252 17.5688 60.1901 17.561 60.1551 17.5532C60.0498 17.5298 59.9446 17.5025 59.8432 17.4675C59.8082 17.4558 59.7731 17.4441 59.7419 17.4324C59.7224 17.4246 59.5821 17.37 59.6639 17.4051C59.738 17.4363 59.625 17.3895 59.6211 17.3856C59.5743 17.3661 59.5314 17.3427 59.4846 17.3232C59.3131 17.2414 59.1455 17.1556 58.9779 17.0738C58.6076 16.8906 58.2218 16.7074 57.8203 16.6021C56.9823 16.3839 56.1287 16.5203 55.353 16.8906C53.751 17.6507 52.9442 19.3111 52.7298 20.9911C52.6246 21.8213 52.6635 22.6671 52.7727 23.4973C52.8701 24.2379 53.0377 24.9863 53.4236 25.6372C53.8095 26.2881 54.4331 26.8143 55.201 26.9235C55.9688 27.0326 56.7211 26.7793 57.4812 26.5844C57.5591 26.5649 57.6371 26.5454 57.7151 26.5298C57.7657 26.5181 58.0152 26.5025 57.8359 26.5064C57.9099 26.5064 57.984 26.4947 58.062 26.4947C58.0931 26.4947 58.1243 26.4947 58.1555 26.4947C58.3231 26.4986 58.0892 26.4596 58.1672 26.4947C58.214 26.5181 58.3894 26.5727 58.2529 26.5064C58.3309 26.5454 58.405 26.5883 58.4751 26.635C58.3543 26.5532 58.4712 26.6467 58.518 26.6935C58.5375 26.713 58.557 26.7403 58.5765 26.7598C58.4634 26.6311 58.5531 26.7364 58.5765 26.7715C58.6115 26.8338 58.6466 26.8923 58.6817 26.9586C58.7012 26.9975 58.7168 27.0326 58.7363 27.0716C58.7246 27.0443 58.6817 26.9235 58.7285 27.0599C58.783 27.2119 58.8337 27.3639 58.8844 27.5198C58.9974 27.8745 59.1105 28.2292 59.2664 28.5683C59.6055 29.305 60.2564 29.7572 60.7943 30.3262C60.8294 30.3652 60.8645 30.4042 60.8995 30.4393C60.9112 30.451 60.9931 30.5523 60.9229 30.4627C60.9775 30.5328 61.0243 30.6069 61.071 30.6848C61.1178 30.7628 61.1607 30.8368 61.1997 30.9148C61.2231 30.9616 61.2425 31.0045 61.2659 31.0512C61.2309 30.9772 61.2581 31.0278 61.2737 31.0746C61.4063 31.4371 61.492 31.8113 61.5466 32.1894C61.5271 32.0608 61.5622 32.3375 61.5661 32.3726C61.5739 32.4622 61.5817 32.5558 61.5894 32.6454C61.605 32.8403 61.6167 33.0391 61.6284 33.234C61.6518 33.6549 61.6752 34.0759 61.722 34.4969C61.8272 35.444 62.0182 36.3678 62.4431 37.2292C63.1174 38.6012 64.5674 39.7862 66.1732 39.6263C66.945 39.5484 67.7129 39.2249 68.2352 38.6324C68.8276 37.9542 68.9407 37.1396 68.9446 36.2665C68.9446 36.0872 68.9446 35.904 68.9563 35.7247C68.9563 35.6818 68.9913 35.4596 68.9641 35.596C68.9835 35.4986 69.0069 35.4051 69.0342 35.3076C69.0732 35.1673 69.0537 35.253 69.0342 35.2881C69.0537 35.2413 69.081 35.1985 69.1044 35.1556C69.12 35.1283 69.1433 35.101 69.1589 35.0737C69.0771 35.1556 69.2135 34.9763 69.1589 35.0737C69.2798 34.9568 69.3889 34.8282 69.5097 34.7112C69.8099 34.415 70.0671 34.0954 70.2191 33.6978C70.3711 33.3002 70.3361 32.8052 70.1763 32.4077C70.0165 32.0101 69.7826 31.671 69.6072 31.289C69.6618 31.4098 69.5799 31.2032 69.5682 31.1643C69.5526 31.1136 69.5292 30.9109 69.537 31.0551C69.5331 30.9577 69.5292 30.868 69.5331 30.7706C69.5331 30.7589 69.5409 30.642 69.5331 30.7316C69.5214 30.833 69.5526 30.642 69.5565 30.6225C69.576 30.5406 69.5994 30.4588 69.6267 30.3808C69.6345 30.3613 69.689 30.221 69.654 30.3029C69.6228 30.3769 69.6734 30.2678 69.6734 30.2639C69.7202 30.1781 69.767 30.0924 69.8177 30.0066C69.8372 29.9754 69.8566 29.9443 69.88 29.9131C69.9541 29.8039 69.767 30.0378 69.9151 29.8663C70.0242 29.7377 70.1412 29.6246 70.2659 29.5155C70.1529 29.6129 70.3166 29.4804 70.3556 29.4531C70.4452 29.3947 70.5349 29.3362 70.6284 29.2855C70.7804 29.1998 70.9363 29.1218 71.0922 29.0517C71.139 29.0322 71.1858 29.0088 71.2326 28.9893C71.217 28.9971 71.139 29.0283 71.2209 28.9932C71.3027 28.9581 71.3846 28.9269 71.4703 28.8958C71.8055 28.771 72.1485 28.6619 72.4876 28.5527C72.8774 28.4319 73.1659 28.0032 73.0333 27.5939C72.9008 27.1846 72.4915 26.9196 72.0745 27.0482C70.6518 27.4887 69.0342 28.0421 68.3248 29.4726C67.9155 30.299 67.8571 31.1915 68.243 32.0374C68.317 32.1972 68.4028 32.3531 68.4924 32.5051C68.5353 32.5831 68.5782 32.6571 68.621 32.7351C68.6405 32.774 68.7419 33.0118 68.6951 32.8832C68.7068 32.9183 68.7692 33.1287 68.7536 33.0508C68.7341 32.9611 68.7341 33.2691 68.7653 33.0937C68.7614 33.1248 68.7458 33.1599 68.7419 33.1872C68.7341 33.2886 68.8081 33.0976 68.7497 33.1794C68.7341 33.2028 68.7185 33.2379 68.7029 33.2613C68.6912 33.2808 68.5899 33.4211 68.6522 33.3392C68.699 33.2808 68.5704 33.4289 68.5431 33.4601C68.4885 33.5185 68.434 33.5731 68.3794 33.6277C68.2586 33.7446 68.1377 33.8654 68.0325 33.9941C67.7518 34.3293 67.5414 34.7112 67.4634 35.1439C67.3854 35.5766 67.3854 35.9663 67.3816 36.3834C67.3816 36.5666 67.3738 36.7459 67.3621 36.9252C67.3621 36.9525 67.3348 37.0733 67.3621 36.9447C67.3543 36.9837 67.3465 37.0187 67.3387 37.0577C67.3309 37.0967 67.3231 37.1318 67.3114 37.1668C67.3114 37.1591 67.249 37.3734 67.2841 37.2682C67.3114 37.1863 67.2295 37.3734 67.2139 37.4046C67.1945 37.4397 67.0814 37.5956 67.1321 37.5332C67.1906 37.4631 67.0502 37.619 67.0269 37.6424C66.984 37.6853 66.8164 37.8139 66.945 37.7242C66.8203 37.81 66.6916 37.8762 66.5591 37.9503C66.6994 37.8685 66.524 37.962 66.4773 37.9776C66.3954 38.0049 66.3136 38.0283 66.2278 38.0477C66.1576 38.0633 65.9939 38.0711 66.146 38.0672C66.0719 38.0672 65.9939 38.0789 65.9199 38.0789C65.8458 38.0789 65.7679 38.0672 65.6938 38.0711C65.8419 38.0711 65.7562 38.0828 65.7094 38.0711C65.6665 38.0633 65.6198 38.0555 65.5769 38.0438C65.4833 38.0205 65.3937 37.9932 65.304 37.962C65.1676 37.9191 65.3586 37.9971 65.23 37.9347C65.0585 37.8529 64.8987 37.7554 64.7428 37.6463C64.6258 37.5644 64.7817 37.6853 64.6765 37.5917C64.6063 37.5293 64.5323 37.4631 64.466 37.3968C64.4153 37.3461 64.3647 37.2916 64.3179 37.2409C64.2867 37.2058 64.2555 37.1668 64.2243 37.1318C64.1347 37.0265 64.2399 37.1591 64.1893 37.0889C64.0918 36.9525 63.9983 36.8122 63.9164 36.664C63.8735 36.59 63.8346 36.5159 63.7995 36.4419C63.7449 36.3288 63.741 36.321 63.7098 36.2431C63.3941 35.4362 63.2967 34.6879 63.2382 33.8849C63.1213 32.2634 63.1174 30.5562 61.9636 29.2777C61.7103 28.9971 61.4179 28.7593 61.149 28.4982C61.0827 28.4358 61.0204 28.3696 60.9619 28.3033C60.9268 28.2643 60.8917 28.2253 60.8606 28.1864C60.8723 28.1981 60.9151 28.2643 60.8645 28.1903C60.7631 28.0499 60.6852 27.9018 60.6111 27.7459C60.6852 27.9018 60.5955 27.703 60.5799 27.6602C60.5526 27.59 60.5293 27.5159 60.5059 27.4419C60.4513 27.2743 60.4006 27.1067 60.3461 26.9391C60.2408 26.6117 60.12 26.2687 59.9329 25.9763C59.5002 25.2864 58.7636 24.8771 57.9411 24.92C57.2239 24.9551 56.5457 25.2279 55.848 25.3761C55.7584 25.3955 55.8714 25.3761 55.887 25.3722C55.8402 25.3722 55.7973 25.38 55.7506 25.3839C55.6726 25.3877 55.5947 25.3761 55.5167 25.3839C55.431 25.3916 55.5401 25.3916 55.5596 25.3955C55.5167 25.3878 55.4699 25.38 55.4271 25.3683C55.3647 25.3527 55.1737 25.2708 55.3218 25.3449C55.2594 25.3137 55.201 25.2786 55.1386 25.2435C55.1113 25.2279 55.0879 25.2085 55.0646 25.1929C55.1971 25.2747 55.1113 25.2318 55.084 25.2007C55.0334 25.15 54.9827 25.0993 54.9359 25.0525C54.9125 25.0292 54.897 25.0058 54.8775 24.9824C54.9866 25.0993 54.8931 25.0019 54.8697 24.9668C54.7878 24.8421 54.7177 24.7134 54.6514 24.5809C54.6397 24.5614 54.5851 24.4328 54.6241 24.5263C54.6592 24.6121 54.6202 24.5107 54.6124 24.4991C54.5812 24.4172 54.554 24.3315 54.5267 24.2496C54.4799 24.1015 54.4409 23.9495 54.4097 23.7975C54.3941 23.7234 54.3785 23.6454 54.363 23.5714C54.3552 23.5285 54.3474 23.4856 54.3396 23.4428C54.3396 23.4233 54.3162 23.2829 54.3318 23.3843C54.3474 23.5012 54.324 23.3258 54.324 23.2985C54.3201 23.2557 54.3162 23.2167 54.3084 23.1738C54.2967 23.0764 54.2889 22.9789 54.2811 22.8776C54.2616 22.6671 54.2499 22.4566 54.246 22.2422C54.2421 22.0435 54.2421 21.8486 54.246 21.6498C54.246 21.5523 54.2538 21.4549 54.2616 21.3535C54.2655 21.299 54.2694 21.2405 54.2772 21.1859C54.2772 21.1665 54.3006 20.9911 54.285 21.1002C54.3902 20.3128 54.5968 19.6736 55.0685 19.0655C54.9905 19.1669 55.1347 18.9954 55.1581 18.9681C55.2166 18.9057 55.275 18.8434 55.3374 18.781C55.3998 18.7186 55.4621 18.6641 55.5284 18.6095C55.5557 18.5861 55.583 18.5627 55.6141 18.5393C55.5284 18.6095 55.6219 18.5393 55.6609 18.5082C55.7973 18.4107 55.9455 18.325 56.0936 18.2509C56.1287 18.2314 56.3352 18.1496 56.2027 18.2002C56.2924 18.1691 56.382 18.1379 56.4717 18.1106C56.5496 18.0872 56.6315 18.0716 56.7133 18.056C56.7484 18.0482 56.7835 18.0443 56.8186 18.0365C56.6665 18.056 56.7913 18.0404 56.8186 18.0404C56.9004 18.0404 56.9823 18.0326 57.0641 18.0365C57.0992 18.0365 57.1343 18.0365 57.1694 18.0404C57.3837 18.0482 57.0914 18.017 57.2083 18.0404C57.3759 18.0794 57.5435 18.1184 57.7073 18.1769C57.7423 18.1885 57.9528 18.2782 57.832 18.2236C57.9255 18.2665 58.0152 18.3094 58.1048 18.3523C58.8259 18.7031 59.5392 19.1045 60.3616 19.1201C60.8138 19.1279 61.2464 18.9837 61.683 18.8862C61.7181 18.8785 61.9441 18.8473 61.8584 18.8512C61.9558 18.8434 62.0494 18.8473 62.1468 18.8512C62.2794 18.859 62.0494 18.8317 62.1819 18.8512C62.2209 18.859 62.2638 18.8668 62.3027 18.8746C62.408 18.8979 62.5132 18.9291 62.6185 18.9642C62.6691 18.9798 62.8367 19.0461 62.8367 19.0461C62.7666 19.0188 62.9264 19.085 62.9381 19.0889C62.9771 19.1045 63.016 19.124 63.0511 19.1435C63.2538 19.237 63.4526 19.3384 63.6592 19.4319C64.0295 19.6034 64.4153 19.7633 64.8207 19.8334C65.7601 20.001 66.7033 19.7827 67.2802 18.9798C67.7207 18.3678 67.7908 17.5493 67.6232 16.8282C67.4478 16.0643 66.9255 15.4055 66.3292 14.9222C65.6899 14.4038 64.9649 13.9127 64.2088 13.5931C63.7371 13.3943 63.2538 13.3085 62.7471 13.4021C62.3261 13.48 61.987 13.7295 61.6362 13.9556C61.5622 14.0062 61.4842 14.053 61.4063 14.0959C61.2698 14.1699 61.3517 14.1193 61.3829 14.1076C61.3478 14.1193 61.3127 14.131 61.2776 14.1388C61.2542 14.1465 61.1061 14.1621 61.2036 14.1543C61.2932 14.1504 61.1724 14.1543 61.1646 14.1543C61.1178 14.1543 61.071 14.1543 61.0204 14.1504C60.9502 14.1504 60.9385 14.131 61.0126 14.1504C60.6384 14.0569 60.2876 13.9283 59.9251 13.7957C59.1377 13.5112 58.3582 13.4722 57.5552 13.7217C56.8653 13.9322 56.2261 14.2596 55.5206 14.4233C55.4933 14.4311 55.3686 14.4428 55.5128 14.4272C55.4777 14.4272 55.4388 14.435 55.4037 14.435C55.3179 14.4428 55.2322 14.435 55.1464 14.4389C55.1308 14.4389 55.0217 14.4311 55.123 14.4389C55.2283 14.4506 55.0918 14.4311 55.0685 14.4233C55.0373 14.4155 55.0061 14.4077 54.9749 14.3999C54.8073 14.357 55.0217 14.4467 54.9476 14.396C54.9009 14.3648 54.7488 14.2635 54.8658 14.3648C54.8346 14.3375 54.8073 14.3025 54.7761 14.2791C54.7761 14.2791 54.8658 14.3843 54.8073 14.318C54.7878 14.2986 54.7761 14.2635 54.7644 14.2401C54.8658 14.4467 54.7839 14.2518 54.7878 14.2518C54.7761 14.244 54.8541 14.4467 54.8073 14.2713L54.7995 14.3609L54.8151 14.3025C54.8229 14.3375 54.7255 14.4389 54.8151 14.3258C54.8268 14.3103 54.8892 14.244 54.8268 14.3064C54.7488 14.3843 54.9905 14.1777 54.8385 14.2908C54.9009 14.244 54.9671 14.205 55.0373 14.1699C55.0685 14.1543 55.0957 14.1388 55.1269 14.1271C54.9866 14.1933 55.1269 14.131 55.1581 14.1232C55.4972 14.014 55.8597 14.0023 56.2105 13.9322C57.0135 13.7724 57.5981 13.2812 57.9372 12.5446C58.062 12.2717 58.1789 12.0067 58.3231 11.7455C58.3894 11.6247 58.2374 11.8235 58.3348 11.726C58.3582 11.7026 58.3855 11.6754 58.4128 11.6481C58.4634 11.5935 58.4946 11.6247 58.3855 11.6676C58.4322 11.6481 58.5336 11.5935 58.4245 11.6403C58.5336 11.5935 58.5063 11.613 58.4517 11.6247C58.518 11.6169 58.5882 11.6208 58.6544 11.6247C58.6973 11.6247 58.7363 11.6286 58.7752 11.6325C58.7402 11.6325 58.6505 11.613 58.8142 11.6364C58.9117 11.652 59.0052 11.6676 59.1027 11.6793C59.3131 11.7104 59.5158 11.7377 59.7302 11.7182C60.1629 11.6793 60.5994 11.5428 60.8956 11.2076C61.2192 10.8373 61.3361 10.3228 61.188 9.85119C61.071 9.4848 60.8372 9.20026 60.615 8.89623C60.5682 8.82997 60.5176 8.76371 60.4747 8.69355C60.4513 8.65457 60.4279 8.61559 60.4084 8.57662C60.4006 8.56103 60.3694 8.46748 60.3928 8.54933C60.4162 8.63508 60.3772 8.33495 60.385 8.52984C60.385 8.49866 60.385 8.46358 60.385 8.4324C60.385 8.35054 60.4006 8.30377 60.3772 8.40901C60.385 8.36614 60.4396 8.17904 60.4123 8.2492C60.385 8.31936 60.4708 8.14786 60.4942 8.10888C60.3967 8.257 60.5838 8.02703 60.5137 8.08939C60.4552 8.14006 60.5059 8.08939 60.5254 8.0855C60.6735 8.03093 60.3928 8.10888 60.4942 8.09719C60.5526 8.08939 60.615 8.06601 60.6735 8.05431C60.5137 8.0855 60.6462 8.06211 60.728 8.06211C60.8021 8.06211 60.8723 8.06601 60.9463 8.06991C60.9892 8.06991 61.0866 8.10109 60.9268 8.06601C60.958 8.0738 60.9892 8.0738 61.0204 8.0816C61.0905 8.10109 61.1646 8.11278 61.2347 8.13227C61.2737 8.14396 61.4608 8.20633 61.3712 8.17514C61.2815 8.14396 61.4452 8.21412 61.4803 8.23361C61.492 8.24141 61.57 8.28818 61.5661 8.28818C61.5661 8.29208 61.4179 8.16345 61.5154 8.257C61.8155 8.53374 62.3261 8.57662 62.6185 8.257C62.9108 7.93738 62.9381 7.45016 62.6185 7.15393L62.5639 7.18121Z" fill="#C2E3B9"/>
<path d="M17.0576 17.8688C17.194 19.0109 17.4941 20.0983 17.9424 21.1585C18.1489 21.6458 18.3867 22.1213 18.6634 22.5695C18.9714 23.0606 19.3183 23.5752 19.8367 23.8675C20.5344 24.2573 21.2789 24.039 21.7349 23.4153C21.8012 23.3257 21.8596 23.2321 21.9181 23.1425L21.961 23.0957C21.8869 23.1464 21.8869 23.1464 21.961 23.0957L21.9298 23.1113C21.8752 23.1308 21.8869 23.1308 21.961 23.1113L21.883 23.123C21.961 23.123 21.9727 23.123 21.9103 23.1152C21.7973 23.1152 21.996 23.1386 22.0077 23.1386C22.1792 23.1815 21.9259 23.0762 22.0779 23.1698C22.2104 23.2555 22.3118 23.3686 22.417 23.5284C22.5612 23.7506 22.686 23.9883 22.8341 24.2105C23.1654 24.6977 23.5941 25.0953 24.1125 25.3798C25.1104 25.9333 26.2875 26.1555 27.3789 26.4517C27.9869 26.6193 28.5989 26.783 29.2069 26.9506C29.6825 27.0793 30.1619 27.2079 30.6179 27.395C30.4893 27.3443 30.6062 27.3911 30.6296 27.4028C30.692 27.434 30.7583 27.4612 30.8206 27.4963C30.9142 27.5431 31.0038 27.5938 31.0935 27.6522C31.1324 27.6756 31.3663 27.8432 31.2455 27.7497C31.3507 27.8354 31.4521 27.929 31.5456 28.0303C31.5768 28.0654 31.608 28.1005 31.6353 28.1356C31.53 28.003 31.6625 28.1901 31.6742 28.2057C31.6976 28.2447 31.721 28.2876 31.7444 28.3305C31.7444 28.3227 31.8379 28.5331 31.7951 28.4318C31.7522 28.3304 31.8301 28.5448 31.8301 28.537C31.8457 28.5799 31.8574 28.6267 31.8691 28.6735C31.8847 28.7397 31.9003 28.8099 31.912 28.88C31.9471 29.0476 31.912 28.767 31.9198 28.9541C31.9783 29.9441 31.7171 30.9186 31.7444 31.9047C31.7756 33.0156 32.2316 33.9355 33.0151 34.7111C33.3425 35.0346 33.6972 35.327 34.0285 35.6427C34.1766 35.783 34.3247 35.9311 34.4573 36.0831C34.5001 36.1338 34.5469 36.1845 34.5898 36.239C34.5703 36.2157 34.5079 36.1221 34.5898 36.2429C34.6716 36.3638 34.7496 36.4885 34.8197 36.6171C34.8938 36.7575 34.9484 36.8939 35.0146 37.1511C35.0458 37.2759 35.0731 37.4006 35.0887 37.5292C35.0692 37.3889 35.0887 37.5565 35.0887 37.5916C35.0965 37.6812 35.1004 37.7748 35.1043 37.8644C35.1121 38.1022 35.0926 38.34 35.0731 38.5777C35.0497 38.835 35.1004 38.4335 35.0575 38.6908C35.0497 38.7453 35.0419 38.796 35.0302 38.8506C35.0029 39.0104 34.9679 39.1702 34.9289 39.3261C34.6599 40.4409 34.1649 41.4777 33.8141 42.5651C33.4633 43.6526 33.2256 44.9623 33.5452 46.1355C33.8648 47.3088 34.7769 48.2403 36.0164 48.2364C36.5932 48.2364 37.1584 47.9948 37.5326 47.5543C37.9068 47.1139 38.0315 46.6227 38.0822 46.0771C38.1212 45.6444 38.0822 45.2078 38.0861 44.7752C38.0861 44.6777 38.0861 44.5764 38.0939 44.479C38.0978 44.4127 38.1056 44.3503 38.1095 44.2841C38.1095 44.3114 38.0783 44.4439 38.1095 44.2997C38.1329 44.1944 38.1563 44.097 38.1835 43.9956C38.2186 43.8631 38.1835 43.9761 38.1718 44.0073C38.203 43.9411 38.2342 43.8787 38.2732 43.8163C38.3005 43.7735 38.3278 43.7306 38.3589 43.6916C38.2654 43.8241 38.3239 43.7384 38.3511 43.7111C38.4213 43.6409 38.4915 43.5708 38.5655 43.5045C38.7019 43.3798 38.4759 43.5474 38.5733 43.4967C38.6162 43.4733 38.6591 43.4383 38.698 43.411C38.7916 43.3486 38.8929 43.2901 38.9904 43.2356C39.3529 43.0368 39.7349 42.8692 40.0973 42.6665C40.5534 42.4053 40.9471 42.0818 41.2628 41.6648C41.5785 41.2477 41.7617 40.7644 41.9254 40.2849C42.0034 40.0589 42.0735 39.8289 42.1554 39.6028C42.1944 39.4898 42.2372 39.3768 42.2801 39.2676C42.2684 39.2988 42.2216 39.3963 42.284 39.2598C42.3152 39.1975 42.3425 39.1312 42.3776 39.0688C42.5919 38.6596 42.8414 38.4335 43.2195 38.1801C43.6833 37.8683 44.1666 37.5916 44.5915 37.2252C45.0163 36.8588 45.3399 36.4339 45.6244 35.9779C46.1857 35.0736 46.5287 34.0407 46.8444 33.0312C47.1601 32.0216 47.4057 30.8835 46.8327 29.9636C46.5326 29.4803 46.0454 29.1334 45.4919 28.997C45.0047 28.88 44.5057 28.8995 44.0107 28.919C43.7769 28.9307 43.543 28.9385 43.313 28.9307C43.2662 28.9307 43.2234 28.9229 43.1766 28.9229C42.9622 28.9112 43.274 28.9502 43.1493 28.9229C43.0246 28.8956 42.9115 28.8722 42.7907 28.8333C42.6036 28.7709 42.857 28.8839 42.7634 28.8177C42.7206 28.7865 42.666 28.767 42.6231 28.7358C42.588 28.7124 42.553 28.689 42.5179 28.6618C42.666 28.7709 42.5023 28.6384 42.4789 28.6189C42.4087 28.5526 42.3425 28.4825 42.2801 28.4084C42.2528 28.3772 42.1671 28.2603 42.2606 28.385C42.2216 28.3304 42.1827 28.2759 42.1437 28.2213C41.8864 27.8471 41.6759 27.4418 41.4148 27.0715C41.0874 26.6154 40.7171 26.2295 40.2416 25.9255C39.3841 25.3759 38.355 25.1849 37.3611 25.0407C36.2697 24.8848 35.19 24.7055 34.1259 24.421C33.5764 24.2729 33.0307 24.1053 32.4928 23.9143C32.2394 23.8246 31.9822 23.7311 31.7327 23.6297C31.6119 23.583 31.4949 23.5362 31.378 23.4855C31.4716 23.5245 31.3078 23.4543 31.2884 23.4465C31.1987 23.4075 31.1052 23.3686 31.0155 23.3257C29.9748 22.858 28.9692 22.3123 28.0142 21.6886C27.9051 21.6185 27.7998 21.5483 27.6946 21.4742C27.6439 21.4392 27.5894 21.4041 27.5387 21.3651C27.414 21.2755 27.4958 21.33 27.5192 21.3534C27.4607 21.3066 27.4101 21.2521 27.3555 21.2053C27.336 21.1858 27.2658 21.0923 27.3399 21.1975C27.3399 21.1975 27.2425 21.0065 27.2775 21.104C27.297 21.1546 27.297 21.139 27.2697 21.0611C27.2814 21.1741 27.2814 21.1897 27.2775 21.104C27.2853 20.9792 27.2658 21.1546 27.262 21.1546L27.2736 21.104C27.2931 21.0416 27.2931 21.0377 27.2697 21.104L27.2503 21.1507C27.2658 21.1196 27.2814 21.0923 27.3009 21.0611C27.2619 21.1702 27.2191 21.1468 27.2736 21.0962C27.3126 21.0572 27.3516 21.0221 27.3906 20.9831C27.3672 21.0026 27.2542 21.0689 27.3672 21.0065C27.4101 20.9831 27.4529 20.9597 27.4919 20.9325C27.6556 20.8311 27.4101 20.9442 27.5504 20.9052C27.64 20.8818 27.7258 20.8545 27.8154 20.8311C27.8661 20.8194 28.0025 20.8116 27.8193 20.8272C27.8583 20.8272 27.9012 20.8194 27.9402 20.8194C27.9947 20.8194 28.3066 20.835 28.0883 20.8077C28.2598 20.8272 28.4274 20.8701 28.595 20.9091C29.1836 21.0455 29.7877 21.217 30.3958 21.139C31.4832 20.9987 32.1498 20.2464 32.485 19.2486C32.6097 18.8783 32.6877 18.4885 32.7812 18.1105C32.8241 17.9273 32.8709 17.7402 32.9293 17.5609C32.9566 17.4673 32.9878 17.3738 33.0229 17.2802C33.0385 17.2452 33.0502 17.2062 33.0657 17.1711C32.9878 17.3621 33.0735 17.1594 33.0969 17.1204C33.1359 17.0464 33.1788 16.9723 33.2256 16.8983C33.2489 16.8632 33.3659 16.7229 33.2372 16.8749C33.2645 16.8437 33.2918 16.8086 33.3191 16.7774C33.3581 16.7345 33.401 16.6956 33.4438 16.6566C33.475 16.6293 33.5958 16.5436 33.4711 16.6293C33.5764 16.5591 33.6855 16.5046 33.7907 16.4383C33.896 16.3721 33.627 16.4929 33.8258 16.4227C33.8687 16.4071 33.9116 16.3915 33.9544 16.3759C34.0636 16.3409 34.1766 16.3097 34.2936 16.2863C34.352 16.2746 34.4105 16.2629 34.4689 16.2512C34.5079 16.2434 34.6638 16.2239 34.5118 16.2434C34.6444 16.2278 34.7769 16.2161 34.9094 16.2083C35.8799 16.1538 36.8505 16.2551 37.8055 16.0096C38.7604 15.764 39.7076 15.0897 39.9648 14.0607C40.2221 13.0317 39.7894 11.9637 39.0644 11.2309C38.2381 10.3968 37.0649 10.0966 35.9189 10.159C34.6755 10.2291 33.5101 10.6579 32.3096 10.9502C31.7015 11.0984 31.2377 11.1841 30.6218 11.1646C30.3217 11.1568 30.1853 11.1373 29.8891 11.0516C29.8462 11.0399 29.7994 11.0243 29.7565 11.0087C29.546 10.9463 29.8345 11.0516 29.7137 10.997C29.5928 10.9424 29.4798 10.884 29.3706 10.8138C29.32 10.7826 29.2732 10.7476 29.2225 10.7164C29.1134 10.6423 29.3551 10.8333 29.1836 10.6891C29.0939 10.6111 29.0082 10.5332 28.9263 10.4474C28.8951 10.4123 28.8639 10.3773 28.8328 10.3422C28.6846 10.1824 28.8795 10.4162 28.8055 10.311C28.747 10.2291 28.6885 10.1434 28.6418 10.0499C28.6106 9.99138 28.5794 9.92902 28.5521 9.87055C28.5638 9.90173 28.5989 10.007 28.5599 9.87055C28.5287 9.76531 28.4975 9.66007 28.482 9.55093C28.5092 9.71464 28.4897 9.59771 28.4897 9.56263C28.4897 9.49637 28.4897 9.4301 28.4897 9.36384C28.4897 9.31707 28.5209 9.23132 28.4897 9.37164C28.5053 9.30537 28.5209 9.23911 28.5365 9.17285L27.7843 9.74582C29.1602 9.91343 30.5322 10.0771 31.9081 10.2447C32.3602 10.2993 32.6409 9.83937 32.6877 9.46518C32.7422 9.02863 32.7968 8.59208 32.8514 8.15943L32.4655 8.83374C32.4967 8.81036 32.7305 8.68563 32.6019 8.7363C32.6799 8.70512 32.7617 8.68952 32.8436 8.67004C32.9566 8.64275 32.7344 8.66224 32.8514 8.67004C32.8981 8.67393 32.9488 8.67004 32.9995 8.67004C33.0385 8.67004 33.0735 8.67004 33.1125 8.67393C33.1086 8.67393 33.3191 8.69342 33.2372 8.68173C33.1476 8.67004 33.3074 8.69342 33.3269 8.69732C33.3776 8.70512 33.4282 8.71681 33.4828 8.7285C33.5725 8.74799 33.6621 8.76748 33.7518 8.79087C33.9544 8.84154 34.1532 8.9 34.3559 8.94678C35.0926 9.12218 35.9228 9.10659 36.601 8.7363C37.4391 8.27636 37.7041 7.27853 37.3104 6.42881C36.9168 5.57909 36.0592 5.15034 35.3498 4.67871C34.4884 4.10963 33.627 3.54835 32.7617 2.98707C32.4187 2.76489 31.8847 2.90522 31.6937 3.26771C31.4871 3.65749 31.608 4.09794 31.9744 4.3357C32.7422 4.83462 33.5062 5.33353 34.2702 5.83635C34.6521 6.0897 35.0458 6.33137 35.42 6.60031C35.4512 6.6237 35.4824 6.64319 35.5097 6.66658C35.4122 6.59252 35.5097 6.67047 35.5252 6.68606C35.5993 6.75233 35.6734 6.81859 35.7435 6.88875C35.7786 6.92383 35.8098 6.95891 35.841 6.99789C35.8176 6.9745 35.7708 6.88485 35.8488 7.00958C35.8683 7.04076 35.8838 7.06805 35.9033 7.09923C35.9384 7.16549 35.9501 7.23175 35.9228 7.13041C35.9345 7.17329 35.9462 7.21616 35.9579 7.25904C35.9111 7.07194 35.9423 7.24345 35.9462 7.25124C35.9696 7.30581 35.8877 7.38377 35.9462 7.23955C35.9345 7.26683 35.9189 7.3175 35.915 7.34479C35.915 7.34479 35.9696 7.19667 35.9384 7.27853C35.9267 7.30971 35.8994 7.40715 35.9267 7.30971C35.9501 7.22786 35.9384 7.29022 35.9033 7.3292C35.8605 7.37597 35.7786 7.40326 35.9228 7.3253C35.8605 7.35648 35.7942 7.39546 35.7357 7.43444C35.7435 7.43054 35.876 7.39156 35.7942 7.41105C35.7591 7.41885 35.7201 7.43444 35.6851 7.44613C35.6188 7.46562 35.5525 7.47731 35.4863 7.4929C35.346 7.52409 35.4863 7.4929 35.5175 7.4929C35.4668 7.4968 35.4161 7.5007 35.3654 7.5046C35.2134 7.51239 35.0614 7.5007 34.9094 7.48901C35.1082 7.5046 34.8821 7.48121 34.8236 7.46562C34.7184 7.44223 34.6132 7.41105 34.504 7.38377C34.0675 7.27073 33.6348 7.16159 33.1827 7.12262C32.6682 7.07974 32.0991 7.18108 31.6742 7.48901C31.2884 7.76575 31.2884 8.15163 31.2338 8.58039C31.1987 8.87662 31.1597 9.17285 31.1247 9.46518L31.9042 8.68563C30.5283 8.52192 29.1563 8.35431 27.7804 8.18671C27.4451 8.14773 27.1138 8.45955 27.0281 8.75968C26.7241 9.83547 27.1684 10.9619 27.9752 11.6986C28.8483 12.4977 29.9904 12.7978 31.1597 12.712C32.407 12.6224 33.5686 12.1819 34.7769 11.9013C34.9055 11.8701 35.038 11.8428 35.1667 11.8155C35.2524 11.8 35.3421 11.7844 35.4278 11.7688C35.4356 11.7688 35.5798 11.7454 35.4824 11.7571C35.7669 11.7181 36.0592 11.7025 36.3516 11.7103C36.4217 11.7103 36.4958 11.7181 36.566 11.722C36.5932 11.722 36.7686 11.7415 36.6556 11.7259C36.7959 11.7454 36.9401 11.7766 37.0766 11.8155C37.1311 11.8311 37.1896 11.8467 37.2442 11.8662C37.2208 11.8584 37.4741 11.952 37.3533 11.9013C37.2442 11.8545 37.4352 11.9442 37.4352 11.9442C37.4936 11.9754 37.5482 12.0065 37.6067 12.0416C37.6456 12.065 37.6807 12.0923 37.7158 12.1118C37.8951 12.2209 37.6106 12.0104 37.7665 12.1508C37.8327 12.2092 37.899 12.2677 37.9614 12.3301C38.0081 12.3768 38.051 12.4275 38.0939 12.4743C38.1134 12.4977 38.1835 12.5912 38.0939 12.4743C38.1718 12.5795 38.242 12.6886 38.3044 12.8017C38.3316 12.8563 38.4174 13.0589 38.3589 12.9069C38.394 13.0044 38.4291 13.1057 38.4525 13.2071C38.4525 13.2148 38.4915 13.4136 38.472 13.285C38.4525 13.1564 38.472 13.3552 38.472 13.3669C38.472 13.4058 38.472 13.4487 38.472 13.4877C38.472 13.5773 38.4486 13.6553 38.4759 13.5228C38.4564 13.6241 38.4291 13.7216 38.394 13.819C38.4486 13.6631 38.4057 13.7917 38.3823 13.8346C38.355 13.8814 38.3278 13.9281 38.3005 13.9749C38.281 14.01 38.2069 14.0802 38.3083 13.971C38.2732 14.01 38.2381 14.049 38.203 14.088C38.1679 14.1269 38.129 14.1581 38.09 14.1932C37.9458 14.3218 38.2147 14.123 38.0471 14.2205C37.9575 14.275 37.8678 14.3257 37.7743 14.3764C37.7431 14.392 37.6378 14.431 37.786 14.3764C37.7353 14.3959 37.6846 14.4154 37.6339 14.431C37.4118 14.505 37.1857 14.5518 36.9557 14.5908C37.1311 14.5596 36.8427 14.6025 36.792 14.6064C36.6907 14.6142 36.5893 14.6219 36.488 14.6258C36.2502 14.6375 36.0125 14.6336 35.7747 14.6297C35.2524 14.6258 34.7379 14.6414 34.2234 14.7155C33.2139 14.8597 32.2706 15.3508 31.7717 16.2746C31.3741 17.0113 31.2728 17.8415 31.0389 18.6328C31.0116 18.7224 30.9843 18.8121 30.9531 18.9017C30.9415 18.9368 30.9259 18.9719 30.9142 19.007C30.9765 18.8277 30.9415 18.9485 30.9142 18.9953C30.8791 19.0654 30.844 19.1395 30.8011 19.2057C30.7777 19.2408 30.7466 19.2759 30.731 19.3149C30.6959 19.3617 30.7115 19.3422 30.7739 19.2603C30.7505 19.2876 30.731 19.311 30.7076 19.3383C30.6842 19.3617 30.6608 19.3889 30.6335 19.4123C30.6101 19.4318 30.4893 19.502 30.5907 19.4513C30.7037 19.3967 30.5517 19.4708 30.5361 19.4786C30.5049 19.4981 30.4737 19.5176 30.4386 19.5332C30.2866 19.6072 30.5088 19.5176 30.3802 19.5526C30.3529 19.5604 30.1814 19.5994 30.3061 19.5799C30.1697 19.6033 30.0294 19.5916 29.8968 19.5799C29.8228 19.5799 29.7526 19.5604 29.6006 19.5293C29.4564 19.4981 29.3161 19.4669 29.1758 19.4318C28.8639 19.3578 28.5521 19.2837 28.2325 19.2525C27.7336 19.2018 27.223 19.3188 26.7747 19.5332C26.3265 19.7475 25.9406 20.1256 25.7808 20.605C25.5859 21.1897 25.7886 21.7978 26.1862 22.246C26.5603 22.6631 27.0982 22.9632 27.5699 23.2555C28.0415 23.5479 28.5482 23.8402 29.0549 24.1014C30.0761 24.6315 31.1363 25.0875 32.2238 25.4617C33.3113 25.8359 34.3793 26.1126 35.4863 26.3114C36.4724 26.4868 37.4858 26.5531 38.4525 26.8298C38.5577 26.861 38.6591 26.8922 38.7643 26.9272C38.8072 26.9428 39.08 27.0559 38.9436 26.9935C39.1697 27.0949 39.3841 27.2157 39.5867 27.3599C39.6959 27.4379 39.4581 27.243 39.6257 27.3911C39.6608 27.4223 39.6959 27.4534 39.731 27.4846C39.8167 27.5626 39.8947 27.6522 39.9726 27.738C39.996 27.7614 40.0701 27.8471 39.9726 27.738C40.0155 27.7926 40.0545 27.8471 40.0896 27.9017C40.1558 27.9952 40.2143 28.0888 40.2766 28.1862C40.8262 29.0593 41.329 29.9519 42.3581 30.3183C42.8063 30.4781 43.313 30.4898 43.7847 30.4742C44.0185 30.4664 44.2485 30.4508 44.4824 30.4469C44.5837 30.4469 44.685 30.4469 44.7864 30.4469C44.841 30.4469 44.8955 30.4586 44.9501 30.4586C44.7747 30.4586 44.954 30.4586 44.9969 30.4703C45.0475 30.482 45.0982 30.4976 45.1489 30.5093C45.1956 30.521 45.3204 30.5795 45.1684 30.5093C45.2073 30.5288 45.2424 30.5444 45.2814 30.5678C45.2814 30.5678 45.4451 30.6886 45.3594 30.6145C45.2814 30.5522 45.5387 30.8445 45.4295 30.6808C45.4646 30.7354 45.4958 30.7899 45.527 30.8484C45.4646 30.7354 45.5192 30.8328 45.5425 30.903C45.5542 30.9459 45.562 30.9887 45.5737 31.0277C45.6322 31.2187 45.5737 30.9264 45.5815 31.0472C45.5815 31.1485 45.5932 31.2499 45.5893 31.3512C45.5893 31.4097 45.5854 31.4682 45.5776 31.5266C45.5776 31.5656 45.5503 31.7215 45.5776 31.5656C45.5581 31.6942 45.5309 31.8229 45.5036 31.9515C45.3944 32.4192 45.2385 32.8792 45.0826 33.3352C45.0008 33.5808 44.9111 33.8224 44.8176 34.0602C44.7981 34.107 44.7786 34.1576 44.7591 34.2044C44.8059 34.0953 44.7552 34.2122 44.7474 34.2317C44.685 34.372 44.6227 34.5123 44.5525 34.6488C44.4512 34.8514 44.3381 35.0502 44.2173 35.2412C44.151 35.3465 44.077 35.4478 44.0029 35.5491C44.0809 35.4439 43.9834 35.5725 43.9639 35.5959C43.9172 35.6544 43.8665 35.709 43.8158 35.7635C43.7418 35.8454 43.6599 35.9272 43.5781 36.0052C43.5235 36.0559 43.465 36.1065 43.4066 36.1533C43.3949 36.165 43.2935 36.2429 43.3832 36.1728C43.1766 36.3287 42.9544 36.4651 42.7322 36.6054C42.2684 36.9017 41.7851 37.2096 41.4304 37.6384C41.0757 38.0671 40.8379 38.5738 40.6469 39.1039C40.5729 39.3066 40.5105 39.5132 40.4404 39.7159C40.4014 39.8289 40.3624 39.9419 40.3234 40.055C40.3078 40.0979 40.2883 40.1446 40.2727 40.1875C40.2377 40.2733 40.2377 40.2771 40.2727 40.1992C40.2572 40.2304 40.2455 40.2616 40.2299 40.2966C40.187 40.3902 40.1363 40.4837 40.0857 40.5734C40.0584 40.6241 40.0272 40.6708 39.9921 40.7215C39.9726 40.7527 39.8752 40.8696 39.9687 40.7605C39.9064 40.8345 39.8362 40.9086 39.766 40.9749C39.7271 41.0099 39.6881 41.0411 39.6491 41.0762C39.7777 40.9554 39.6374 41.084 39.6062 41.1035C38.8851 41.6024 38.0276 41.8441 37.3689 42.4443C36.601 43.1459 36.4802 44.1399 36.5036 45.1221C36.5075 45.3209 36.5153 45.5158 36.5114 45.7146C36.5114 45.8198 36.5075 45.925 36.4958 46.0303C36.4958 46.042 36.4607 46.233 36.488 46.1082C36.5153 45.9835 36.4607 46.2174 36.4568 46.2369C36.4373 46.3109 36.3633 46.4746 36.4412 46.3226C36.4139 46.3733 36.3867 46.424 36.3594 46.4746C36.3399 46.5175 36.2697 46.5682 36.3789 46.459C36.3516 46.4863 36.2931 46.5331 36.2775 46.5682C36.2463 46.6344 36.3983 46.5058 36.258 46.5877C36.2191 46.611 36.1801 46.6344 36.1411 46.65C36.2931 46.576 36.1177 46.6461 36.0787 46.6578C35.9033 46.7124 36.2074 46.6773 36.0203 46.6617C35.9774 46.6617 35.9306 46.6617 35.8838 46.6617C35.6851 46.6539 35.9618 46.6968 35.8566 46.6539C35.8059 46.6344 35.7435 46.6227 35.6929 46.6072C35.6578 46.5994 35.5681 46.5448 35.689 46.6072C35.6383 46.5799 35.5876 46.5565 35.5369 46.5253C35.5019 46.5058 35.3888 46.4123 35.498 46.5058C35.4434 46.459 35.3927 46.4045 35.3421 46.3538C35.1822 46.194 35.3771 46.4123 35.2992 46.307C35.2641 46.2563 35.229 46.2018 35.1978 46.1472C35.1744 46.1043 35.1511 46.0576 35.1277 46.0147C35.0185 45.8081 35.1511 46.0887 35.1004 45.9562C35.0614 45.8471 35.0263 45.7379 34.999 45.6288C34.9835 45.5664 34.9718 45.5041 34.9601 45.4417C34.9523 45.4027 34.9445 45.3677 34.9406 45.3287C34.9523 45.4105 34.9523 45.4027 34.9406 45.3092C34.8782 44.1905 35.1744 43.2239 35.5837 42.1286C35.9696 41.0918 36.3906 40.0706 36.5465 38.9714C36.7024 37.8722 36.6361 36.6249 36.0125 35.6154C35.5136 34.8047 34.7457 34.2551 34.0792 33.5964C33.9973 33.5184 33.9194 33.4365 33.8453 33.3508C33.8063 33.3079 33.7712 33.265 33.7362 33.2222C33.7089 33.191 33.627 33.0702 33.7128 33.1949C33.6543 33.113 33.5997 33.0312 33.5452 32.9454C33.5179 32.8986 33.4906 32.848 33.4633 32.8012C33.4516 32.7817 33.3737 32.5829 33.4321 32.7427C33.3893 32.6297 33.3542 32.5167 33.323 32.3997C33.3113 32.353 33.3035 32.3062 33.2918 32.2594C33.2411 32.0411 33.2918 32.3491 33.284 32.2165C33.2645 31.9593 33.2567 31.7059 33.2684 31.4487C33.3191 30.4391 33.553 29.4608 33.3737 28.4513C32.9527 26.0736 30.236 25.6215 28.3027 25.0953C27.6946 24.9277 27.0827 24.764 26.4746 24.5964C26.2485 24.534 26.0225 24.4716 25.8003 24.4054C25.6795 24.3664 25.5586 24.3274 25.4378 24.2846C25.391 24.269 25.3403 24.2495 25.2936 24.2339C25.2468 24.2144 25.2 24.1988 25.1532 24.1793C25.2117 24.2027 25.2156 24.2066 25.1649 24.1793C24.9506 24.0819 24.744 23.9688 24.5491 23.8324C24.4244 23.7467 24.5062 23.7973 24.5296 23.8207C24.4711 23.7739 24.4166 23.7233 24.3659 23.6726C24.3308 23.6375 24.2957 23.6024 24.2607 23.5674C24.2607 23.5674 24.1203 23.392 24.1905 23.4855C23.8592 23.0295 23.6448 22.4838 23.2161 22.1057C22.7483 21.6964 22.0974 21.4431 21.4737 21.6107C21.1853 21.6886 20.9242 21.8562 20.7332 22.0862C20.6318 22.207 20.5461 22.3318 20.4603 22.4643C20.4369 22.4994 20.4135 22.5383 20.3863 22.5734C20.4447 22.5033 20.4447 22.4994 20.3863 22.5656L20.4447 22.5266L20.3902 22.5578C20.4291 22.5305 20.472 22.515 20.5188 22.5111C20.5967 22.4799 20.6045 22.589 20.5266 22.4994L20.5811 22.5189L20.5188 22.4799C20.3434 22.3162 20.6045 22.5968 20.4369 22.4097C20.4019 22.3707 20.3629 22.3357 20.3278 22.2967C20.1602 22.1252 20.3668 22.3551 20.2849 22.246C20.2031 22.1369 20.1251 22.0199 20.0511 21.9069C19.7665 21.4626 19.5249 20.9948 19.3105 20.5154C19.3066 20.5037 19.252 20.379 19.2949 20.4764C19.2676 20.4141 19.2442 20.3517 19.2208 20.2893C19.1779 20.1763 19.1351 20.0633 19.0922 19.9463C19.0064 19.7047 18.9285 19.4591 18.8583 19.2135C18.7882 18.968 18.7297 18.7263 18.679 18.4808C18.6517 18.356 18.6284 18.2274 18.6089 18.1027C18.6011 18.052 18.5933 18.0013 18.5855 17.9507C18.5465 17.7051 18.605 18.1027 18.5738 17.861C18.527 17.4556 18.2503 17.062 17.7942 17.0814C17.4123 17.097 16.964 17.4284 17.0147 17.861L17.0576 17.8688Z" fill="#C2E3B9"/>
</svg>
