<?xml version="1.0" encoding="UTF-8"?><svg id="Livello_1" xmlns="http://www.w3.org/2000/svg" viewBox="0 0 1229.6109258 426.1931631"><defs><style>.cls-1{stroke-width:0px;}</style></defs><path class="cls-1" d="M251.37648,53.0861816c-18.5825806-23.0524292-41.1657104-40.6104126-70.1131592-48.8189087-6.6871948-1.8962402-13.6367188-2.8693237-20.4655151-4.2672729h-18.7385864c-.9570923.2497559-1.9003296.619751-2.8733521.7313843-18.7182617,2.1479492-35.8128662,8.7203979-51.4745483,19.0422974-26.5751953,17.5145264-45.4660645,41.682312-59.6454468,69.7427368C8.8604888,127.5231934.3927764,168.0889282.0131987,210.4725952c-.3632202,40.5532227,6.7531128,79.6516724,23.4719238,116.7662354,13.2702026,29.4586792,31.4702759,55.2295532,57.6729126,74.7331543,18.0869751,13.4627686,38.2277832,22.0212402,60.8748169,23.8336182,34.0968628,2.7288818,63.2479248-9.0921631,88.6473389-31.0692749,24.0163574-20.7804565,40.6507568-46.8082886,52.2932129-76.0633545,21.6141357-54.3116455,25.211792-110.2241821,13.4033813-167.1829224-7.4911499-36.1340942-21.6583252-69.4472656-45.0003052-98.4038696ZM273.4621733,156.0267944c.024353,1.3463745.3145752,2.6879883.4147339,3.4842529-9.3356323,2.1333618-18.5258179,3.2003784-26.8911743,6.411438-10.0491943,3.8573608-19.4080811,9.5168457-29.0380249,14.4502563-2.324707,1.190918-4.4694824,2.75-6.8398438,3.8257446-.9591064.4353027-2.5042725.3777466-3.3847656-.1360474-.4586792-.2677002-.3904419-2.1665649.0170288-3.0683594,3.0007324-6.6407471,6.6332397-12.8657837,12.6239014-17.345459,8.4506226-6.3191528,18.3054199-9.0072632,28.4954224-10.4559326,6.4054565-.9105835,12.9352417-.9134521,19.3883057-1.5394287,3.4506226-.3347168,5.151001.8574219,5.2144165,4.3735352ZM270.6303252,141.1842651c-6.4174805.480957-12.4017334.1764526-17.9963379,1.5067749-11.3731079,2.7044678-22.5488892,6.2471313-33.7789307,9.5367432-4.8086548,1.4085693-5.4910278.8151245-4.5999146-4.1412964.8476562-4.7144775,2.9666138-8.0050049,7.6809692-10.0848999,14.0200806-6.1854248,27.8460083-12.8096924,42.5536499-19.6364746,2.1608276,8.0298462,4.1455078,15.4052124,6.140564,22.8191528ZM260.6949614,108.5379028c.2540894.8346558-.8857422,2.6418457-1.8584595,3.2174683-14.6351318,8.6607666-30.1746826,15.3206177-46.3688354,20.4716797-1.2866211.4092407-2.6912231.4481812-3.3269653.5476074-4.6661987-.0651855-5.8671875-2.1031494-3.9137573-6.0383301,3.5256958-7.1027222,8.7305908-12.6898804,15.8135986-16.414917,11.1495972-5.8637085,23.2108154-7.1310425,35.5500488-7.0592041,3.6571045.0213013,3.4543457,3.1403809,4.1043701,5.2756958ZM246.2406157,76.3937378c2.9107666,5.8751831,5.9390869,11.6922607,9.0158081,17.7177124-7.9500732.8222656-15.3302002,1.1271973-22.5187988,2.4616089-6.8169556,1.2653809-13.4233398,3.6463623-20.1462402,5.4474487-1.3375244.3583374-2.7835083.3123779-4.1795044.4528809.3267822-1.3587036.2771606-2.9916992,1.0383301-4.0339355,8.2531128-11.3013306,18.8902588-19.3956909,32.3127441-23.7593994,2.2461548-.7302856,3.4474487-.3656616,4.4776611,1.7136841ZM133.9878691,11.09021v20.0775757c-4.708313-5.5450439-8.8567505-10.430603-13.5950928-16.0109863,4.8552246-1.4523315,9.0950928-2.72052,13.5950928-4.0665894ZM86.4624175,38.0604858c4.1330566,3.678772,8.642334,7.3605957,12.7681274,11.4301758,10.3023071,10.1618652,20.62323,20.3179932,30.565918,30.826416,7.5921021,8.0240479,12.28479,17.4840088,11.6122437,28.9873047-.2108154,3.6051636.1051025,7.2450562-.185791,10.8394775-.1167603,1.4419556-.9012451,3.5435791-1.9603882,3.9971924-1.0819092.4633789-3.2202148-.3253174-4.2993164-1.2561035-8.3272095-7.1829224-14.7734985-15.8934326-19.484314-25.7727051-2.1289673-4.4645996-3.8892822-9.2357788-4.9365845-14.0585938-2.8535156-13.1395874-10.8684082-22.7596436-20.4658203-31.3994141-3.0311279-2.7286987-6.2824097-5.2132568-9.7628784-8.0814819,2.0348511-1.8242188,3.8646851-3.4646606,6.1488037-5.5122681ZM73.3550566,51.5632935c9.2632446,5.444519,17.15979,12.0042725,23.5604858,20.2000732,1.020874,1.307251.3857422,3.9049072.5161743,5.9059448-1.7793579-.0917358-3.8526001.3718872-5.281311-.3824463-3.8362427-2.0256348-7.3825684-4.5947876-11.0704956-6.9060669-4.8342896-3.0298462-9.6939087-6.0194092-14.9356079-9.2699585,2.5735474-3.4075317,4.8045654-6.3615723,7.2107544-9.5475464ZM61.6081084,68.093689c7.4264526,4.3215942,14.7967529,8.2053223,21.7197266,12.7664185,5.6051636,3.6928711,10.7119141,8.1512451,15.9672852,12.3603516,5.8192749,4.6608276,9.9179688,10.7228394,14.1144409,16.8153687,5.793335,8.4109497,12.3209229,16.3144531,18.4180298,24.5213623,1.7662354,2.3773804,3.6854858,4.8876343,4.4968872,7.6419678.5612183,1.9050293-.6582031,4.3334961-1.0819702,6.5280762-1.9005127-.3833618-4.3794556-.1328735-5.6084595-1.2519531-8.5625-7.7966919-18.034668-14.9831543-24.9963379-24.0626831-12.5043335-16.3084717-27.0455322-30.298645-42.7876587-43.2526245-1.348938-1.1100464-2.7310791-2.1798096-4.0836792-3.2855835-.1831665-.1497192-.2833252-.4008179-.7727051-1.1218872,1.3825073-2.2946777,2.7759399-4.6074219,4.6144409-7.6588135ZM135.4491118,198.6273804c.0501099,3.0772705-1.0007324,5.7658691-3.7596436,6.6610718-1.7477417.5671387-4.3787231-.1152344-6.0723877-1.1344604-4.3604126-2.6241455-8.6644287-5.4597778-12.5362549-8.7454834-4.6867065-3.9771729-6.7401123-9.0599365-6.3191528-15.5888062.3615112-5.6072998-.2698364-11.4910889-1.6995239-16.9279785-.9874878-3.7553711-3.8046875-7.175415-6.3005981-10.3568115-3.836731-4.8905029-8.2062378-9.3614502-12.1148682-14.199707-1.1242676-1.3917236-1.44104-3.4342651-2.1280518-5.1784058.2711182-.2950439.5421753-.5901489.8132935-.8851929,1.9755859.4902344,4.03302.7711182,5.9135132,1.5046387,12.1819458,4.75177,23.4217529,11.1239014,33.2684937,19.7957764,7.2508545,6.3856812,11.9274292,13.7874756,11.0154419,24.1142578-.6119995,6.9300537-.1940308,13.9589844-.0802612,20.9411011ZM53.5645903,81.6542969c8.8347168,7.385437,16.90802,14.1343384,24.9813843,20.8832397-.1798706.3024292-.3596802.6047974-.5394897.9072266-10.7959595-.9551392-21.5919189-1.9102173-33.0614624-2.9249268,2.7258301-5.9660645,5.5075684-12.0542603,8.6195679-18.8655396ZM41.5788115,109.793396c.3093262-.7323608,1.6815186-1.4727173,2.5438232-1.4485474,16.1189575.4515381,31.6313477,3.6480713,46.2620239,10.5985718.9867554.46875,1.9094849,1.1896362,2.6786499,1.9729004,1.5427856,1.571167,1.3355713,3.0517578-.8979492,3.5116577-2.0276489.4175415-4.3258667.9022827-6.2215576.3633423-15.1364136-4.3031616-30.5792236-5.6854248-46.2357788-5.3780518-.2321167.0045776-.4669189-.1287231-1.3838501-.3994141,1.0990601-3.2094116,2.0140991-6.2835083,3.2546387-9.220459ZM35.904312,127.4987793c.7279663-1.3323975,2.7244873-1.9733887,3.3766479-2.4086914,7.387207.7749634,13.4672241,1.3991699,19.5422974,2.0681763.7243652.0797729,1.4840698.2880859,2.1224976.6314697,12.7348633,6.8496094,23.2136841,15.9839478,29.0167236,29.5556641,1.241394,2.9031982,1.7592773,6.2086792,2.0460205,9.3797607.1159058,1.2818604-.9708862,3.2416382-2.0900269,3.8816528-.8635864.4938354-2.8850098-.2431641-3.9596558-1.0251465-16.2316284-11.8110352-32.3125-23.8307495-48.6403198-35.5062866-3.008606-2.1513672-2.642334-4.3286743-1.4141846-6.5765991ZM29.9534453,152.4232178c.8477173-3.492981,1.4916382-7.0353394,2.3338623-11.0949707,1.0696411.5297852,1.6602173.7176514,2.1277466,1.0689087,17.2581177,12.9675903,34.5359497,25.9095459,51.7216797,38.9723511,2.7648926,2.1016235,5.5273438,4.4580688,7.5056763,7.2515259,1.3133545,1.8545532,1.2286377,4.6968994,1.7697144,7.0970459-2.4418945.0962524-5.4500732,1.1673584-7.2351074.1328125-12.9348145-7.49646-25.8135376-15.1277466-38.3098145-23.3250122-6.432373-4.2194824-12.0020142-9.739624-18.0516968-14.559082-1.930542-1.5379639-2.4265747-3.2175293-1.8620605-5.5435791ZM26.2592925,179.9359741c.5961304-4.2601929.9967041-8.5476685,1.5461426-13.4237671,4.9334106,3.8791504,9.1964111,7.2954102,13.5269165,10.6239624,12.296814,9.4515381,25.1426392,17.9882812,39.557312,23.9866333,1.5.6242676,2.5306396,2.3739624,3.7790527,3.6014404-.291687.4624023-.5834351.9248657-.8751831,1.3872681-2.1136475-.4181519-4.3787231-.4855347-6.3131714-1.3188477-6.2736206-2.7025146-12.7095947-5.2077637-18.5606079-8.6698608-9.4415894-5.5866699-19.4160767-9.6427002-29.984436-12.3031616-2.3987427-.6038208-2.9928589-1.6195679-2.6760254-3.883667ZM25.4317778,194.2651367c.2150269-.9289551,1.5967407-2.3204346,2.3763428-2.2783203,13.8419189.7474365,26.4232178,4.8320923,36.7749634,14.4797974.3598633.3353882.6696167.7374878.9403076,1.1494141.1203003.1831055.085083.4680786.2510986,1.5891113-2.0878296.2252808-4.3232422,1.0591431-6.2180786.5718994-9.9855957-2.5680542-19.8314209-5.6872559-29.8392334-8.1560669-4.4811401-1.1054688-5.1258545-3.7244263-4.2854004-7.355835ZM25.1811675,211.5239868c.0135498-.8386841.1324463-1.6757202.1500854-1.8864136,9.0317383,1.5810547,17.8862305,4.024231,26.8449097,4.4971313,14.6652832.7741699,29.4038696.5195923,44.100769.2012939,8.281311-.1792603,16.4333496-.491333,24.354187,2.517395,10.9928589,4.1755981,17.4833374,11.9677124,18.1296387,23.7166748.4289551,7.7979126-.0730591,15.6733398-.5809937,23.4866943-.3237305,4.9788818-3.2202148,6.7775269-8.0523682,5.4503174-8.387207-2.3035278-15.1551514-7.5254517-21.736145-12.8496704-3.7318726-3.0192261-7.4412842-6.3918457-10.1326294-10.3099976-9.6294556-14.019104-23.5526733-20.6993408-39.5296631-24.015686-9.3891602-1.9489746-18.8380127-3.6539917-28.3127441-5.1311646-5.2617188-.8203735-5.3184814-.5078125-5.2350464-5.6765747ZM26.1256865,225.506958c7.1050415.9194946,14.0111084,1.5626831,20.8217163,2.7515869,11.1369019,1.9440918,21.8259277,5.3954468,31.1915894,11.8953247,3.8433838,2.6673584,7.3190308,6.0065918,10.4298096,9.5115356,1.1942139,1.3455811,1.8428345,4.5849609,1.0263672,5.8988647-.7971802,1.2827148-3.9736328,2.0009155-5.7633667,1.5650024-3.5599365-.8669434-7.2373657-2.1775513-10.2468262-4.2168579-14.0261841-9.5045776-28.7246704-17.5126953-45.2763062-21.6715698-3.1514282-.7918701-2.3904419-2.8046875-2.1829834-5.7338867ZM28.1945952,251.2508545c-.3102417-4.3122559-.9695435-8.5994263-1.5791016-13.7347412,14.7026978,4.2745972,27.7315674,9.8844604,39.5739136,19.2205811-1.8157349.4067993-3.6551514,1.2457275-5.4432373,1.1478882-9.3341064-.5106812-18.6551514-1.258606-27.9806519-1.9257812-2.9260254-.2093506-4.352478-1.671814-4.5709229-4.7079468ZM31.2364043,267.953064c-.2255249-1.0650635-.3068237-2.1605225-.4411011-3.1428833.4564819-.258606.6669922-.4813843.8800659-.4838867,22.3225098-.2609253,44.7492676-1.1078491,66.6720581,3.9447021,11.9750977,2.7598877,21.7504272,10.2649536,30.9716797,18.171936,1.0971069.9407959,1.2637939,2.9641113,1.8618164,4.4856567-1.9460449.2216797-4.0857544,1.0820923-5.8066406.5614014-11.1913452-3.3864746-22.1664429-7.5411377-33.4507446-10.5529175-17.5219116-4.6766968-35.4827881-6.7662354-53.6226196-7.1774902-5.8450317-.1325684-5.8579712-.1077271-7.0645142-5.8065186ZM36.2176055,288.3161621c-.6001587-3.1518555-1.6409302-6.2199097-2.7435303-10.2410278,20.1361084,1.9202271,39.7228394,2.7446899,57.6300049,11.6392822l.0472412,1.2350464c-1.3132324.4397583-2.5982056,1.1289062-3.9440918,1.2811279-15.6682129,1.7719727-31.3243408,1.4229736-46.9691772-.3925171-2.2339478-.2592163-3.5587158-1.097168-4.0204468-3.5219116ZM132.8528594,382.104126c-2.071167,6.2282104-4.6307983,12.2943726-7.0420532,18.6326904-13.0556641-4.2061157-24.0800781-10.8445435-34.0325928-19.3126831-22.5396118-19.1777954-37.1678467-43.7321167-47.9753418-70.847168-1.317749-3.3060913-2.4696655-6.6781006-3.7341919-10.1168213,3.342041,0,6.1875.0449829,9.0311279-.0073853,17.475769-.3217773,34.9517212-.6358032,52.4262695-1.015625,7.9150391-.1719971,15.8297119.0476074,23.2284546,3.0639648,3.9732666,1.619812,7.7822266,3.9415283,11.1887207,6.5641479,3.4216919,2.6344604,5.1946411,6.4146729,5.6888428,10.9557495,2.3357544,21.4613037-2.0803833,41.9384766-8.7792358,62.0831299ZM148.8373564,72.9109497c-1.0244141,5.1987305-5.6027832,6.9908447-9.7958984,3.6908569-1.4597778-1.1488647-2.6853638-2.5960083-4.0090942-3.9157715-12.7975464-12.7596436-25.5847778-25.5296631-38.4078979-38.2636108-.8760986-.8699951-2.017334-1.4736938-3.0352173-2.2011719.0603027-.5131226.1206055-1.0261841.1809082-1.5392456,5.3028564-3.4203491,10.539917-6.9532471,15.984314-10.1317139.758728-.4429321,2.9401245.4909668,3.7822266,1.4098511,7.5767822,8.2683105,14.9970093,16.6797485,22.4730835,25.0402832,2.7387085,3.0626831,5.6811523,5.9626465,8.2156372,9.184082,3.8358765,4.8754883,5.8648071,10.3685303,4.6119385,16.7264404ZM146.4052275,44.5383301c-.8717041-2.2967529-1.5228271-4.8193359-1.5805054-7.2561035-.1975098-8.3469238-.1696167-16.7029419.0140381-25.0501099.0214233-.9738159,1.4945068-2.6885986,2.3883667-2.7525635,10.7068481-.7662354,21.0760498,1.015686,32.4807739,4.8468628-4.8521729,6.6470337-9.0839233,12.7686157-13.6654053,18.6168823-3.6079712,4.6055908-7.5336304,8.9797974-11.5292969,13.2601318-3.3984985,3.640564-6.3276367,3.0256348-8.1079712-1.6651001ZM162.3787993,79.2207642c-.2776489-3.8424683.3313599-7.774292-.1761475-11.5700073-1.5847168-11.8532104,3.2290649-21.1624756,11.2340698-29.1791382,5.6281128-5.6364136,11.6087646-10.9203491,17.3751831-16.4210815,1.4901733-1.4214478,2.7730103-1.6790161,4.559021-.4384766,3.6623535,2.5437622,7.4539795,4.9018555,10.3955688,6.8174438-3.102356,7.3859863-6.1221924,13.8861694-8.5820312,20.5913696-3.8103638,10.3864746-10.6748657,18.4729614-18.6153564,25.8011475-2.9239502,2.6985474-6.0551758,5.194519-9.2446899,7.5789185-3.906189,2.920166-6.5914917,1.7200317-6.9456177-3.1801758ZM166.4660185,140.486145c-.6802368-5.9013062-.4740601-11.9133911-.5059814-17.878479-.0495605-9.2485962,3.4628296-17.2907715,8.9533691-24.4927368,3.7752075-4.9518433,7.5516968-9.9901123,11.9560547-14.3574219,8.5562744-8.484375,14.2765503-18.5110474,17.8708496-29.8585205,2.0728149-6.5438232,5.682373-12.0900879,10.4631348-17.3847656,9.5042725,8.5740356,17.213501,18.2496338,24.328064,28.9277344-1.3011475.5437012-2.2745361,1.0011597-3.2821045,1.3638916-25.7251587,9.2617798-41.2784424,27.0725708-45.6813965,54.2407227-1.505188,9.2876587-7.8901367,14.9295044-14.9359741,20.0847168-.9023438.6602173-1.9311523,1.1450195-2.8659668,1.7644043-3.9563599,2.621521-5.7672119,2.2130127-6.3000488-2.4095459ZM172.8960723,174.769165c-1.3799438-7.3204956,1.8892822-12.4459839,7.6622314-16.3450928,5.2522583-3.5475464,10.4839478-7.1511841,15.9446411-10.3562622,3.7614136-2.2076416,6.1800537-.602417,6.4836426,3.7911377.7543945,10.9176025-3.43396,20.0476685-10.8251343,27.6571045-4.3068237,4.434082-9.3204956,8.1993408-14.1556396,12.0926514-1.0619507.8551025-2.7156372.9769287-4.0968018,1.4364014-.3258667-1.3624878-.8769531-2.7157593-.9329224-4.0892334-.1367798-3.3564453-.0446167-6.722229-.0446167-10.0842896.0001221-1.3696899.2139282-2.7796631-.0354004-4.102417ZM170.4732817,250.2978516c-.3921509-1.2867432-.4991455-2.6988525-.5112915-4.0557861-.0522461-5.8596191.0155029-11.7203369-.031189-17.5800781-.0426636-5.3563843,1.7160034-10.0493164,5.2029419-14.050415,5.4968262-6.3074341,11.9779663-11.0900879,20.1205444-13.6826782,12.8681641-4.097168,25.0919189-9.6296387,36.6333008-16.7545776,11.8703003-7.3279419,24.5199585-12.765686,38.6809692-14.0373535,3.4370728-.3085938,5.4171753.1693115,5.4534912,4.1658325.0324707,3.5761108.5455322,7.1478882.8984375,11.3372192-2.6043701,0-4.8127441-.1257935-7.0026855.0218506-9.3138428.6277466-18.8876953.1885986-27.8754272,2.2626343-16.953064,3.9121704-27.2319946,15.8571777-32.9073486,31.845459-3.5307617,9.9467773-9.1265259,18.2529907-17.8591309,24.2476196-4.619873,3.1714478-9.418457,6.0961304-14.2436523,8.951355-3.159729,1.8696289-5.4816895.8632812-6.55896-2.6710815ZM180.8419341,398.9678345c-.149353-.6739502-.3644409-1.3439941-.4400024-2.02948-2.6634521-24.1522827-5.0741577-48.3361816-8.1129761-72.44104-.9017944-7.1531982.9634399-12.5197144,6.2763062-16.8775635,9.1959229-7.5428467,19.7126465-12.2908936,31.6044922-13.2548218,17.6852417-1.4334717,35.0744019,1.0679932,52.5691528,4.6188354-5.7613525,36.883606-52.2792969,93.5986938-81.8969727,99.9840698ZM267.4107207,284.861145c-.2034302.767334-1.690918,1.692688-2.5914307,1.7019653-10.5949097.1088867-21.1915894.0837402-31.7873535.0167847-1.5168457-.0095825-3.0311279-.4262695-4.5465698-.654541-.1211548-.3701172-.2422485-.7402344-.3634033-1.1103516,1.5422974-1.0855103,3.0198975-2.2799683,4.6378784-3.2379761,7.9082642-4.6827393,15.887085-9.2471313,23.774231-13.9645996,4.8753662-2.9160767,10.0042725-4.7457275,16.3439941-4.9411011-1.8743286,7.7475586-3.5604858,14.9979248-5.4673462,22.1898193ZM272.5339507,252.4330444c-10.5296021,1.8699341-19.6585083,6.6193848-28.3383789,12.8487549-18.9920654,13.6303711-40.0791626,22.7133179-63.0848389,27.2102661-2.6890869.5256348-5.4857178,1.510498-7.4541626-1.4664307-1.8036499-2.7277832-1.3869629-7.8691406.8945312-10.494873,7.3606567-8.4710693,16.1015015-15.3063354,25.7375488-20.9522095,16.0921631-9.4285278,32.7940674-17.1030884,52.1466064-16.9125366,6.6895142.7642822,13.390564,1.4464111,20.0552979,2.3857422.9465942.1333618,2.5521851,1.7227783,2.4136963,2.2836304-.4381714,1.7739258.9522705,4.5075684-2.3703003,5.0976562ZM277.4029692,221.6773682c-.4297485,4.06604-.5960693,8.15979-.8718872,12.2164917-11.7736206,0-22.9457397.0296021-34.1171265-.0512085-.9874878-.0071411-2.4855957-.494812-2.8115234-1.1941528-.3352661-.7192993.2145386-2.1754761.8272705-2.9569702,3.6326294-4.6324463,8.310791-8.2468262,13.9908447-9.3972778,6.5048828-1.3175049,13.2529907-1.468689,19.9046631-2.0146484,2.291748-.1881104,3.3411255.9056396,3.0777588,3.3977661ZM277.5142974,209.9887695c-7.6762085.8347168-14.8892822,1.2282104-21.9462891,2.491272-7.769165,1.3905029-14.1871948,5.4990845-20.0504761,10.9140015-6.0212402,5.560791-12.7293091,10.3973999-19.3001099,15.3339844-1.6209717,1.2177734-3.8189697,1.8934937-5.8540649,2.2775879-2.2946777.4331665-3.5610962-.9805908-2.3441772-3.1130981,5.1112061-8.9570923,9.9125366-18.1528931,15.7876587-26.5945435,5.4912109-7.8900146,13.1077271-13.7384033,22.7678223-16.0286865,9.6064453-2.2775879,19.3482666-1.5010986,29.0372925-.4172974.7052612.0789185,1.7874146,1.3780518,1.8172607,2.144043.1738281,4.4510498.085083,8.9122925.085083,12.9927368Z"/><path class="cls-1" d="M900.4768218,202.7495117c14.9532471-2.2064209,25.9827881-9.9949341,31.1581421-24.6287231,3.7295532-10.5457153,3.7023315-21.1126099-1.1114502-31.4660645-3.4319458-7.3815918-9.3969116-12.118042-16.4002075-15.9229736.4179077-.4820557.6922607-.9180298,1.072998-1.2202759,10.5870972-8.4033813,14.9139404-19.3434448,12.2217407-32.522583-2.4313965-11.9021606-9.3620605-20.3695679-20.8651123-25.2035522-8.6608887-3.6397095-17.776001-3.8734741-26.769165-4.2044678-15.0862427-.5552979-30.2079468-.1558228-45.3146362-.1495361-4.5637817.0018921-5.7772827,1.1743164-5.777832,5.6177979-.0054932,41.9014282-.0054932,83.8028564.0003662,125.7042847.0005493,4.4189453,1.2241211,5.5874634,5.8060303,5.5894775,14.357605.0061035,28.7179565.1658936,43.0718384-.0639648,7.6467896-.1224976,15.3579712-.4154663,22.9072876-1.5294189ZM852.0092314,89.7346191c11.5842896,0,22.9903564-.1818237,34.3844604.1043091,3.6975708.0928955,7.5593262.9178467,11.0021362,2.2767944,6.0540161,2.3894653,8.6306763,10.2073975,7.6873779,16.8856201-.8615723,6.1002808-6.2573853,11.9589233-12.5930786,12.1817017-13.3885498.4708252-26.8051147.1433716-40.480896.1433716v-31.5917969ZM852.0862578,182.7269897v-39.7283325c14.8673096.7450562,29.5003662.9248047,43.9979858,2.4174194,8.3777466.8624878,14.329895,7.5651245,14.9931641,15.6776123.9627075,11.7734985-5.0884399,18.3031006-14.4682617,20.8004761-2.3392944.6228027-4.8566284.7824097-7.2943115.7975464-12.3242798.0765991-24.649231.0352783-37.2285767.0352783Z"/><path class="cls-1" d="M842.834915,358.9247437c-5.6798706-2.822998-11.1316528-6.1038208-16.6766357-9.1923828,3.1264648-4.7172241,6.1228027-8.4986572,8.3293457-12.694519,9.8826904-18.7924194,11.2796631-38.7650757,6.7030029-59.1034546-4.3310547-19.2468262-14.8269653-34.4076538-32.9754639-43.1869507-14.0690308-6.8058472-28.9545898-7.9892578-44.2984009-4.9200439-22.7340698,4.5475464-37.5888062,18.0349121-45.3876343,39.5154419-4.4557495,12.2722778-6.0268555,24.866272-4.6801147,38.0251465,1.2352905,12.0702515,4.3774414,23.2941284,10.7698975,33.5484009,6.7523804,10.831543,16.2063599,18.5023193,27.9495239,23.5640869,10.0396729,4.3275146,20.5425415,5.317627,31.1855469,4.4440308,5.9039307-.4845581,12.010437-1.5376587,17.4569092-3.7387085,6.0143433-2.430603,11.1765137-4.2393188,16.0551758,1.5721436.3753662.4472046.9775391.7280273,1.5126953,1.0145264,6.8115845,3.6467285,13.6303101,7.2803345,20.6480713,11.024353,2.2960205-5.1413574,4.2842407-9.1981201,5.9172974-13.3928223,1.0450439-2.6845703.630188-4.9189453-2.5092163-6.479248ZM808.0594634,335.9714355c-7.2713013-5.0823975-15.2125244-8.8204346-23.8499146-11.1685791-2.2349854-.607666-2.9891357-.5480957-3.6323242,1.8165894-.9245605,3.3988037-2.4448242,6.6315308-3.5950928,9.9748535-1.1679688,3.3945923.0854492,5.7678833,3.4888306,6.9362183,2.5144653.8631592,5.0244141,1.7393188,7.536377,2.6096802-.00177.3552856-.003479.7105713-.005249,1.0657959-3.8299561.3268433-7.6745605,1.0410767-11.4869995.8985596-7.5819702-.2834473-14.6234131-2.5643921-21.0627441-6.7157593-10.7435913-6.9262085-16.2444458-17.2460938-18.1378174-29.3672485-1.9109497-12.2335205-1.5510864-24.4217529,2.678894-36.4277954,5.1775513-14.6956787,19.5700684-24.7906494,34.44104-25.7010498,10.2977295-.6304932,19.5732422,1.2224121,28.0267334,7.2096558,9.0178223,6.387207,13.928833,15.4049683,16.3762207,25.8151855,1.0862427,4.6210938,1.4104004,9.4840088,1.5494385,14.2526245.4701538,16.1219482-2.8076782,28.246582-12.3273926,38.8012695Z"/><path class="cls-1" d="M683.9384917,332.4246826c-6.1573486-9.777832-12.2576294-19.5886841-22.1104736-26.6893311,10.8189697-2.8076172,20.0848389-7.5372925,25.9512939-17.652771,5.0847778-8.7678223,6.3018188-18.0286865,4.2270508-27.6750488-2.1550903-10.0198364-6.9240112-18.5507812-16.1242676-23.9672852-6.7335815-3.9642944-14.2922974-5.5258789-21.8312988-5.6571655-22.2185669-.3869019-44.4483032-.1479492-66.673645-.1280518-2.99646.0026855-4.5362549,1.5964966-4.536438,4.6035156-.0031128,42.2797852.0005493,84.5595703-.0075684,126.8393555-.0006104,3.2506104,1.6187744,4.7421265,4.8223877,4.7192383,4.1201782-.0293579,8.2408447-.0020142,12.3612671-.0078125,4.8381348-.0067749,5.9589233-1.0914307,5.9606323-5.8125.0059814-16.0888062.0021973-32.1775513.0022583-48.2662964,0-1.3305054.000061-2.6610107.000061-4.3141479,6.387085,0,12.3553467-.1452637,18.3139038.03302,9.697876.2901001,17.5499268,4.1866455,22.9434814,12.4568481,9.5505371,14.6443481,19.046875,29.3240967,28.6757812,43.916687.6427002.973999,2.1947632,1.8651733,3.3505859,1.8994751,6.2375488.1853638,12.4862671.1856689,18.7243652.010498,1.3428345-.0377808,3.3526611-.734436,3.8131104-1.7114868.598877-1.2710571.5057373-3.4608765-.2382812-4.675415-5.7484741-9.3841553-11.7590942-18.607605-17.6242065-27.9213257ZM644.9732817,287.3636475c-12.8053589.5445557-25.6499634.1703491-38.8674316.1703491v-35.7909546c1.178772-.081543,2.2538452-.2191772,3.3291016-.2206421,11.4747314-.015625,22.9619141-.3309326,34.4193115.1135254,6.6305542.2571411,13.4080811.5458374,19.3144531,4.7456665,9.9040527,7.0425415,8.2764893,20.8909302-1.2741699,26.8259277-5.2570801,3.2669678-11.1965332,3.9126587-16.9212646,4.1561279Z"/><path class="cls-1" d="M347.6139678,204.3388062c31.3502197.0093384,62.7004395.0054932,94.0506592.0054932,3.253479.000061,4.6945801-1.7055664,4.6685791-4.8696899-.0296021-3.6177979-.0010986-7.2359619-.0076294-10.8539429-.008728-4.8074341-1.0831909-5.8907471-5.8848267-5.8916626-23.3565063-.0043945-46.7130127-.0020142-70.0695801-.0020752h-3.9824219v-38.2768555h4.3334961c20.6087036-.000061,41.2174072.0045776,61.8261108-.0040283,4.2237549-.00177,5.5128784-1.2957153,5.5305176-5.4932861.0147095-3.4931641.0119629-6.9865112.0008545-10.4797363-.0142822-4.4629517-1.2067871-5.6373901-5.7620239-5.6386719-20.6087036-.0056152-41.2174072-.0025024-61.8261108-.0025024h-4.1843872v-33.78479h4.2954712c22.3572998,0,44.7145996.0036621,67.0718994-.0032349,4.473877-.0013428,5.6410522-1.2017822,5.6525269-5.7479248.0085449-3.3684692.0083618-6.7369385.000061-10.1054077-.0112915-4.5524292-1.1776123-5.7574463-5.6421509-5.7583618-29.7265015-.0060425-59.4529419-.0065918-89.1794434.0007935-4.2130127.0010376-5.5150757,1.3013916-5.5175781,5.5050659-.0099487,16.7176514-.0042114,33.4353638-.0042114,50.1530151,0,25.3260498.0187378,50.6521606-.022644,75.9780884-.0053711,3.2610474,1.1486206,5.2687378,4.652832,5.2697144Z"/><path class="cls-1" d="M806.8497466,199.7751465c.027832-3.7425537.0136719-7.4854736.0059814-11.2282104-.0097046-4.7281494-1.1203003-5.8175049-5.958313-5.8182373-23.3565063-.0037231-46.7131348-.001709-70.0696411-.00177h-3.8825073v-38.2768555h4.3811646c20.4838257-.000061,40.9675293.0028687,61.451355-.0022583,4.7416382-.0011597,5.8250732-1.114502,5.8335571-5.9429321.0056763-3.2437134.0056763-6.4874878-.000061-9.7312012-.0085449-4.8267822-1.0915527-5.9384155-5.836792-5.9395752-20.6087036-.0050659-41.2173462-.0022583-61.8260498-.0022583h-4.1367798v-33.78479h4.3949585c22.4821777-.000061,44.9643555.0067139,67.4465332-.006958,3.7260742-.0022583,5.1705933-1.4262695,5.1986084-5.0690918.0308228-3.9920044.0286255-7.9846191-.0007935-11.9766846-.0221558-2.9993286-1.5778809-4.5584106-4.5848389-4.5592651-30.3509521-.0085449-60.7019043-.0025635-91.0529175-.0092773-3.2580566-.0007324-4.7067871,1.6499023-4.7059326,4.8369141.0113525,42.4179688.0114136,84.8358765,0,127.2537842-.0008545,3.1906128,1.453125,4.8330078,4.7111206,4.8322754,31.3501587-.0074463,62.7003174-.0009766,94.0504761-.0102539,3.0061035-.0008545,4.5586548-1.5632935,4.5808716-4.5633545Z"/><path class="cls-1" d="M1101.4555815,345.942749c-23.3566284-.0036011-46.7131348-.0016479-70.0697632-.0016479h-3.8703613v-39.0255737h4.3868408c20.4837036,0,40.9675293.0029297,61.4512329-.0022583,4.732666-.0012207,5.8161011-1.1185303,5.8247681-5.9517212.0053101-2.9942017.0056152-5.9884033,0-8.982605-.0091553-4.8226318-1.0906982-5.9296265-5.8458252-5.9307251-20.6087036-.0050049-41.2172852-.0021973-61.8259888-.0021973-1.3285522-.000061-2.6570435,0-4.1309814,0v-34.5334473h4.4069214c22.3572998-.000061,44.7145386.0040283,67.0718384-.0037842,4.2622681-.0014648,5.5496216-1.2739868,5.5684814-5.4552612.0158081-3.4931641-.0245972-6.9866943.0108032-10.4796143.0344238-3.385376-1.5967407-4.9456787-4.9840088-4.9432373-30.1011963.0219727-60.2022095.024231-90.3033447-.003479-3.3525391-.0030518-5.074707,1.4096069-5.0735474,4.8583984.0140381,42.168396.0130005,84.336731.0016479,126.505127-.0009155,3.196106,1.4625854,4.8251343,4.7197876,4.8242188,31.3501587-.008606,62.7002563-.0010376,94.050415-.0119019,3.0043335-.0010376,4.5525513-1.5691528,4.5732422-4.571106.0241089-3.493042.0125732-6.9864502.0049438-10.4796143-.010376-4.7192993-1.1242676-5.8087769-5.9671021-5.8095703Z"/><path class="cls-1" d="M969.6906279,230.6287842c-3.9951782.0615845-7.9921265.0109253-11.9882812.0151978-5.0318604.005249-6.0874634,1.0513306-6.0880127,6.0623779-.0027466,25.4464111.0742798,50.8933105-.0701294,76.3388672-.0262451,4.6384277-.7102661,9.3136597-1.5101318,13.8988037-1.7131958,9.8193359-7.1660767,16.5509033-17.1260376,18.9016724-7.1173096,1.6798706-14.4026489,2.4934692-21.6069336.75177-8.4743652-2.0488281-15.7084961-6.2057495-18.5582275-15.0136719-1.5255737-4.7146606-2.4407349-9.8076782-2.5683594-14.7573242-.3441772-13.3380127-.1176758-26.6907349-.1179199-40.0376587-.0003052-13.7210693-.0200195-27.4422607.0137939-41.163269.0083618-3.3800049-1.5452881-5.0167847-4.9372559-4.9898071-4.1207275.0327759-8.2420654.0014648-12.3630981.0089111-4.7643433.0085449-5.8526611,1.1038818-5.8535156,5.9210815-.0040283,24.3237915-.2645264,48.6519165.1358032,72.9690552.1467896,8.9172363,1.2352295,17.9359741,3.0111694,26.6820679,2.6729126,13.1629639,10.5738525,22.9507446,22.9731445,28.1817017,14.7734985,6.2325439,30.3665161,6.2089233,45.7945557,3.031189,11.4076538-2.3496094,20.7471924-8.3353271,27.3384399-18.4359131,6.6990967-10.2658691,8.144165-21.887085,8.3982544-33.4317017.5869751-26.6809082.1789551-53.3834839.1959229-80.0772705.0021973-3.4483643-1.720459-4.9077148-5.0731812-4.8560791Z"/><path class="cls-1" d="M446.9880522,262.3118896c-1.8433228-9.7572021-6.5055542-18.1113892-14.6211548-24.0178833-7.8110962-5.6848755-17.1674805-7.3184814-26.4796143-7.5233765-19.2158813-.4227295-38.4475708-.1349487-57.6727295-.1208496-3.7567749.0027466-5.2208252,1.401062-5.2219849,5.0402222-.0132446,42.0227661-.0131836,84.0454712-.000061,126.0682373.0010986,3.6392212,1.4665527,5.0230103,5.2166748,5.0467529,3.869812.0244751,7.7399292.0076904,11.6099243.0050659,5.3909302-.0036621,6.3047485-.9009399,6.3056641-6.2162476.0027466-15.453186.0009766-30.9063721.0009766-46.9400635,3.1583862,0,5.8815308.0922852,8.5966797-.015564,13.7536011-.5463867,27.6011353,1.4300537,41.265564-1.4857788,11.6296387-2.4816895,20.9300537-8.1593628,26.5009155-19.0956421,4.9744263-9.7654419,6.5195923-20.0496826,4.4991455-30.744873ZM418.4587554,287.0691528c-3.1140747,2.5720825-7.6542969,4.5626221-11.6380615,4.7349243-13.3731689.5784302-26.7870483.2197876-40.4420166.2197876v-39.7765503c12.3016357,0,24.3321533-.0258179,36.3624268.0204468,2.5869751.0099487,5.21698.0306396,7.7509155.4775391,7.2208252,1.2735596,11.4437866,6.18396,13.3222046,12.7662964,2.2848511,8.0064087,1.4243164,15.9577637-5.3554688,21.5575562Z"/><path class="cls-1" d="M549.8310088,317.5401611c-11.3581543-28.3269653-22.6049194-56.6986084-33.9936523-85.0132446-.3405151-.8466187-1.7385254-1.777771-2.6638184-1.7993164-6.6151123-.1538086-13.2372437-.1525269-19.852417.0013428-.9069214.0211182-2.2803955.9677734-2.6068726,1.8080444-4.8620605,12.5132446-9.581665,25.081604-14.3394775,37.6351929-5.5796509,14.7215576-11.1737061,29.437561-16.7432861,44.1629028-5.9141846,15.6369019-11.8322144,31.2724609-17.6885376,46.9310303-1.1994019,3.2071533.4553833,5.4911499,3.8937378,5.5287476,5.2444458.057373,10.4937134-.1008301,15.7332764.0689697,2.2928467.0742798,3.1549072-.7545166,3.8666382-2.8924561,4.0823364-12.2635498,8.3636475-24.4610596,12.6324463-36.8405151,16.6069336,0,32.7141113.0380859,48.8206787-.0452881,2.1624146-.0111694,2.8781128.9076538,3.5454102,2.78479,4.1290283,11.6152954,8.3690186,23.1921387,12.7145386,34.7282104.3545532.94104,1.7543335,2.0822144,2.7002563,2.1117554,6.1132812.1906128,12.2363281.1602783,18.3543091.0726318,3.1610718-.0452271,4.6702271-2.5822754,3.4786987-5.49646-5.9605713-14.578064-11.9906616-29.128479-17.8519287-43.7463379ZM485.2802275,307.5657959c6.1092529-16.289978,12.1207886-32.3192749,18.2025757-48.5360107,6.1608887,16.2076416,12.2679443,32.2737427,18.4495239,48.5360107h-36.6520996Z"/><path class="cls-1" d="M591.4993437,204.3521729c4.2458496-.03125,8.4921875.0048828,12.7382202-.0106201,4.1949463-.0152588,5.4835815-1.3058472,5.4859619-5.5360718.0093994-16.7153931.0038452-33.4307861.0039062-50.1461792v-4.2092285h4.5652466c16.9842529-.000061,33.9685059.008728,50.9527588-.0072021,3.7102661-.003479,5.1577148-1.4382935,5.1881104-5.0786743.0301514-3.6172485.0149536-7.2349854.0047607-10.852417-.0128174-4.4979248-1.190979-5.675354-5.7220459-5.6771851-16.859375-.0067139-33.718689-.0026855-50.578064-.0027466h-4.2070312v-33.78479h4.2221069c20.2312622-.000061,40.4625244.0064697,60.6937256-.0057373,4.0273438-.0023804,5.3103638-1.2982178,5.3328247-5.3119507.0209351-3.7421265.0284424-7.4846802-.0024414-11.2266846-.0301514-3.6419067-1.4725952-5.0652466-5.1998901-5.0668945-27.7243042-.0123291-55.4485474-.0122681-83.1728516-.0001221-3.7424316.0015869-5.2095947,1.4133301-5.2106934,5.0548096-.0128174,42.2874756-.0009155,84.5748901-.0220337,126.8623657-.0016479,3.3773193,1.5315552,5.024353,4.9274292,4.9993286Z"/><path class="cls-1" d="M474.71846,204.3594971c4.1203003-.0613403,8.2421875-.0067749,12.3633423-.0164795,4.5269165-.0106812,5.7119141-1.180481,5.7138672-5.6850586.0073242-16.7153931.0029907-33.4307861.0030518-50.1461792v-4.0617065h4.7128906c16.734436-.000061,33.4688721.003479,50.2033691-.0023804,4.5747681-.0015869,5.7789307-1.171936,5.7942505-5.6051025.012085-3.4927368.0133057-6.9855957-.0004883-10.4782715-.0166626-4.2235107-1.2957764-5.5256348-5.4942627-5.5281372-16.9841919-.0101318-33.9684448-.0042725-50.9526978-.0043335h-4.1177979v-33.78479h4.4284668c20.2312622-.000061,40.4624634.0075684,60.6936646-.0071411,3.7039795-.0027466,5.1550903-1.4430542,5.1824341-5.0841064.0300293-3.9914551.0327148-7.9836426-.0023804-11.9750366-.0264282-2.9962158-1.5869751-4.5464478-4.5961304-4.5471802-28.098877-.0064087-56.1978149-.0010376-84.2966919-.0076294-3.2573853-.0007935-4.7045288,1.6525879-4.7036743,4.8380127.0113525,42.4121094.0124512,84.8242798-.0014038,127.2363892-.0011597,3.4456787,1.7156982,4.9091187,5.0701904,4.8591309Z"/><path class="cls-1" d="M1229.5978545,236.3384399c-.0129395-4.5120239-1.1841431-5.690918-5.7052002-5.6925049-18.6049805-.0067139-37.210083-.0028687-55.8150635-.0028687-14.3595581,0-28.7191772-.0068359-43.0787354.0043945-4.1935425.0032349-5.4678345,1.3049927-5.4852295,5.5357666-.0132446,3.2427368-.0122681,6.4856567-.0003052,9.7283936.0164185,4.4273071,1.2219849,5.5957031,5.7993774,5.5986328,11.1130371.006958,22.2260742.0023193,33.3391113.0023193h4.3325195v4.8147583c.000061,34.9225464-.0021362,69.8450928.0026245,104.7677002.0006714,4.5240479,1.1813965,5.7012939,5.6844482,5.7133789,3.8708496.010376,7.7416382.0081787,11.6125488.0006714,4.7495728-.0092773,5.840332-1.111084,5.8407593-5.9329834.0032349-34.7978516.0016479-69.5956421.00177-104.3934937v-4.9700317h4.5515747c11.2379761-.000061,22.4758911.012085,33.7138062-.0071411,3.7285156-.0064087,5.1680298-1.4234009,5.2012939-5.0645142.0306396-3.3671875.0144043-6.7349854.0046997-10.102478Z"/><path class="cls-1" d="M975.7642363,67.4308472c-3.8688965-.0091553-7.7377319-.0084839-11.6065674-.0002441-4.7037354.0100708-5.7962036,1.1312256-5.7969971,5.9713745-.0037842,20.6933594-.0016479,41.3867798-.0016479,62.0802002,0,21.0673828-.0037842,42.1347656.0031128,63.2021484.0014648,4.4783936,1.1984863,5.6480713,5.7337646,5.6588745,3.8688354.0091553,7.7376099.0084839,11.6064453.0002441,4.7037964-.0100708,5.7956543-1.1312256,5.7969971-5.9713135.0043945-15.0838013.001709-30.1675415.001709-45.2512817.0001221-26.677063.0029297-53.3540649-.0030518-80.0311279-.0010986-4.4784546-1.1985474-5.6481323-5.7337646-5.6588745Z"/></svg>