<?xml version="1.0" encoding="UTF-8"?><svg id="Livello_1" xmlns="http://www.w3.org/2000/svg" viewBox="0 0 40.8093872 17.3322144"><defs><style>.cls-1{stroke-width:0px;}</style></defs><polygon class="cls-1" points="39.6654663 10.7993774 39.666626 10.7991943 39.6655884 10.7991943 39.6654663 10.7993774"/><path class="cls-1" d="M34.8425903,10.2492065l-1.9589844-.6640015c-1.0380249-.3510132-2.5800171-.6400146-3.4280396-.6400146-.8469849,0-2.3880005.289978-3.4209595.6400146l-1.9589844.6640015c-1.3060303.4429932-2.5550537.6969604-3.4260254.6969604-.8720093,0-2.1209717-.2539673-3.427002-.6969604l-1.960022-.6640015c-1.0339966-.3500366-2.5809937-.6400146-3.4219971-.6400146-.8460083,0-2.3909912.2890015-3.4259644.6400146l-1.9589844.6640015c-1.3070068.4429932-2.5540161.6969604-3.4260254.6969604-.3629761,0-.7340088-.0390015-1.3980103-.1469727l.0809937.1359863c.1890259.3140259.2880249.4500122.5419922.742981.3439941.0469971.4810181.0570068.7560425.0570068.8739624,0,2.3029785-.2730103,3.4450073-.657959l1.9589844-.6620483c1.3289795-.447998,2.5479736-.6959839,3.4249878-.6959839.7409668,0,2.0369873.2380371,2.9359741.5390015l2.4460449.8190308c1.1549683.3869629,2.5709839.6589966,3.4279785.6589966s2.2719727-.2730103,3.4249878-.6589966l2.4470215-.8190308c.8989868-.3009644,2.1950073-.5390015,2.9359741-.5390015.8790283,0,2.0950317.2479858,3.4249878.6959839l1.9590454.6620483c1.1419678.3849487,2.5700073.657959,3.4429932.657959.2739868,0,.4129639-.0100098.7609863-.0570068.2730103-.3249512.3560181-.4379883.5380249-.742981l.0818481-.1358032c-.6622314.1077881-1.0331421.1467896-1.3968506.1467896-.8720093,0-2.1190186-.2539673-3.4260254-.6969604Z"/><path class="cls-1" d="M31.4302979,11.996582c-.7230225-.1599731-1.4489746-.2520142-1.973999-.2520142-.8270264,0-2.4050293.2940063-3.4219971.6390381l-1.960022.6640015c-1.3250122.4489746-2.5459595.6969604-3.4359741.6969604s-2.1030273-.2449951-3.4360352-.6969604l-1.9589844-.6640015c-1.0139771-.3439941-2.5980225-.6390381-3.4259644-.6390381-.5220337,0-1.2540283.0939941-1.9720459.2520142-.6759644.1500244-1.2119751.2980347-2.4619751.6829834l-2.848999.8760376c.3040161.2769775.3850098.3410034.7260132.5719604l1.5839844-.4819946,1.3079834-.3859863.5250244-.1560059c1.3919678-.4099731,2.3359985-.5869751,3.1409912-.5869751.7310181,0,2.0529785.242981,2.934021.5379639l2.4499512.8220215c1.1459961.3850098,2.5670166.6560059,3.4360352.6560059.8689575,0,2.2990112-.2739868,3.4359741-.6560059l2.4470215-.8220215c.8779907-.2949829,2.2080078-.5390015,2.9370117-.5379639.8070068,0,1.742981.1749878,3.1380005.5869751l.526001.1560059,1.3079834.3859863,1.5859985.4819946c.3400269-.2329712.4210205-.2959595.7269897-.5719604h.0010376l-2.8520508-.8760376c-1.282959-.3939819-1.7779541-.5319824-2.4619751-.6829834Z"/><path class="cls-1" d="M33.3737183,15.3461914l-.4899902-.1640015c-1.4210205-.4279785-2.5580444-.6420288-3.4260254-.6420288-.7280273,0-1.9580078.2090454-2.9349976.4980469l-.4869995.1439819c-.2470093.0819702-.4130249.1359863-.492981.1640015l-.4890137.1679688-.4880371.1660156-.4899902.1669922c-1.4869995.4810181-2.5459595.6960449-3.4259644.6960449-.7579956,0-1.882019-.2070312-2.9370117-.5410156l-.4899902-.1550293-.4899902-.1669922-.4869995-.1660156-.4900513-.1679688-.4919434-.1640015c-1.4190063-.4279785-2.559021-.6420288-3.4230347-.6420288-.7319946.0010376-1.9609985.2090454-2.9389648.4980469l-.4869995.1439819c-.3470459.1119995-.4180298.1370239-.6700439.2290039l.9849854.5109863.2210083-.0670166c1.1490479-.3549805,2.1380005-.539978,2.8930054-.539978.6340332,0,1.6260376.1610107,2.4429932.3980103l.4900513.1419678.4869995.15802.4919434.1619873.4900513.1700439.4869995.164978.4899902.1640015c1.4710083.4509888,2.5529785.65802,3.4279785.65802.7510376-.0010376,1.8980103-.2000122,2.9360352-.5120239l.4889526-.1459961.4899902-.1640015.4880371-.164978.4890137-.1700439.492981-.1619873.4869995-.15802c1.25-.3709717,2.1710205-.539978,2.9359741-.5390015.7550049,0,1.7420044.184021,2.8900146.5390015l.2200317.0670166.9849854-.5109863h-.0009766l-.1790161-.0650024Z"/><path class="cls-1" d="M7.4760132,6.7279053v-2.8890381h-1.8959961v2.144043c-.4900513.2049561-.9790039.3079834-1.4660034.3079834-1.2560425,0-2.1390381-.9700317-2.1390381-2.3510132,0-1.4869995,1.0549927-2.5239868,2.5700073-2.5239868.8469849,0,1.6859741.2360229,2.7030029.7600098V.7509155C5.947998.2199097,5.3070068.0678711,4.3469849.0678711,1.6939697.0678711,0,1.5689087,0,3.9179077s1.6439819,3.7210083,4.1149902,3.7210083c1.1019897,0,2.4089966-.3540039,3.3610229-.9110107Z"/><path class="cls-1" d="M10.9158936,1.6275635h.8050537c1.0549927,0,1.5279541.3370361,1.5279541,1.0870361s-.5289917,1.2039795-1.4580078,1.2039795l-.4099731-.0109863h-.210022l2.5930176,3.5239868h2.3870239l-2.3790283-2.8759766c.8840332-.3989868,1.3549805-1.1060181,1.3549805-2.0360107,0-1.5159912-.9819946-2.2410278-3.0299683-2.2410278h-3.0469971l-.0009766-.0009766v7.1530151h1.8669434V1.6275635Z"/><polygon class="cls-1" points="28.284668 4.3725586 31.5826416 4.3725586 31.5826416 7.430603 33.449646 7.430603 33.449646 .2775879 31.5826416 .2775879 31.5826416 2.9215698 28.284668 2.9215698 28.284668 .2775879 26.4187012 .2775879 26.4187012 7.430603 28.284668 7.430603 28.284668 4.3725586"/><polygon class="cls-1" points="37.3053589 6.0296021 37.3053589 4.3295898 39.8823853 4.3295898 39.8823853 2.9815674 37.3053589 2.9815674 37.3053589 1.6785889 40.4013672 1.6785889 40.4013672 .2775879 35.4414062 .2775879 35.4414062 7.430603 40.8093872 7.430603 40.8093872 6.0296021 37.3053589 6.0296021"/><path class="cls-1" d="M20.6883545,7.7089844c2.5380249,0,4.4000244-1.6309814,4.4000244-3.8530273,0-2.2219849-1.8579712-3.855957-4.4000244-3.855957-2.5419922,0-4.3999634,1.6279907-4.3999634,3.855957,0,2.2220459,1.8619995,3.8530273,4.3999634,3.8530273ZM18.2564087,3.855957c0-1.4769897.9989624-2.506958,2.4319458-2.506958,1.4330444,0,2.4330444,1.0310059,2.4330444,2.5079956,0,1.4760132-1.0020142,2.5050049-2.4330444,2.5050049-1.4309692,0-2.4329834-1.03302-2.4319458-2.5050049v-.0010376Z"/></svg>