<?xml version="1.0" encoding="UTF-8"?>
<svg id="Livello_1" data-name="Livello 1" xmlns="http://www.w3.org/2000/svg" viewBox="0 0 449.5 128.76">
  <defs>
    <style>
      .cls-1 {
        fill: #fff;
      }
    </style>
  </defs>
  <g>
    <path class="cls-1" d="M45.58,32.4V.94h5.39v31.46h-5.39Z"/>
    <path class="cls-1" d="M127.27,25.34c-2.88,4.63-9.12,8-17.75,8-12.4,0-19.82-6.29-19.82-16.67S97.12,0,109.43,0c7.73,0,13.03,2.88,16.18,6.25l-4.4,3.15c-2.79-3.15-6.47-4.67-11.73-4.67-8.85,0-14.29,4.04-14.29,11.95s5.53,11.95,14.56,11.95c5.53,0,10.02-1.44,12.31-5.03v-3.59h-13.12v-4.63h18.33v9.98Z"/>
    <path class="cls-1" d="M143.53,32.4V.94h5.39v31.46h-5.39Z"/>
    <path class="cls-1" d="M193.05,24.81h-20.18l-4,7.59h-5.84L180.06.94h5.93l16.99,31.46h-5.89l-4.04-7.59ZM190.67,20.22l-7.68-14.56-7.68,14.56h15.37Z"/>
    <path class="cls-1" d="M245.53,32.4l-9.75-11.41h-13.26v11.41h-5.39V.94h21.39c7.32,0,12.72,3.51,12.72,10.02,0,5.44-3.77,8.76-9.26,9.75l10.2,11.68h-6.65ZM238.16,16.36c4.49,0,7.55-1.44,7.55-5.35s-3.06-5.35-7.55-5.35h-15.68v10.7h15.68Z"/>
    <path class="cls-1" d="M302.91,16.67c0,9.71-7.46,15.73-19.14,15.73h-15.95V.94h15.95c11.68,0,19.14,6.02,19.14,15.73ZM297.38,16.67c0-7.28-5.75-11.01-14.02-11.01h-10.16v22.02h10.16c8.27,0,14.02-3.73,14.02-11.01Z"/>
    <path class="cls-1" d="M319.21,32.4V.94h5.39v31.46h-5.39Z"/>
    <path class="cls-1" d="M377.63.94v31.46h-4.76l-24.58-24.8v24.8h-5.21V.94h5.75l23.55,23.86V.94h5.26Z"/>
    <path class="cls-1" d="M396.09,32.4V.94h5.39v31.46h-5.39Z"/>
    <path class="cls-1" d="M35.1,61.6c0,9.71-7.46,15.73-19.14,15.73H0v-31.46h15.95c11.68,0,19.14,6.02,19.14,15.73ZM29.57,61.6c0-7.28-5.75-11.01-14.02-11.01H5.39v22.02h10.16c8.27,0,14.02-3.73,14.02-11.01Z"/>
    <path class="cls-1" d="M51.4,77.33v-31.46h5.39v31.46h-5.39Z"/>
    <path class="cls-1" d="M97.86,45.88l13.26,25.93,13.26-25.93h5.89l-16.31,31.46h-5.75l-16.31-31.46h5.98Z"/>
    <path class="cls-1" d="M144.41,77.33v-31.46h5.39v31.46h-5.39Z"/>
    <path class="cls-1" d="M193.93,69.74h-20.18l-4,7.59h-5.84l17.03-31.46h5.93l16.99,31.46h-5.89l-4.04-7.59ZM191.54,65.15l-7.68-14.56-7.68,14.56h15.37Z"/>
    <path class="cls-1" d="M239.08,45.88l13.26,25.93,13.26-25.93h5.89l-16.31,31.46h-5.75l-16.31-31.46h5.98Z"/>
    <path class="cls-1" d="M307.56,69.74h-20.18l-4,7.59h-5.84l17.03-31.46h5.93l16.99,31.46h-5.89l-4.04-7.59ZM305.18,65.15l-7.68-14.56-7.68,14.56h15.37Z"/>
    <path class="cls-1" d="M360.22,72.57v4.76h-28.58v-31.46h5.39v26.69h23.19Z"/>
    <path class="cls-1" d="M403.49,72.57v4.76h-28.58v-31.46h5.39v26.69h23.19Z"/>
    <path class="cls-1" d="M449.5,72.61v4.72h-31.32v-31.46h30.87v4.72h-25.52v8.4h21.48v4.72h-21.48v8.9h25.97Z"/>
  </g>
  <g>
    <path class="cls-1" d="M101.5,120.22v8.31h-2.56v-12.76l12.51,8.71v-8.49h2.56v12.76l-12.51-8.54Z"/>
    <path class="cls-1" d="M130.88,128.53v-11.28h11.39v1.95h-8.94v2.74h7.32v1.77h-7.32v2.88h8.94v1.93h-11.39Z"/>
    <path class="cls-1" d="M166.69,121.57l-4.13,7.17-6.09-11.48h2.79l3.44,6.99,4-7.17,4,7.19,3.44-7.01h2.81l-6.09,11.48-4.16-7.17Z"/>
    <path class="cls-1" d="M211.33,128.53v-12.53h2.56v10.38h9.37v2.16h-11.93Z"/>
    <path class="cls-1" d="M238.58,128.53v-11.28h2.45v11.28h-2.45Z"/>
    <path class="cls-1" d="M255.86,117.26h2.9l4.69,7.64,4.76-7.64h2.88l-7.64,11.5-7.59-11.5Z"/>
    <path class="cls-1" d="M285.9,128.53v-11.28h2.45v11.28h-2.45Z"/>
    <path class="cls-1" d="M307.53,121.55v6.99h-2.45v-11.46l10.65,7.19v-7.01h2.45v11.5l-10.65-7.21Z"/>
    <path class="cls-1" d="M342.8,124.36v-1.82h6.63c0,.2.02.34.02.61,0,3.66-3.62,5.62-7.68,5.62s-7.73-2.09-7.73-5.88,3.84-5.79,7.77-5.79c2.13,0,4.13.45,5.71,1.24v2.18c-1.57-.74-3.32-1.35-5.59-1.35s-5.26.83-5.26,3.66c0,2.4,2.22,3.82,5.23,3.82,1.75,0,4-.52,4.78-2.27h-3.89Z"/>
  </g>
</svg>