<svg width="197" height="15" viewBox="0 0 197 15" fill="none" xmlns="http://www.w3.org/2000/svg">
<path d="M9.48727 0V10.7508L2.36646 0H0V14.4504H2.36646V3.67284L9.48727 14.4504H11.8537V0H9.48727Z" fill="#D4F7C7" fill-opacity="0.68"/>
<path d="M30.7424 0V14.4504H38.7145V12.5176H33.1089V8.09523H38.0935V6.16779H33.1089V1.92744H38.7145V0H30.7424Z" fill="#D4F7C7" fill-opacity="0.68"/>
<path d="M73.6494 0.0214233L70.6405 11.7092L67.6316 0.0214233H64.976L61.7368 11.7681L58.7493 0.0214233H56.2329L60.3234 14.4665L62.9843 14.4504L66.202 3.52829L69.2324 14.4504H71.9094L76.1872 0.0214233H73.6494Z" fill="#D4F7C7" fill-opacity="0.68"/>
<path d="M111.352 0V14.4504H119.324V12.5176H113.719V8.09523H118.698V6.16779H113.719V1.92744H119.324V0H111.352Z" fill="#D4F7C7" fill-opacity="0.68"/>
<path d="M146.598 11.147C147.497 10.2315 147.947 8.94652 147.947 7.28678C147.947 5.62705 147.497 4.30461 146.598 3.36231C145.698 2.42001 144.402 1.94886 142.716 1.94886H140.371V12.5176H142.716C144.402 12.5176 145.698 12.0625 146.598 11.147ZM146.753 0.904831C147.909 1.49377 148.803 2.3397 149.43 3.43727C150.062 4.54019 150.372 5.81979 150.372 7.28678C150.372 8.75378 150.056 10.028 149.43 11.1042C148.798 12.1857 147.909 13.0102 146.753 13.5831C145.596 14.156 144.252 14.4451 142.716 14.4451H138.004V0.0214233H142.716C144.252 0.0214233 145.596 0.315893 146.753 0.904831Z" fill="#D4F7C7" fill-opacity="0.68"/>
<path d="M170.867 0.0214233H168.5V14.4504H170.867V0.0214233Z" fill="#D4F7C7" fill-opacity="0.68"/>
<path d="M189.756 0.0214233V14.4504H197V12.539H192.123V0.0214233H189.756Z" fill="#D4F7C7" fill-opacity="0.68"/>
<path d="M96.4039 5.25757H92.4688V9.19275H96.4039V5.25757Z" fill="#D4F7C7" fill-opacity="0.68"/>
</svg>
