<svg width="1195" height="302" viewBox="0 0 1195 302" fill="none" xmlns="http://www.w3.org/2000/svg">
<circle cx="150" cy="151" r="86" fill="white" fill-opacity="0.63"/>
<circle cx="449" cy="152" r="86" fill="white" fill-opacity="0.63"/>
<circle cx="746" cy="152" r="86" fill="white" fill-opacity="0.63"/>
<circle cx="1044" cy="152" r="86" fill="white" fill-opacity="0.63"/>
<path fill-rule="evenodd" clip-rule="evenodd" d="M4 151C4 69.8141 69.8141 4 151 4C187.642 4 221.148 17.4037 246.89 39.5781L249.501 36.5474C223.06 13.7714 188.636 0 151 0C67.605 0 0 67.605 0 151C0 234.395 67.605 302 151 302C234.395 302 302 234.395 302 151C302 69.8078 367.597 4 448.5 4C485.015 4 518.406 17.4023 544.061 39.5759L546.677 36.5496C520.324 13.7728 486.013 0 448.5 0C365.375 0 298 67.6113 298 151C298 232.186 232.186 298 151 298C69.8141 298 4 232.186 4 151ZM1191 151C1191 232.186 1125.19 298 1044 298C1007.36 298 973.852 284.596 948.11 262.422L945.499 265.453C971.94 288.229 1006.36 302 1044 302C1127.4 302 1195 234.395 1195 151C1195 67.605 1127.4 2.47822e-05 1044 1.74916e-05C960.605 1.0201e-05 893 67.605 893 151C893 232.186 827.186 298 746 298C706.762 298 671.119 282.629 644.755 257.577L642 260.476C669.077 286.207 705.696 302 746 302C829.395 302 897 234.395 897 151C897 69.8141 962.814 4.00001 1044 4.00002C1125.19 4.00002 1191 69.8142 1191 151ZM448.5 298C529.403 298 595 232.192 595 151C595 67.605 662.605 0 746 0C783.636 0 818.06 13.7714 844.501 36.5474L841.89 39.5781C816.148 17.4037 782.642 4 746 4C664.814 4 599 69.8141 599 151C599 234.389 531.625 302 448.5 302C408.328 302 371.829 286.206 344.842 260.474L347.602 257.579C373.876 282.631 409.398 298 448.5 298ZM151 236C197.944 236 236 197.944 236 151C236 104.056 197.944 66 151 66C104.056 66 66 104.056 66 151C66 197.944 104.056 236 151 236ZM151 240C200.153 240 240 200.153 240 151C240 101.847 200.153 62 151 62C101.847 62 62 101.847 62 151C62 200.153 101.847 240 151 240ZM534 151C534 197.944 495.944 236 449 236C402.056 236 364 197.944 364 151C364 104.056 402.056 66 449 66C495.944 66 534 104.056 534 151ZM538 151C538 200.153 498.153 240 449 240C399.847 240 360 200.153 360 151C360 101.847 399.847 62 449 62C498.153 62 538 101.847 538 151ZM746 236C792.944 236 831 197.944 831 151C831 104.056 792.944 66 746 66C699.056 66 661 104.056 661 151C661 197.944 699.056 236 746 236ZM746 240C795.153 240 835 200.153 835 151C835 101.847 795.153 62 746 62C696.847 62 657 101.847 657 151C657 200.153 696.847 240 746 240ZM1129 151C1129 197.944 1090.94 236 1044 236C997.056 236 959 197.944 959 151C959 104.056 997.056 66 1044 66C1090.94 66 1129 104.056 1129 151ZM1133 151C1133 200.153 1093.15 240 1044 240C994.847 240 955 200.153 955 151C955 101.847 994.847 62 1044 62C1093.15 62 1133 101.847 1133 151Z" fill="url(#paint0_linear_316_635)"/>
<path d="M1067.99 166.988C1081.42 153.551 1081.42 131.766 1067.99 118.329C1054.55 104.893 1032.77 104.893 1019.33 118.329C1005.89 131.766 1005.89 153.551 1019.33 166.988C1032.77 180.424 1054.55 180.424 1067.99 166.988Z" stroke="#0F3930" stroke-width="2" stroke-linecap="round" stroke-linejoin="round"/>
<path d="M1043.66 168.089C1029.64 168.089 1018.23 156.68 1018.23 142.658C1018.23 128.636 1029.64 117.227 1043.66 117.227C1057.68 117.227 1069.09 128.636 1069.09 142.658C1069.09 156.68 1057.68 168.089 1043.66 168.089Z" stroke="#0F3930" stroke-width="2" stroke-linecap="round" stroke-linejoin="round"/>
<path d="M1018.9 174.406L1009.25 192.58L1022.09 187.543L1025.11 201L1035.13 182.125" stroke="#0F3930" stroke-width="2" stroke-linecap="round" stroke-linejoin="round"/>
<path d="M1068.41 174.399L1078.07 192.58L1065.23 187.543L1062.21 201L1052.17 182.098" stroke="#0F3930" stroke-width="2" stroke-linecap="round" stroke-linejoin="round"/>
<path d="M1043.66 124.707L1048.15 136.675H1060.11L1049.64 145.65L1054.13 157.618L1043.66 150.138L1033.19 157.618L1037.67 145.65L1027.2 136.675H1039.17L1043.66 124.707Z" stroke="#0F3930" stroke-width="2" stroke-linecap="round" stroke-linejoin="round"/>
<path d="M414 177.559V102.56H468" stroke="#0F3930" stroke-width="2" stroke-linecap="round" stroke-linejoin="round"/>
<path d="M419.999 183.559V108.56H473.999" stroke="#0F3930" stroke-width="2" stroke-linecap="round" stroke-linejoin="round"/>
<path d="M480 143.06V189.559H426V114.56H480V120.56" stroke="#0F3930" stroke-width="2" stroke-linecap="round" stroke-linejoin="round"/>
<path d="M463.726 152.35L458.423 153.41L459.483 148.106L483.879 123.71C485.049 122.54 486.949 122.54 488.123 123.71C489.293 124.88 489.293 126.78 488.123 127.953L463.726 152.35Z" stroke="#0F3930" stroke-width="2" stroke-linecap="round" stroke-linejoin="round"/>
<path d="M485.999 130.073L481.756 125.833" stroke="#0F3930" stroke-width="2" stroke-linecap="round" stroke-linejoin="round"/>
<path d="M465.846 150.226L461.603 145.983" stroke="#0F3930" stroke-width="2" stroke-linecap="round" stroke-linejoin="round"/>
<path d="M443.173 181.653C443.173 181.653 455.936 166.833 471.823 165.486" stroke="#0F3930" stroke-width="2" stroke-linecap="round" stroke-linejoin="round"/>
<path d="M469.41 163.709L471.827 165.486L470.047 167.903" stroke="#0F3930" stroke-width="2" stroke-linecap="round" stroke-linejoin="round"/>
<path d="M437.276 159.836C437.276 159.836 442.8 141.076 456.72 133.3" stroke="#0F3930" stroke-width="2" stroke-linecap="round" stroke-linejoin="round"/>
<path d="M453.787 132.677L456.724 133.3L456.1 136.236" stroke="#0F3930" stroke-width="2" stroke-linecap="round" stroke-linejoin="round"/>
<path d="M436.499 140.06C438.156 140.06 439.499 138.717 439.499 137.06C439.499 135.403 438.156 134.06 436.499 134.06C434.842 134.06 433.499 135.403 433.499 137.06C433.499 138.717 434.842 140.06 436.499 140.06Z" stroke="#0F3930" stroke-width="2" stroke-linecap="round" stroke-linejoin="round"/>
<path d="M451.5 164.06C453.157 164.06 454.5 162.716 454.5 161.06C454.5 159.403 453.157 158.06 451.5 158.06C449.843 158.06 448.5 159.403 448.5 161.06C448.5 162.716 449.843 164.06 451.5 164.06Z" stroke="#0F3930" stroke-width="2" stroke-linecap="round" stroke-linejoin="round"/>
<path d="M465 129.56C466.657 129.56 468 128.217 468 126.56C468 124.903 466.657 123.56 465 123.56C463.343 123.56 462 124.903 462 126.56C462 128.217 463.343 129.56 465 129.56Z" stroke="#0F3930" stroke-width="2" stroke-linecap="round" stroke-linejoin="round"/>
<path d="M438.62 169.439L434.38 173.679" stroke="#0F3930" stroke-width="2" stroke-linecap="round" stroke-linejoin="round"/>
<path d="M438.62 173.679L434.38 169.439" stroke="#0F3930" stroke-width="2" stroke-linecap="round" stroke-linejoin="round"/>
<path d="M450.62 121.44L446.38 125.68" stroke="#0F3930" stroke-width="2" stroke-linecap="round" stroke-linejoin="round"/>
<path d="M450.62 125.68L446.38 121.44" stroke="#0F3930" stroke-width="2" stroke-linecap="round" stroke-linejoin="round"/>
<path d="M103.487 146.188L118.931 169.325" stroke="#0F3930" stroke-width="2" stroke-linejoin="round"/>
<path d="M180.119 141.656V114H102V141.598C102 151.151 118.516 153.639 118.516 153.639C118.516 153.639 113.154 172.085 124.694 172.085H134.632" stroke="#0F3930" stroke-width="2" stroke-linejoin="round"/>
<path d="M160.956 145.216V126.098H125.192V135.607" stroke="#0F3930" stroke-width="2" stroke-linejoin="round"/>
<path d="M125.192 143.944V157.528H139.521" stroke="#0F3930" stroke-width="2" stroke-linejoin="round"/>
<path d="M142.596 126.098V141.813H149.66" stroke="#0F3930" stroke-width="2" stroke-linejoin="round"/>
<path d="M174.399 183.711L203.8 166.823C203.928 166.751 204 166.651 204 166.551V155.855C204 155.712 203.871 155.626 203.8 155.583L189.042 146.975C188.771 146.818 188.399 146.803 188.113 146.975L186.254 148.019" stroke="#0F3930" stroke-width="2" stroke-linecap="round" stroke-linejoin="round"/>
<path d="M136.819 176.404L127.524 181.809C127.338 181.909 127.338 182.167 127.338 182.338V192.777C127.338 192.877 127.395 192.963 127.524 193.049L142.281 201.657C142.524 201.8 142.896 201.829 143.211 201.657L174.398 183.725V176.461" stroke="#0F3930" stroke-width="2" stroke-linecap="round" stroke-linejoin="round"/>
<path d="M187.054 152.981L172.297 144.372C172.011 144.201 171.596 144.244 171.368 144.372L140.38 162.19C140.209 162.29 140.194 162.533 140.194 162.676V173.158C140.194 173.258 140.252 173.344 140.38 173.429L155.137 182.038C155.395 182.195 155.795 182.195 156.067 182.038L187.054 164.22C187.183 164.149 187.255 164.049 187.255 163.949V153.295C187.255 153.181 187.126 153.024 187.054 152.981ZM159.241 165.436C156.925 166.766 153.178 166.78 150.89 165.436C148.588 164.106 148.603 161.932 150.919 160.588C153.236 159.244 156.968 159.258 159.27 160.588C161.572 161.932 161.558 164.092 159.241 165.422V165.436ZM174.413 156.899C172.097 158.243 168.35 158.243 166.062 156.899C163.76 155.569 163.774 153.396 166.091 152.051C168.408 150.722 172.14 150.722 174.442 152.051C176.744 153.396 176.73 155.555 174.413 156.885V156.899Z" stroke="#0F3930" stroke-width="2" stroke-linejoin="round"/>
<path d="M145.543 185.627C143.227 186.971 139.48 186.971 137.192 185.627C134.89 184.297 134.904 182.124 137.221 180.779C139.538 179.45 143.284 179.45 145.586 180.779C147.889 182.109 147.874 184.283 145.558 185.613L145.543 185.627Z" stroke="#0F3930" stroke-width="2" stroke-linejoin="round"/>
<path d="M190.959 153.939C193.262 155.283 193.247 157.442 190.931 158.772" stroke="#0F3930" stroke-width="2" stroke-linecap="round" stroke-linejoin="round"/>
<path d="M776.973 133.169C776.152 142.213 772.701 152.799 766.71 163.132C753.792 185.408 733.951 198.077 722.388 191.434C717.641 188.707 715.032 183.146 714.495 176.001" stroke="#0F3930" stroke-width="2" stroke-linecap="round" stroke-linejoin="round"/>
<path d="M714.582 169.033C715.403 159.989 718.854 149.403 724.845 139.07C737.763 116.794 757.608 104.122 769.167 110.768C773.976 113.533 776.593 119.202 777.081 126.485" stroke="#0F3930" stroke-width="2" stroke-linecap="round" stroke-linejoin="round"/>
<path d="M714.582 133.169C722.86 129.358 733.792 127.04 745.778 127.04C771.613 127.04 792.556 137.812 792.556 151.101C792.556 156.617 788.945 161.704 782.875 165.761" stroke="#0F3930" stroke-width="2" stroke-linecap="round" stroke-linejoin="round"/>
<path d="M776.974 169.032C768.696 172.844 757.764 175.162 745.778 175.162C719.943 175.162 699 164.389 699 151.101C699 145.564 702.635 140.463 708.744 136.399" stroke="#0F3930" stroke-width="2" stroke-linecap="round" stroke-linejoin="round"/>
<path d="M745.951 115.363C753.349 120.598 760.761 128.817 766.707 139.07C779.624 161.347 780.726 184.792 769.164 191.434C764.354 194.199 758.11 193.621 751.53 190.398" stroke="#0F3930" stroke-width="2" stroke-linecap="round" stroke-linejoin="round"/>
<path d="M745.778 186.964C738.325 181.735 730.841 173.468 724.846 163.132C711.932 140.858 710.83 117.414 722.389 110.768C727.178 108.013 733.391 108.578 739.943 111.766" stroke="#0F3930" stroke-width="2" stroke-linecap="round" stroke-linejoin="round"/>
<defs>
<linearGradient id="paint0_linear_316_635" x1="0" y1="151" x2="1195" y2="151" gradientUnits="userSpaceOnUse">
<stop stop-color="#D4F7C7"/>
<stop offset="1" stop-color="#D4F7C7"/>
</linearGradient>
</defs>
</svg>
