<svg width="112" height="120" viewBox="0 0 112 120" fill="none" xmlns="http://www.w3.org/2000/svg">
<path d="M109.667 60.0001C109.667 60.0001 93.7895 90.0742 55.963 90.0742C18.1365 90.0742 2.25928 60.0001 2.25928 60.0001C2.25928 60.0001 18.1365 29.926 55.963 29.926C93.7895 29.926 109.667 60.0001 109.667 60.0001Z" stroke="#0F3930" stroke-width="3" stroke-linecap="round" stroke-linejoin="round"/>
<path d="M55.9627 79.3332C66.6402 79.3332 75.2961 70.6773 75.2961 59.9998C75.2961 49.3223 66.6402 40.6665 55.9627 40.6665C45.2852 40.6665 36.6294 49.3223 36.6294 59.9998C36.6294 70.6773 45.2852 79.3332 55.9627 79.3332Z" stroke="#0F3930" stroke-width="3" stroke-linecap="round" stroke-linejoin="round"/>
<path d="M55.963 68.5924C60.7085 68.5924 64.5555 64.7454 64.5555 59.9998C64.5555 55.2543 60.7085 51.4072 55.963 51.4072C51.2174 51.4072 47.3704 55.2543 47.3704 59.9998C47.3704 64.7454 51.2174 68.5924 55.963 68.5924Z" stroke="#0F3930" stroke-width="3" stroke-linecap="round" stroke-linejoin="round"/>
<path d="M55.9631 105.111V118" stroke="#0F3930" stroke-width="3" stroke-linecap="round" stroke-linejoin="round"/>
<path d="M55.9631 2V14.8889" stroke="#0F3930" stroke-width="3" stroke-linecap="round" stroke-linejoin="round"/>
<path d="M86.9729 95.3059L96.0858 104.419" stroke="#0F3930" stroke-width="3" stroke-linecap="round" stroke-linejoin="round"/>
<path d="M15.8406 15.5813L24.9535 24.6942" stroke="#0F3930" stroke-width="3" stroke-linecap="round" stroke-linejoin="round"/>
<path d="M24.9535 95.3059L15.8406 104.419" stroke="#0F3930" stroke-width="3" stroke-linecap="round" stroke-linejoin="round"/>
<path d="M96.0858 15.5813L86.9729 24.6942" stroke="#0F3930" stroke-width="3" stroke-linecap="round" stroke-linejoin="round"/>
</svg>
