<svg width="103" height="91" viewBox="0 0 103 91" fill="none" xmlns="http://www.w3.org/2000/svg">
<path d="M65.2558 91.0001V85.5765C57.4972 85.5765 57.8667 79.3548 57.8667 79.3548V56.4928C57.8667 44.9214 62.8618 40.2071 72.2903 39.5864L79.7977 45.8229L87.3051 39.5864C96.7336 40.2071 101.729 44.9214 101.729 56.4928V79.473C101.729 79.473 101.729 85.4139 94.3839 85.4139V91.0001" stroke="#0F3930" stroke-width="1.2" stroke-linejoin="round"/>
<path d="M39.7487 17.8174L20.5961 27.778" stroke="#0F3930" stroke-width="1.2"/>
<path d="M46.7535 18.187L59.8471 27.7781" stroke="#0F3930" stroke-width="1.2"/>
<path d="M20.5959 64.7388V67.2659C20.3004 69.3644 18.5122 70.99 16.3398 70.99C13.9753 70.99 12.0541 69.0688 12.0541 66.7043C12.0541 64.99 13.059 63.5269 14.5221 62.8471V60.0984" stroke="#0F3930" stroke-width="1.2" stroke-linecap="round" stroke-linejoin="round"/>
<path d="M48.6749 27.7781L46.3843 16.3545H40.0444L37.7538 27.7781" stroke="#0F3930" stroke-width="1.2" stroke-linejoin="round"/>
<path d="M53.3003 75.4238H28.6649" stroke="#0F3930" stroke-width="1.2"/>
<path d="M10.3695 51.7786C8.38919 51.7786 7.79806 53.0347 9.02466 54.5717L12.468 58.8426C13.7094 60.3795 15.734 60.3795 16.9606 58.8426L20.404 54.5717C21.6453 53.0347 21.0394 51.7786 19.0591 51.7786H10.3547H10.3695Z" stroke="#0F3930" stroke-width="1.2" stroke-miterlimit="10"/>
<path d="M43.2069 40.9607V46.1035" stroke="#0F3930" stroke-width="1.2"/>
<path d="M43.2069 52.5024V57.6453" stroke="#0F3930" stroke-width="1.2"/>
<path d="M43.2069 64.0442V69.187" stroke="#0F3930" stroke-width="1.2"/>
<path d="M17.6699 36.1577V51.7784" stroke="#0F3930" stroke-width="1.2"/>
<path d="M11.7734 36.1577V51.7784" stroke="#0F3930" stroke-width="1.2"/>
<path d="M62.8028 27.7783H5.77339L1 36.1576H62.8028V27.7783Z" stroke="#0F3930" stroke-width="1.2" stroke-linejoin="round"/>
<path d="M48.6008 36.1577V75.4237" stroke="#0F3930" stroke-width="1.2"/>
<path d="M37.7538 36.1577V75.4237" stroke="#0F3930" stroke-width="1.2"/>
<path d="M75.6008 2.83252C70.3988 4.51725 66.6451 9.20197 66.6451 14.7143V17.8473" stroke="#0F3930" stroke-width="1.2" stroke-miterlimit="10"/>
<path d="M93.0539 17.8325V14.6995C93.0539 9.18719 89.315 4.50247 84.113 2.83252" stroke="#0F3930" stroke-width="1.2" stroke-miterlimit="10"/>
<path d="M63.9705 17.8323H95.6256" stroke="#0F3930" stroke-width="1.2" stroke-miterlimit="10" stroke-linecap="round"/>
<path d="M92.8766 17.8323V21.5416C92.8766 28.7682 87.0244 34.6204 79.7978 34.6204C72.5712 34.6204 66.719 28.7534 66.719 21.5416V17.8323" stroke="#0F3930" stroke-width="1.2" stroke-linejoin="round"/>
<path d="M85.118 13.7832C83.6107 8.03447 83.8323 3.23152 84.0392 1H75.4826C75.6747 2.87684 76.0737 7.63546 74.4629 13.7832" stroke="#0F3930" stroke-width="1.2" stroke-linejoin="round"/>
</svg>
