<svg width="116" height="80" viewBox="0 0 116 80" fill="none" xmlns="http://www.w3.org/2000/svg">
<path d="M16.3841 78.9965V30.8667" stroke="#D4F7C7" stroke-miterlimit="10"/>
<path d="M81.6056 48.0551V30.8667" stroke="#D4F7C7" stroke-miterlimit="10"/>
<path d="M45.2154 56.2732H31.1795V78.9965H45.2154V56.2732Z" stroke="#D4F7C7" stroke-miterlimit="10"/>
<path d="M97.1784 78.9963H0.814957" stroke="#D4F7C7" stroke-miterlimit="10"/>
<path d="M90.3861 36.6379L48.9949 7.25848L7.60364 36.6379L4.70905 32.4572L48.9949 1L93.2843 32.4572L90.3861 36.6379Z" stroke="#D4F7C7" stroke-miterlimit="10"/>
<path d="M106.031 48.0552C98.074 53.5112 91.228 61.3961 88.6773 71.4734C86.2484 81.0636 87.5238 76.4852 87.1942 79.0001" stroke="#D4F7C7" stroke-linecap="round" stroke-linejoin="round"/>
<path d="M65.8752 58.1072C65.8752 58.1072 67.018 58.0105 68.8128 58.2613C75.5048 59.1998 81.1256 63.7782 83.5795 70.0725L87.2157 77.5096" stroke="#D4F7C7" stroke-linecap="round" stroke-linejoin="round"/>
<path d="M82.7448 69.0623C82.7448 69.0623 76.3717 75.6145 68.5943 70.1621C60.8169 64.7096 63.0523 55.9256 57.041 54.0734C57.041 54.0734 66.2012 49.0616 72.5027 50.7525C81.8277 53.2567 84.579 63.42 84.579 63.42" stroke="#D4F7C7" stroke-linecap="round" stroke-linejoin="round"/>
<path d="M93.2951 62.8506C93.2951 62.8506 100.868 67.9698 107.374 61.045C113.88 54.1238 109.9 45.9809 115.409 42.9395C115.409 42.9395 105.422 39.898 99.5929 42.8356C90.9737 47.1846 90.3467 57.6955 90.3467 57.6955" stroke="#D4F7C7" stroke-linecap="round" stroke-linejoin="round"/>
<path d="M43.8004 29.4373H31.1795V42.0581H43.8004V29.4373Z" stroke="#D4F7C7" stroke-miterlimit="10"/>
<path d="M37.4918 29.4373V42.0581" stroke="#D4F7C7" stroke-miterlimit="10"/>
<path d="M31.1795 35.7495H43.8004" stroke="#D4F7C7" stroke-miterlimit="10"/>
<path d="M66.8138 29.4373H54.193V42.0581H66.8138V29.4373Z" stroke="#D4F7C7" stroke-miterlimit="10"/>
<path d="M60.5016 29.4373V42.0581" stroke="#D4F7C7" stroke-miterlimit="10"/>
<path d="M54.193 35.7495H66.8102" stroke="#D4F7C7" stroke-miterlimit="10"/>
<path d="M33.4651 70.4739H35.0235" stroke="#D4F7C7" stroke-miterlimit="10"/>
</svg>
