<svg width="108" height="75" viewBox="0 0 108 75" fill="none" xmlns="http://www.w3.org/2000/svg">
<path d="M14.5713 73.9967V28.9521" stroke="#D4F7C7" stroke-miterlimit="10"/>
<path d="M75.6123 45.0388V28.9521" stroke="#D4F7C7" stroke-miterlimit="10"/>
<path d="M41.5541 52.73H28.418V73.9966H41.5541V52.73Z" stroke="#D4F7C7" stroke-miterlimit="10"/>
<path d="M90.1863 73.9967H0" stroke="#D4F7C7" stroke-miterlimit="10"/>
<path d="M83.8295 34.3534L45.0915 6.8573L6.35357 34.3534L3.64453 30.4407L45.0915 1L86.5419 30.4407L83.8295 34.3534Z" stroke="#D4F7C7" stroke-miterlimit="10"/>
<path d="M98.4714 45.0387C91.0249 50.145 84.6177 57.5244 82.2305 66.9558C79.9574 75.9312 81.1509 71.6463 80.8425 74" stroke="#D4F7C7" stroke-linecap="round" stroke-linejoin="round"/>
<path d="M60.8896 54.4465C60.8896 54.4465 61.9592 54.356 63.6389 54.5907C69.9019 55.4691 75.1624 59.7539 77.4591 65.6448L80.8621 72.6051" stroke="#D4F7C7" stroke-linecap="round" stroke-linejoin="round"/>
<path d="M76.6773 64.6994C76.6773 64.6994 70.7127 70.8316 63.4338 65.7287C56.1549 60.6257 58.2471 52.4047 52.6211 50.6714C52.6211 50.6714 61.1941 45.9808 67.0917 47.5633C75.8189 49.9069 78.3939 59.4187 78.3939 59.4187" stroke="#D4F7C7" stroke-linecap="round" stroke-linejoin="round"/>
<path d="M86.5523 58.8858C86.5523 58.8858 93.6401 63.6769 99.7287 57.196C105.817 50.7184 102.092 43.0976 107.249 40.2511C107.249 40.2511 97.9014 37.4046 92.4465 40.1539C84.3797 44.2241 83.793 54.0612 83.793 54.0612" stroke="#D4F7C7" stroke-linecap="round" stroke-linejoin="round"/>
<path d="M40.2298 27.6143H28.418V39.4261H40.2298V27.6143Z" stroke="#D4F7C7" stroke-miterlimit="10"/>
<path d="M34.3262 27.6143V39.4261" stroke="#D4F7C7" stroke-miterlimit="10"/>
<path d="M28.418 33.5219H40.2298" stroke="#D4F7C7" stroke-miterlimit="10"/>
<path d="M61.7679 27.6143H49.9561V39.4261H61.7679V27.6143Z" stroke="#D4F7C7" stroke-miterlimit="10"/>
<path d="M55.8604 27.6143V39.4261" stroke="#D4F7C7" stroke-miterlimit="10"/>
<path d="M49.9561 33.5219H61.7645" stroke="#D4F7C7" stroke-miterlimit="10"/>
<path d="M30.5576 66.0204H32.0161" stroke="#D4F7C7" stroke-miterlimit="10"/>
</svg>
