<svg width="67" height="81" viewBox="0 0 67 81" fill="none" xmlns="http://www.w3.org/2000/svg">
<path d="M40.1747 63.3424L28.72 27.7112" stroke="#D4F7C7" stroke-miterlimit="10" stroke-linecap="round"/>
<path d="M1 75.683L16.4164 27.7112" stroke="#D4F7C7" stroke-miterlimit="10" stroke-linecap="round"/>
<path d="M32.3619 19.2584C32.3619 24.6597 27.9818 29.0521 22.5805 29.0521C17.1793 29.0521 12.7869 24.672 12.7869 19.2584C12.7869 13.8448 17.167 9.47705 22.5805 9.47705C27.9941 9.47705 32.3619 13.8571 32.3619 19.2584Z" stroke="#D4F7C7" stroke-miterlimit="10" stroke-linecap="round"/>
<path d="M1.94739 46.0559H43.1891" stroke="#D4F7C7" stroke-miterlimit="10" stroke-linecap="round"/>
<path d="M22.5682 42.3403V49.7471" stroke="#D4F7C7" stroke-miterlimit="10" stroke-linecap="round"/>
<path d="M22.5682 8.30834V1" stroke="#D4F7C7" stroke-miterlimit="10" stroke-linecap="round"/>
<path d="M58.0887 68.3623H14.5093C13.2544 68.3623 12.2455 69.3712 12.2455 70.6262V78.1683C12.2455 79.4233 13.2544 80.4321 14.5093 80.4321H58.0887V68.3623Z" stroke="#D4F7C7" stroke-linejoin="round"/>
<path d="M20.5996 68.3623V80.4321" stroke="#D4F7C7" stroke-linejoin="round"/>
<path d="M58.0888 68.3623L66 74.3911L58.0888 80.4321" stroke="#D4F7C7" stroke-linejoin="round"/>
<path d="M38.9197 17.8438C53.4379 19.0618 64.8434 31.2424 64.8434 46.0805C64.8434 51.7648 63.1701 57.0554 60.2787 61.497" stroke="#D4F7C7" stroke-linejoin="round"/>
</svg>
