<svg width="106" height="106" viewBox="0 0 106 106" fill="none" xmlns="http://www.w3.org/2000/svg">
<path d="M53 53L83.614 22.386" stroke="#D4F7C7" stroke-width="2" stroke-linecap="round" stroke-linejoin="round"/>
<path d="M71.7986 34.2018V23.6986L83.6141 11.8789V22.3862H94.1214L82.3018 34.2018H71.7986Z" stroke="#D4F7C7" stroke-width="2" stroke-linecap="round" stroke-linejoin="round"/>
<path d="M99.0695 28.8571C102.858 36.0711 105 44.2838 105 53C105 81.7197 81.7197 105 53 105C24.2803 105 1 81.7197 1 53C1 24.2803 24.2803 1 53 1C61.7162 1 69.9289 3.14191 77.1429 6.93048" stroke="#D4F7C7" stroke-width="2" stroke-linecap="round" stroke-linejoin="round"/>
<path d="M87.7946 40C89.3134 44.0486 90.1429 48.4273 90.1429 53C90.1429 73.4823 73.4781 90.1429 53 90.1429C32.5219 90.1429 15.8572 73.4823 15.8572 53C15.8572 32.5178 32.5178 15.8572 53 15.8572C57.5727 15.8572 61.9515 16.6867 66 18.2054" stroke="#D4F7C7" stroke-width="2" stroke-linecap="round" stroke-linejoin="round"/>
<path d="M73.2594 43.7144C74.5594 46.5413 75.2858 49.6902 75.2858 53.0001C75.2858 65.2902 65.2902 75.2858 53.0001 75.2858C40.7099 75.2858 30.7144 65.2902 30.7144 53.0001C30.7144 40.7099 40.7099 30.7144 53.0001 30.7144C56.314 30.7144 59.4588 31.4407 62.2858 32.7407" stroke="#D4F7C7" stroke-width="2" stroke-linecap="round" stroke-linejoin="round"/>
<path d="M60.1934 54.8569C59.368 58.0553 56.4544 60.4283 53.0001 60.4283C48.902 60.4283 45.5715 57.0978 45.5715 52.9997C45.5715 49.5454 47.9404 46.6318 51.143 45.8064" stroke="#D4F7C7" stroke-width="2" stroke-linecap="round" stroke-linejoin="round"/>
</svg>
