<svg width="93" height="105" viewBox="0 0 93 105" fill="none" xmlns="http://www.w3.org/2000/svg">
<path d="M69.8476 27.0691L75.9653 30.6147" stroke="#0F3930" stroke-width="1.2" stroke-linecap="round" stroke-linejoin="round"/>
<path d="M17.7093 30.6148L29.9156 23.509" stroke="#0F3930" stroke-width="1.2" stroke-linecap="round" stroke-linejoin="round"/>
<path d="M17.593 77.8993V30.6145L46.8299 47.4853V89.5534" stroke="#0F3930" stroke-width="1.2" stroke-linecap="round" stroke-linejoin="round"/>
<path d="M76.0669 77.8993V30.6145L46.83 47.4853" stroke="#0F3930" stroke-width="1.2" stroke-linecap="round" stroke-linejoin="round"/>
<path d="M26.2828 45.6401V49.0114" stroke="#0F3930" stroke-width="1.2" stroke-linecap="round" stroke-linejoin="round"/>
<path d="M37.8352 52.1064V55.4777" stroke="#0F3930" stroke-width="1.2" stroke-linecap="round" stroke-linejoin="round"/>
<path d="M26.2828 59.7644V63.1357" stroke="#0F3930" stroke-width="1.2" stroke-linecap="round" stroke-linejoin="round"/>
<path d="M37.8352 66.2312V69.6025" stroke="#0F3930" stroke-width="1.2" stroke-linecap="round" stroke-linejoin="round"/>
<path d="M26.2828 73.8892V77.2604" stroke="#0F3930" stroke-width="1.2" stroke-linecap="round" stroke-linejoin="round"/>
<path d="M37.8352 80.3552V83.7265" stroke="#0F3930" stroke-width="1.2" stroke-linecap="round" stroke-linejoin="round"/>
<path d="M67.232 45.6401V49.0114" stroke="#0F3930" stroke-width="1.2" stroke-linecap="round" stroke-linejoin="round"/>
<path d="M55.6796 52.1064V55.4777" stroke="#0F3930" stroke-width="1.2" stroke-linecap="round" stroke-linejoin="round"/>
<path d="M67.232 59.7644V63.1357" stroke="#0F3930" stroke-width="1.2" stroke-linecap="round" stroke-linejoin="round"/>
<path d="M55.6796 66.2312V69.6025" stroke="#0F3930" stroke-width="1.2" stroke-linecap="round" stroke-linejoin="round"/>
<path d="M67.232 73.8892V77.2604" stroke="#0F3930" stroke-width="1.2" stroke-linecap="round" stroke-linejoin="round"/>
<path d="M55.6796 80.3552V83.7265" stroke="#0F3930" stroke-width="1.2" stroke-linecap="round" stroke-linejoin="round"/>
<path d="M92.1967 82.0994C92.1967 84.5116 91.5864 86.8947 90.4674 89.1325C87.0235 96.0349 78.6971 101.717 68.2782 103.62" stroke="#0F3930" stroke-width="1.2" stroke-miterlimit="10" stroke-linecap="round"/>
<path d="M82.4753 75.0806C84.0592 77.0132 84.9165 79.1057 84.9165 81.3C84.9165 86.6765 79.6998 91.4864 71.4605 94.7559" stroke="#0F3930" stroke-width="1.2" stroke-miterlimit="10" stroke-linecap="round"/>
<path d="M63.6717 97.168C58.3242 98.4177 52.2501 99.1297 45.8128 99.1297C24.2047 99.1297 6.70908 91.1375 6.70908 81.2853C6.70908 78.103 8.54002 75.1095 11.7369 72.5229" stroke="#0F3930" stroke-width="1.2" stroke-miterlimit="10" stroke-linecap="round"/>
<path d="M8.75803 65.1846C5.98255 66.9429 3.38145 69.0935 1.46332 71.5057" stroke="#0F3930" stroke-width="1.2" stroke-miterlimit="10" stroke-linecap="round"/>
<path d="M62.2332 3.8772L55.5924 18.5829" stroke="#0F3930" stroke-width="1.2" stroke-linecap="round" stroke-linejoin="round"/>
<path d="M43.5605 1L35.2776 19.3676" stroke="#0F3930" stroke-width="1.2" stroke-linecap="round" stroke-linejoin="round"/>
<path d="M41.5697 28.9873L40.6978 30.8764" stroke="#0F3930" stroke-width="1.2" stroke-linecap="round" stroke-linejoin="round"/>
<path d="M50.1577 10.1836L43.5169 24.7004" stroke="#0F3930" stroke-width="1.2" stroke-linecap="round" stroke-linejoin="round"/>
<path d="M64.006 25.7178L62.0878 29.9318" stroke="#0F3930" stroke-width="1.2" stroke-linecap="round" stroke-linejoin="round"/>
<path d="M70.0365 12.4504L66.3456 20.5589" stroke="#0F3930" stroke-width="1.2" stroke-linecap="round" stroke-linejoin="round"/>
</svg>
