<?xml version="1.0" encoding="UTF-8"?><svg id="Livello_1" xmlns="http://www.w3.org/2000/svg" viewBox="0 0 42.4534912 27.2594604"><defs><style>.cls-1{fill:#1c1c1c;stroke-width:0px;}</style></defs><path class="cls-1" d="M15.7043457,12.7000122h3.2630005c3.335022,0,6.0239868-2.8619995,6.0239868-6.368042,0-3.5059814-2.6879883-6.3319702-6.0229492-6.3319702h-9.322998v18.1729736h6.05896v-5.4729614ZM17.1033936,4.2929688c1.0749512,0,1.9369507.894043,1.9369507,2.0380249,0,1.1449585-.8609619,2.0759888-1.9369507,2.0759888-1.0750122,0-1.9730225-.9299927-1.9730225-2.0759888,0-1.1450195.8980103-2.0380249,1.9730225-2.0380249Z"/><path class="cls-1" d="M4.4460449,6.3321533h-.0010376c0-1.2869873-.9680176-2.3249512-2.2230225-2.3249512-1.2539673,0-2.2219849,1.0369873-2.2219849,2.3249512,0,1.2880249,1.0050049,2.3610229,2.2230225,2.3610229,1.2189941,0,2.2230225-1.072998,2.2230225-2.3610229Z"/><rect class="cls-1" x="1.8999634" y="21.5015869" width=".6450195" height="4.4359741"/><path class="cls-1" d="M4.6967163,25.4007568c-.2869873,0-.4299927-.1789551-.4299927-.5009766v-1.3950195h.6809692v-.6089478h-.6809692v-1.0010376h-.5380249v.6430054c0,.25-.0719604.3580322-.2509766.3580322h-.322998v.6079712h.5380249l.0009766.0020142v1.4660034c0,.6799927.3220215,1.0019531.8959961,1.0019531.1439819,0,.2509766,0,.322998-.0359497l.1069946-.0360107v-.6090088l-.0720215.0360107c-.0719604.0360107-.1429443.0719604-.2509766.0719604Z"/><path class="cls-1" d="M6.7050781,22.8226929c-.3950195,0-.6459961.1430054-.8610229.2860107-.1079712.1069946-.2150269.1789551-.2869873.2859497l.3939819.4300537c.0720215-.0710449.1430054-.1430054.2150269-.2150269.1430054-.1069946.2869873-.2139893.5379639-.2139893.3580322,0,.6090088.25.6090088.572998l-1.0750122.1790161c-.5019531.1069946-.8249512.4649658-.8249512.9660034,0,.4649658.3949585.8579712.9689941.8579712.2859497,0,.5379639-.1069946.6809692-.25.107605-.0706787.1782837-.1426392.25-.2489624v.4629517h.5740356v-1.9320068c0-.6809692-.4650269-1.1809692-1.1820068-1.1809692ZM7.3140869,24.5766602c0,.5010376-.3580322.8590088-.8240356.8590088-.2869873,0-.4660034-.1790161-.4660034-.3939819,0-.2139893.1430054-.3569946.4299927-.4290161l.8600464-.1430054v.1069946Z"/><rect class="cls-1" x="8.6409912" y="21.5015869" width=".572998" height="4.4359741"/><path class="cls-1" d="M10.2909546,21.5725708c-.2160034,0-.3590088.1790161-.3590088.3939819,0,.2140503.144043.3570557.3590088.3570557.1790161,0,.3580322-.1420288.3580322-.3570557,0-.2149658-.1790161-.3939819-.3580322-.3939819Z"/><rect class="cls-1" x="9.9679565" y="22.8966064" width=".6090088" height="3.0409546"/><path class="cls-1" d="M12.3708496,22.8226929c-.3590088,0-.6459961.1430054-.8250122.2860107-.1439819.1069946-.2160034.1789551-.2869873.2859497l.3579712.4300537c.0720215-.0710449.1430054-.1430054.2150269-.2150269.1430054-.1069946.322998-.2139893.5379639-.2139893.3580322,0,.6090088.25.6090088.572998l-1.0390015.1790161c-.5020142.1069946-.8609619.4649658-.8609619.9660034,0,.4649658.3949585.8579712.9689941.8579712.322998,0,.5379639-.1069946.71698-.25.0720215-.0709839.1430054-.1430054.2150269-.25v.4639893h.6089478v-1.9320068c0-.6809692-.5009766-1.1809692-1.2179565-1.1809692ZM12.9798584,24.5766602c0,.5010376-.3580322.8590088-.8240356.8590088-.2869873,0-.4660034-.1779785-.4660034-.3939819,0-.2150269.1430054-.3580322.4660034-.4290161l.8240356-.1430054v.1069946Z"/><path class="cls-1" d="M15.7764282,22.8251953c-.2860107,0-.5009766.1430054-.6450195.25-.1079712.0709839-.1789551.1779785-.2509766.25v-.4290161h-.5739746v3.0410156h.5739746v-1.6450195c0-.5009766.3590088-.8590088.7890015-.8590088.3939819,0,.6459961.2870483.6459961.7160034v1.7880249h.6090088v-1.7880249c0-.8239746-.4660034-1.3239746-1.1480103-1.3239746Z"/><path class="cls-1" d="M18.7171631,22.8226929c-.3590088,0-.6459961.1430054-.8250122.2860107-.1439819.1069946-.2160034.1789551-.2869873.2859497l.3579712.4300537c.0720215-.0710449.1430054-.1430054.2150269-.2150269.1430054-.1069946.322998-.2139893.5379639-.2139893.3580322,0,.6090088.25.6090088.572998l-1.0390015.1790161c-.5020142.1069946-.8609619.4649658-.8609619.9660034,0,.4649658.3949585.8579712.9689941.8579712.322998,0,.5379639-.1069946.71698-.25.0720215-.0709839.1430054-.1430054.2150269-.25v.4639893h.6089478v-1.9320068c0-.6809692-.5009766-1.1809692-1.2179565-1.1809692ZM19.3261719,24.5766602c0,.5010376-.3580322.8590088-.8240356.8590088-.2869873,0-.46698-.1779785-.46698-.3939819,0-.2150269.1439819-.3580322.46698-.4290161l.8240356-.1430054v.1069946Z"/><path class="cls-1" d="M23.8805542,21.5009155h-1.6860352v4.4369507h.6459961v-1.5749512h1.0400391c.7889404,0,1.3979492-.644043,1.3979492-1.4310303,0-.7860107-.6090088-1.4309692-1.3979492-1.4309692ZM23.8805542,23.7188721v.0010376h-1.0400391v-1.5740356h1.0400391c.3939819,0,.71698.3569946.71698.7860107,0,.4299927-.322998.7869873-.71698.7869873Z"/><path class="cls-1" d="M26.855835,22.8226929c-.3579712,0-.6449585.1430054-.8239746.2860107-.1439819.1069946-.2160034.1789551-.2869873.2859497l.3589478.4300537.2150269-.2150269c.1439819-.1069946.322998-.2139893.5380249-.2139893.3579712,0,.6090088.25.6090088.572998l-1.0400391.1790161c-.5020142.1069946-.8609619.4649658-.8609619.9660034,0,.4649658.3949585.8579712.9689941.8579712.3219604,0,.5369873-.1069946.71698-.25.0720215-.0709839.1430054-.1430054.2150269-.25v.4639893h.6089478v-1.9320068c0-.6809692-.5019531-1.1809692-1.2189941-1.1809692ZM27.4658813,24.5766602c0,.5010376-.3580322.8590088-.8240356.8590088-.2869873,0-.46698-.1790161-.46698-.3939819,0-.2139893.1439819-.3580322.46698-.4290161l.8240356-.1430054v.1069946Z"/><path class="cls-1" d="M29.5820923,23.0751953c-.0719604.0709839-.1429443.1430054-.2149658.25v-.4290161h-.5739746v3.0410156h.5739746v-1.5740356c0-.5369873.3590088-.8949585.7890015-.8949585h.1430054l.1079712.0360107v-.6790161h-.1799927c-.2869873,0-.5020142.1430054-.6450195.25Z"/><path class="cls-1" d="M32.9526978,23.3234863c-.0710449-.0709839-.1430054-.1790161-.2510376-.25-.1439819-.1069946-.3939819-.25-.7529907-.25-.71698,0-1.3270264.6439819-1.3270264,1.5739746,0,.9310303.6100464,1.5740356,1.3270264,1.5740356.3590088,0,.6099854-.1069946.7529907-.25.1080322-.0709839.1790161-.1430054.2510376-.25v1.7879639h.5739746v-4.3649902h-.5739746v.4290161ZM32.0916748,25.4005127c-.5010376,0-.8970337-.4300537-.8970337-1.0020142,0-.5720215.3959961-.9660034.8970337-.9660034.4660034,0,.8610229.3939819.8610229.9660034,0,.5719604-.3950195,1.0020142-.8610229,1.0020142Z"/><path class="cls-1" d="M36.2869873,24.5411987c0,.5020142-.322998.8590088-.7890015.8590088-.3949585,0-.6459961-.2860107-.6459961-.7510376v-1.7529907h-.6089478v1.7520142c0,.822998.5019531,1.3239746,1.1469727,1.3239746.2869873,0,.5029907-.1069946.6820068-.25.0719604-.0719604.1430054-.1439819.2149658-.2509766v.4660034h.6090088v-3.0410156h-.6090088v1.6450195Z"/><path class="cls-1" d="M38.9058838,22.8242798c-.8259888,0-1.4710083.6799927-1.4710083,1.5739746,0,.8950195.6450195,1.5750122,1.5059814,1.5750122.3950195,0,.717041-.1439819.8959961-.2869873.144043-.0720215.2510376-.1790161.322998-.2860107l.0010376-.0020142-.3590088-.4289551c-.0720215.0709839-.1439819.1430054-.2510376.2139893-.1429443.1079712-.3219604.2149658-.6089478.2149658-.467041,0-.8250122-.3569946-.8970337-.7859497h2.2230225v-.0710449c.0360107-.0719604.0360107-.1439819.0360107-.2149658,0-.8580322-.572998-1.5020142-1.3980103-1.5020142ZM38.0438843,24.1123047c.1439819-.4290161.3949585-.7160034.8609619-.7160034.4310303,0,.6810303.2869873.7530518.7160034h-1.6140137Z"/><path class="cls-1" d="M42.3464355,25.3287964c-.0719604.0360107-.1429443.0719604-.2149658.0719604-.2869873,0-.4299927-.1789551-.4299927-.5009766v-1.3950195h.6449585v-.6089478h-.6449585v-1.0010376h-.5380249v.6430054c0,.25-.0719604.3580322-.2869873.3580322h-.322998v.6079712h.5380249v1.46698c0,.6799927.322998,1.0020142.8969727,1.0020142.1430054,0,.25,0,.3220215-.0360107l.1430054-.0360107v-.6079712l-.1070557.0360107Z"/></svg>