<?xml version="1.0" encoding="UTF-8"?>
<svg id="Livello_1" data-name="Livello 1" xmlns="http://www.w3.org/2000/svg" viewBox="0 0 55.11 11.17">
  <defs>
    <style>
      .cls-1 {
        fill: none;
      }

      .cls-2 {
        fill: #1a1a1a;
      }
    </style>
  </defs>
  <path class="cls-2" d="M4.47,3.05l1.2,4.18h-2.27l1.07-4.18ZM3.4,0L0,11.14h2.51l.4-1.71h3.21l.42,1.71h2.44L5.75,0h-2.35Z"/>
  <polygon class="cls-2" points="13.22 .08 13.22 11.15 19.02 11.15 19.02 8.82 15.55 8.82 15.55 .08 13.22 .08"/>
  <path class="cls-2" d="M25.58,9.25v-2.68h2.61c.5.3.76.87.67,1.45-.15,1.01-1.34,1.22-1.43,1.22h-1.86ZM27.81,2.12c.49.1.82.55.78,1.05,0,.55-.34,1.04-.84,1.26h-2.15v-2.31h2.22ZM29.06,5.54c.51-.17.94-.53,1.2-1.01.46-.82.48-1.05.46-1.78-.04-.74-.34-1.45-.84-2-.38-.39-.88-.64-1.42-.71h-5.05v11.13h5.39c.51-.16.96-.46,1.32-.86.56-.6.88-1.39.88-2.21.01-.73-.22-1.44-.67-2.02-.32-.35-.78-.55-1.26-.54"/>
  <rect class="cls-1" y="0" width="55.11" height="11.17"/>
  <polygon class="cls-2" points="35.77 .06 35.75 2.06 39.97 2.06 39.97 4.24 35.85 4.24 35.85 6.32 39.93 6.32 39.93 9.09 35.31 9.09 35.31 11.13 42.17 11.13 42.17 .06 35.77 .06"/>
  <path class="cls-2" d="M51.35,8.84h-2V2.36h1.56s1.89.03,1.86,3.22-1.42,3.26-1.42,3.26M51.28.04h-4.03v11.08h4.54s3.34-.56,3.32-5.56c-.02-5-3.82-5.52-3.82-5.52"/>
  <rect class="cls-1" y="0" width="55.11" height="11.17"/>
</svg>