<?xml version="1.0" encoding="UTF-8"?>
<svg id="Livello_1" data-name="Livello 1" xmlns="http://www.w3.org/2000/svg" viewBox="0 0 42.45 27.26">
  <defs>
    <style>
      .cls-1 {
        fill: #1c1d1c;
      }
    </style>
  </defs>
  <path class="cls-1" d="M18.97,0h-9.32v18.17h6.06v-5.47h3.26c3.34,0,6.02-2.86,6.02-6.37S22.3,0,18.97,0M17.1,8.41h0c-1.08,0-1.97-.93-1.97-2.08s.9-2.04,1.97-2.04,1.94.89,1.94,2.04-.86,2.08-1.94,2.08"/>
  <path class="cls-1" d="M4.45,6.33h0c0,1.29-1,2.36-2.22,2.36S0,7.62,0,6.33s.97-2.32,2.22-2.32,2.22,1.04,2.22,2.32h0Z"/>
  <rect class="cls-1" x="1.9" y="21.5" width=".64" height="4.44"/>
  <path class="cls-1" d="M3.69,23.5h-.54v-.61h.32c.18,0,.25-.11.25-.36v-.64h.54v1h.68v.61h-.68v1.39c0,.32.14.5.43.5.11,0,.18-.04.25-.07l.07-.04v.61l-.11.04c-.07.04-.18.04-.32.04-.57,0-.9-.32-.9-1v-1.47h0Z"/>
  <path class="cls-1" d="M7.31,25.47h0c-.07.11-.14.18-.25.25-.14.14-.39.25-.68.25-.57,0-.97-.39-.97-.86,0-.5.32-.86.82-.97l1.07-.18c0-.32-.25-.57-.61-.57-.25,0-.39.11-.54.21-.07.07-.14.14-.22.21l-.39-.43c.07-.11.18-.18.29-.29.22-.14.47-.29.86-.29.72,0,1.18.5,1.18,1.18v1.93h-.57v-.47h0ZM7.31,24.47h0l-.86.14c-.29.07-.43.22-.43.43s.18.39.47.39c.47,0,.82-.36.82-.86v-.11Z"/>
  <rect class="cls-1" x="8.64" y="21.5" width=".57" height="4.44"/>
  <path class="cls-1" d="M10.29,21.57h0c.18,0,.36.18.36.39s-.18.36-.36.36c-.22,0-.36-.14-.36-.36s.14-.39.36-.39M9.97,22.9h.61v3.04h-.61v-3.04Z"/>
  <path class="cls-1" d="M12.98,25.47h0c-.07.11-.14.18-.22.25-.18.14-.39.25-.72.25-.57,0-.97-.39-.97-.86,0-.5.36-.86.86-.97l1.04-.18c0-.32-.25-.57-.61-.57-.22,0-.39.11-.54.21-.07.07-.14.14-.22.21l-.36-.43c.07-.11.14-.18.29-.29.18-.14.47-.29.82-.29.72,0,1.22.5,1.22,1.18v1.93h-.61v-.47h0ZM12.98,24.47h0l-.82.14c-.32.07-.47.21-.47.43s.18.39.47.39c.47,0,.82-.36.82-.86v-.11Z"/>
  <path class="cls-1" d="M14.31,22.9h.57v.43c.07-.07.14-.18.25-.25.14-.11.36-.25.64-.25.68,0,1.15.5,1.15,1.32v1.79h-.61v-1.79c0-.43-.25-.72-.65-.72-.43,0-.79.36-.79.86v1.64h-.57v-3.04h0Z"/>
  <path class="cls-1" d="M19.33,25.47h0c-.07.11-.14.18-.22.25-.18.14-.39.25-.72.25-.57,0-.97-.39-.97-.86,0-.5.36-.86.86-.97l1.04-.18c0-.32-.25-.57-.61-.57-.22,0-.4.11-.54.21-.07.07-.14.14-.22.21l-.36-.43c.07-.11.14-.18.29-.29.18-.14.47-.29.82-.29.72,0,1.22.5,1.22,1.18v1.93h-.61v-.47h0ZM19.33,24.47h0l-.82.14c-.32.07-.47.21-.47.43s.18.39.47.39c.47,0,.82-.36.82-.86v-.11Z"/>
  <path class="cls-1" d="M22.19,21.5h1.69c.79,0,1.4.64,1.4,1.43s-.61,1.43-1.4,1.43h-1.04v1.58h-.65v-4.44h0ZM23.88,23.72h0c.39,0,.72-.36.72-.79s-.32-.79-.72-.79h-1.04v1.57h1.04Z"/>
  <path class="cls-1" d="M27.47,25.47h0c-.07.11-.14.18-.22.25-.18.14-.4.25-.72.25-.57,0-.97-.39-.97-.86,0-.5.36-.86.86-.97l1.04-.18c0-.32-.25-.57-.61-.57-.22,0-.39.11-.54.21-.07.07-.14.14-.22.21l-.36-.43c.07-.11.14-.18.29-.29.18-.14.47-.29.82-.29.72,0,1.22.5,1.22,1.18v1.93h-.61v-.47h0ZM27.47,24.47h0l-.82.14c-.32.07-.47.22-.47.43s.18.39.47.39c.47,0,.82-.36.82-.86v-.11Z"/>
  <path class="cls-1" d="M28.79,22.9h.57v.43c.07-.11.14-.18.22-.25.14-.11.36-.25.65-.25h.18v.68l-.11-.04h-.14c-.43,0-.79.36-.79.89v1.57h-.57v-3.04h0Z"/>
  <path class="cls-1" d="M32.95,25.47h0c-.07.11-.14.18-.25.25-.14.14-.39.25-.75.25-.72,0-1.33-.64-1.33-1.57s.61-1.57,1.33-1.57c.36,0,.61.14.75.25.11.07.18.18.25.25v-.43h.57v4.36h-.57v-1.79h0ZM32.95,24.4h0c0-.57-.4-.97-.86-.97-.5,0-.9.39-.9.97s.39,1,.9,1c.47,0,.86-.43.86-1"/>
  <path class="cls-1" d="M34.24,22.9h.61v1.75c0,.46.25.75.65.75.47,0,.79-.36.79-.86v-1.64h.61v3.04h-.61v-.47c-.07.11-.14.18-.22.25-.18.14-.4.25-.68.25-.65,0-1.15-.5-1.15-1.32v-1.75h0Z"/>
  <path class="cls-1" d="M40.16,25.4h0c-.07.11-.18.21-.32.29-.18.14-.5.29-.9.29-.86,0-1.51-.68-1.51-1.57s.65-1.57,1.47-1.57,1.4.64,1.4,1.5c0,.07,0,.14-.04.22v.07h-2.22c.07.43.43.79.9.79.29,0,.47-.11.61-.22.11-.07.18-.14.25-.21l.36.43h0ZM39.66,24.11h0c-.07-.43-.32-.72-.75-.72-.47,0-.72.29-.86.72h1.61Z"/>
  <path class="cls-1" d="M41.09,23.5h-.54v-.61h.32c.22,0,.29-.11.29-.36v-.64h.54v1h.65v.61h-.65v1.39c0,.32.14.5.43.5.07,0,.14-.04.22-.07l.11-.04v.61l-.14.04c-.07.04-.18.04-.32.04-.57,0-.9-.32-.9-1v-1.47h0Z"/>
</svg>