<?xml version="1.0" encoding="UTF-8"?>
<svg id="Livello_1" data-name="Livello 1" xmlns="http://www.w3.org/2000/svg" viewBox="0 0 40.81 17.33">
  <path d="M39.67,10.8c-.66.11-1.03.15-1.4.15-.87,0-2.12-.25-3.43-.7l-1.96-.66c-1.04-.35-2.58-.64-3.43-.64s-2.39.29-3.42.64l-1.96.66c-1.31.44-2.56.7-3.43.7s-2.12-.25-3.43-.7l-1.96-.66c-1.03-.35-2.58-.64-3.42-.64s-2.39.29-3.43.64l-1.96.66c-1.31.44-2.55.7-3.43.7-.36,0-.73-.04-1.4-.15l.08.14c.19.31.29.45.54.74.34.05.48.06.76.06.87,0,2.3-.27,3.45-.66l1.96-.66c1.33-.45,2.55-.7,3.43-.7.74,0,2.04.24,2.94.54l2.45.82c1.15.39,2.57.66,3.43.66s2.27-.27,3.43-.66l2.45-.82c.9-.3,2.19-.54,2.94-.54.88,0,2.09.25,3.42.7l1.96.66c1.14.38,2.57.66,3.44.66.27,0,.41-.01.76-.06.27-.32.36-.44.54-.74l.08-.14"/>
  <path d="M36.74,13.56l-2.85-.88c-1.28-.39-1.78-.53-2.46-.68-.72-.16-1.45-.25-1.97-.25-.83,0-2.4.29-3.42.64l-1.96.66c-1.32.45-2.55.7-3.44.7s-2.1-.24-3.44-.7l-1.96-.66c-1.01-.34-2.6-.64-3.43-.64-.52,0-1.25.09-1.97.25-.68.15-1.21.3-2.46.68l-2.85.88c.3.28.38.34.73.57l1.58-.48,1.31-.39.53-.16c1.39-.41,2.34-.59,3.14-.59.73,0,2.05.24,2.93.54l2.45.82c1.15.39,2.57.66,3.44.66s2.3-.27,3.44-.66l2.45-.82c.88-.3,2.21-.54,2.94-.54.81,0,1.74.18,3.14.59l.53.16,1.31.39,1.59.48c.34-.23.42-.3.73-.57"/>
  <path d="M33.55,15.41l-.18-.06-.49-.16c-1.42-.43-2.56-.64-3.43-.64-.73,0-1.96.21-2.93.5l-.49.14c-.25.08-.41.14-.49.16l-.49.17-.49.17-.49.17c-1.49.48-2.55.7-3.43.7-.76,0-1.88-.21-2.94-.54l-.49-.15-.49-.17-.49-.17-.49-.17-.49-.16c-1.42-.43-2.56-.64-3.42-.64-.73,0-1.96.21-2.94.5l-.49.14c-.35.11-.42.14-.67.23l.99.51.22-.07c1.15-.35,2.14-.54,2.89-.54.63,0,1.63.16,2.44.4l.49.14.49.16.49.16.49.17.49.16.49.16c1.47.45,2.55.66,3.43.66.75,0,1.9-.2,2.94-.51l.49-.15.49-.16.49-.16.49-.17.49-.16.49-.16c1.25-.37,2.17-.54,2.94-.54.76,0,1.74.18,2.89.54l.22.07.99-.51"/>
  <path d="M5.58,3.84v2.14c-.49.2-.98.31-1.47.31-1.26,0-2.14-.97-2.14-2.35,0-1.49,1.06-2.52,2.57-2.52.85,0,1.69.24,2.7.76V.75C5.95.22,5.31.07,4.35.07,1.69.07,0,1.57,0,3.92s1.64,3.72,4.11,3.72c1.1,0,2.41-.35,3.36-.91v-2.89h-1.9Z"/>
  <path d="M9.05.28v7.15h1.87V1.63h.81c1.05,0,1.53.34,1.53,1.09s-.53,1.2-1.46,1.2h-.41s-.21-.01-.21-.01l2.59,3.52h2.39l-2.38-2.88c.88-.4,1.35-1.11,1.35-2.04,0-1.52-.98-2.24-3.03-2.24h-3.05"/>
  <polygon points="26.42 .28 26.42 7.43 28.28 7.43 28.28 4.37 31.58 4.37 31.58 7.43 33.45 7.43 33.45 .28 31.58 .28 31.58 2.92 28.28 2.92 28.28 .28 26.42 .28"/>
  <polygon points="35.44 .28 35.44 7.43 40.81 7.43 40.81 6.03 37.31 6.03 37.31 4.33 39.88 4.33 39.88 2.98 37.31 2.98 37.31 1.68 40.4 1.68 40.4 .28 35.44 .28"/>
  <path d="M16.29,3.86c0,2.22,1.86,3.85,4.4,3.85s4.4-1.63,4.4-3.85-1.86-3.86-4.4-3.86-4.4,1.63-4.4,3.86M18.26,3.86c0-1.48,1-2.51,2.43-2.51s2.43,1.03,2.43,2.51-1,2.5-2.43,2.5-2.43-1.03-2.43-2.5h0Z"/>
</svg>