<?xml version="1.0" encoding="UTF-8"?>
<svg id="Livello_1" data-name="Livello 1" xmlns="http://www.w3.org/2000/svg" viewBox="0 0 74.83 13.2">
  <defs>
    <style>
      .cls-1 {
        fill: #1c1d1c;
      }
    </style>
  </defs>
  <path class="cls-1" d="M68.24,0c-3.64,0-6.6,2.95-6.6,6.6s2.95,6.6,6.6,6.6,6.6-2.95,6.6-6.6-2.95-6.6-6.6-6.6M68.24,11.28h0c-1.54,0-2.8-1.26-2.8-2.8s1.25-2.8,2.8-2.8c.77,0,1.46.31,1.96.81l1.34-1.34c-.85-.84-2.01-1.36-3.3-1.36-2.27,0-4.15,1.61-4.59,3.74h0c-.06-.3-.1-.62-.1-.94,0-2.59,2.1-4.69,4.69-4.69s4.68,2.1,4.68,4.69-2.1,4.69-4.68,4.69"/>
  <path class="cls-1" d="M5.85,2.85c.14.12.26.41.26.71,0,.32-.18.65-.39.65-.09,0-.18-.03-.25-.12-.39-.48-1.04-.94-1.77-.94-1.23,0-2.43.97-2.43,2.85,0,1.38.95,3.03,2.84,3.03,1.03,0,1.55-.46,1.96-1.06.15-.04.3.09.32.25-.6,1.31-1.93,1.8-2.95,1.8-.94,0-1.8-.3-2.42-.9-.62-.6-1.03-1.47-1.03-2.62,0-1.91,1.35-3.94,4.28-3.94.4,0,1.09.09,1.57.3"/>
  <path class="cls-1" d="M11.2,4.72c-.12,0-.12-.05-.12-.09.02-.59.92-1.56,1.96-1.56s1.36.63,1.36,1.13c0,.23-.06.3-.11.34-.14.11-.53.18-1.84.18h-1.25ZM14.63,5.24c.74,0,.99-.02,1.04-.12.03-.07.07-.21.07-.45,0-1.07-.99-2.12-2.51-2.12-2.12,0-3.55,1.83-3.55,4,0,.78.21,1.61.74,2.3.52.67,1.41,1.16,2.56,1.16.92,0,2.19-.44,2.77-1.64-.02-.16-.14-.27-.32-.21-.55.69-1.04.87-1.62.87-1.88,0-2.93-1.52-2.93-3.3,0-.44.02-.48.48-.48h3.27Z"/>
  <path class="cls-1" d="M23.54,2.86c.16.39.28.95.28,1.43-.07.12-.34.16-.42.05-.3-.78-.83-1.29-1.55-1.29s-1.13.44-1.13,1.08c0,.73.75,1.12,1.36,1.47.93.53,1.8,1.14,1.8,2.39,0,1.35-1.23,2.01-2.54,2.01-.83,0-1.45-.17-1.88-.52-.14-.34-.25-1.21-.21-1.79.09-.11.32-.12.4-.02.3.97.86,1.83,1.87,1.83.63,0,1.18-.37,1.18-1.14,0-.82-.71-1.26-1.36-1.63-1.03-.59-1.74-1.21-1.74-2.18,0-1.3,1.05-2.01,2.4-2.01.74,0,1.39.17,1.56.31"/>
  <path class="cls-1" d="M29.03,8.16c0-.69.51-.96,1.55-1.31.32-.11.62-.18.72-.18s.18.04.18.23l-.04,1.05c0,.37-.02.62-.23.83-.17.18-.72.44-1.07.44-.9,0-1.11-.76-1.11-1.06M29.13,6.86c-1.13.41-1.46.82-1.46,1.51,0,.5.21.94.54,1.24.3.27.72.41,1.24.41s.88-.23,1.27-.44c.35-.19.57-.35.69-.35.11,0,.21.14.28.25.3.39.72.55,1.15.55.86,0,1.48-.69,1.48-.78,0-.12-.06-.23-.12-.23-.06,0-.14.07-.23.12-.11.05-.26.11-.44.11-.68,0-.84-.73-.81-1.54l.11-3.08c.05-1.33-.57-2.06-1.83-2.06s-3.28,1.25-3.28,2.17c0,.16.08.25.25.25.26,0,.74-.12,1-.34.14-.11.16-.32.17-.6.04-.55.64-.8,1.13-.8,1.09,0,1.3.89,1.29,1.54l-.02.82c-.02.27-.03.43-.3.51l-2.1.76Z"/>
  <path class="cls-1" d="M38.54,4.69c0-.69,0-.78-.48-1.1l-.16-.11c-.07-.07-.07-.27.02-.32.41-.14,1.41-.6,1.76-.87.07,0,.16.03.19.12-.03.41-.03.67-.03.83,0,.11.07.19.19.19.75-.46,1.58-.9,2.48-.9,1.46,0,2.06,1.01,2.06,2.19v3.04c0,1.27.03,1.45.67,1.54l.39.05c.12.09.09.39-.03.44-.53-.03-1.04-.06-1.66-.06s-1.16.02-1.64.06c-.12-.05-.16-.35-.04-.44l.34-.05c.66-.11.67-.27.67-1.54v-2.64c0-1.01-.46-1.75-1.66-1.75-.67,0-1.26.28-1.5.62-.23.3-.26.55-.26,1.06v2.71c0,1.27.03,1.43.67,1.54l.32.05c.12.09.09.39-.03.44-.48-.03-.99-.06-1.61-.06s-1.16.02-1.66.06c-.12-.05-.16-.35-.03-.44l.37-.05c.65-.09.67-.27.67-1.54v-3.1Z"/>
  <path class="cls-1" d="M50.71,8.16c0-.69.51-.96,1.56-1.31.32-.11.62-.18.72-.18s.17.04.17.23l-.03,1.05c0,.37-.02.62-.23.83-.17.18-.72.44-1.08.44-.9,0-1.11-.76-1.11-1.06M50.81,6.86c-1.13.41-1.47.82-1.47,1.51,0,.5.21.94.55,1.24.3.27.72.41,1.23.41s.88-.23,1.27-.44c.35-.19.57-.35.69-.35.11,0,.21.14.28.25.3.39.72.55,1.14.55.86,0,1.49-.69,1.49-.78,0-.12-.06-.23-.12-.23-.06,0-.15.07-.23.12-.11.05-.27.11-.44.11-.69,0-.85-.73-.81-1.54l.11-3.08c.06-1.33-.56-2.06-1.83-2.06s-3.28,1.25-3.28,2.17c0,.16.09.25.24.25.27,0,.75-.12,1.01-.34.14-.11.16-.32.17-.6.03-.55.63-.8,1.13-.8,1.09,0,1.31.89,1.29,1.54l-.02.82c-.02.27-.04.43-.3.51l-2.1.76Z"/>
</svg>