<svg width="164" height="12" viewBox="0 0 164 12" fill="none" xmlns="http://www.w3.org/2000/svg">
<path d="M7.86971 0V8.91782L1.96299 0H0V11.9867H1.96299V3.04663L7.86971 11.9867H9.8327V0H7.86971Z" fill="#AEADAD" fill-opacity="0.5"/>
<path d="M25.501 0V11.9867H32.1138V10.3834H27.464V6.71501H31.5987V5.1162H27.464V1.59881H32.1138V0H25.501Z" fill="#AEADAD" fill-opacity="0.5"/>
<path d="M61.0926 0.0178223L58.5966 9.71285L56.1007 0.0178223H53.8979L51.211 9.7617L48.7328 0.0178223H46.6455L50.0385 12L52.2458 11.9867L54.9149 2.92677L57.4286 11.9867H59.6492L63.1977 0.0178223H61.0926Z" fill="#AEADAD" fill-opacity="0.5"/>
<path d="M92.3672 0V11.9867H98.9801V10.3834H94.3302V6.71501H98.4604V5.1162H94.3302V1.59881H98.9801V0H92.3672Z" fill="#AEADAD" fill-opacity="0.5"/>
<path d="M121.604 9.24652C122.35 8.48709 122.723 7.42121 122.723 6.04446C122.723 4.6677 122.35 3.57074 121.604 2.7891C120.858 2.00746 119.783 1.61664 118.384 1.61664H116.439V10.3835H118.384C119.783 10.3835 120.858 10.006 121.604 9.24652ZM121.732 0.750612C122.692 1.23914 123.433 1.94084 123.953 2.85127C124.477 3.76615 124.735 4.82758 124.735 6.04446C124.735 7.26133 124.473 8.31833 123.953 9.211C123.429 10.1081 122.692 10.792 121.732 11.2672C120.773 11.7424 119.658 11.9823 118.384 11.9823H114.476V0.0178223H118.384C119.658 0.0178223 120.773 0.262085 121.732 0.750612Z" fill="#AEADAD" fill-opacity="0.5"/>
<path d="M141.734 0.0178223H139.771V11.9867H141.734V0.0178223Z" fill="#AEADAD" fill-opacity="0.5"/>
<path d="M157.403 0.0178223V11.9867H163.412V10.4012H159.366V0.0178223H157.403Z" fill="#AEADAD" fill-opacity="0.5"/>
<path d="M79.9664 4.36108H76.7021V7.62533H79.9664V4.36108Z" fill="#AEADAD" fill-opacity="0.5"/>
</svg>
