<svg width="273" height="21" viewBox="0 0 273 21" fill="none" xmlns="http://www.w3.org/2000/svg">
<path d="M13.1473 0V14.8983L3.27942 0H0V20.0252H3.27942V5.08977L13.1473 20.0252H16.4268V0H13.1473Z" fill="white"/>
<path d="M42.6016 0V20.0252H53.6492V17.3468H45.881V11.2183H52.7885V8.54726H45.881V2.67102H53.6492V0H42.6016Z" fill="white"/>
<path d="M102.062 0.029541L97.8926 16.2263L93.7229 0.029541H90.0428L85.554 16.3079L81.4139 0.029541H77.9268L83.5953 20.0473L87.2827 20.0251L91.7419 4.88931L95.9413 20.0251H99.651L105.579 0.029541H102.062Z" fill="white"/>
<path d="M154.311 0V20.0252H165.358V17.3468H157.59V11.2183H164.49V8.54726H157.59V2.67102H165.358V0H154.311Z" fill="white"/>
<path d="M203.152 15.4472C204.399 14.1785 205.022 12.3978 205.022 10.0978C205.022 7.79775 204.399 5.96514 203.152 4.65931C201.906 3.35347 200.11 2.70056 197.773 2.70056H194.524V17.3466H197.773C200.11 17.3466 201.906 16.716 203.152 15.4472ZM203.368 1.25376C204.97 2.0699 206.209 3.24218 207.077 4.76318C207.953 6.29159 208.383 8.06485 208.383 10.0978C208.383 12.1307 207.945 13.8966 207.077 15.3879C206.202 16.8866 204.97 18.0292 203.368 18.8231C201.765 19.617 199.903 20.0177 197.773 20.0177H191.244V0.029541H197.773C199.903 0.029541 201.765 0.437613 203.368 1.25376Z" fill="white"/>
<path d="M236.785 0.029541H233.506V20.0251H236.785V0.029541Z" fill="white"/>
<path d="M262.962 0.029541V20.0251H273V17.3763H266.241V0.029541H262.962Z" fill="white"/>
<path d="M133.595 7.28589H128.142V12.7392H133.595V7.28589Z" fill="white"/>
</svg>
