<?xml version="1.0" encoding="UTF-8"?>
<svg id="Livello_1" data-name="Livello 1" xmlns="http://www.w3.org/2000/svg" viewBox="0 0 47.34 14.49">
  <defs>
    <style>
      .cls-1 {
        fill: #1c1d1c;
      }
    </style>
  </defs>
  <path class="cls-1" d="M0,10.33c0-2.38,1.79-4.11,4.14-4.11,1.15,0,1.92.28,2.43.69v.95c-.61-.49-1.38-.87-2.43-.87-1.97,0-3.37,1.38-3.37,3.35s1.38,3.37,3.37,3.37c1.07,0,1.87-.41,2.43-.92v1c-.61.43-1.28.72-2.43.72-2.38-.05-4.14-1.79-4.14-4.17"/>
  <path class="cls-1" d="M8.03,10.33c0,1.87,1.48,3.35,3.35,3.35s3.35-1.48,3.35-3.35-1.48-3.35-3.35-3.35-3.35,1.48-3.35,3.35M11.37,14.44c-2.28,0-4.12-1.84-4.12-4.11s1.84-4.12,4.12-4.12c1.3,0,2.43.59,3.19,1.51v-1.38h.79v7.98h-.79v-1.38c-.74.92-1.89,1.51-3.19,1.51"/>
  <rect class="cls-1" x="16.97" y="0" width=".77" height="14.31"/>
  <path class="cls-1" d="M26.25,9.38c-.2-.92-1.15-2.4-3.22-2.4s-2.99,1.46-3.25,2.4h6.47ZM25.97,11.99l.72.33c-.54,1.07-1.66,2.12-3.68,2.12-2.43,0-4.14-1.71-4.14-4.14s1.79-4.09,4.14-4.09c2.51,0,4.12,1.76,4.12,3.91h-7.46c0,2.22,1.38,3.53,3.37,3.53,1.56.03,2.45-.74,2.94-1.66"/>
  <path class="cls-1" d="M28.93,14.29h-.79v-7.97h.79v7.97ZM29.19,4.24c0,.36-.28.64-.64.64s-.64-.28-.64-.64.28-.64.64-.64.64.28.64.64"/>
  <path class="cls-1" d="M30.93,10.33c0,1.87,1.48,3.35,3.35,3.35s3.35-1.48,3.35-3.35-1.48-3.35-3.35-3.35-3.35,1.48-3.35,3.35M34.28,14.44c-2.28,0-4.12-1.84-4.12-4.11s1.84-4.12,4.12-4.12c1.3,0,2.5.59,3.25,1.56V0h.79v14.31h-.79v-1.43c-.77.92-1.92,1.56-3.25,1.56"/>
  <path class="cls-1" d="M39.87,10.33c0,1.87,1.48,3.35,3.35,3.35s3.35-1.48,3.35-3.35-1.48-3.35-3.35-3.35-3.35,1.48-3.35,3.35M47.34,10.33c0,2.28-1.84,4.11-4.12,4.11s-4.12-1.84-4.12-4.11,1.84-4.11,4.12-4.11c2.27-.03,4.12,1.82,4.12,4.11"/>
</svg>