<?xml version="1.0" encoding="UTF-8"?>
<svg id="Livello_1" data-name="Livello 1" xmlns="http://www.w3.org/2000/svg" viewBox="0 0 32.71 32.71">
  <defs>
    <style>
      .cls-1 {
        fill: #fff;
      }

      .cls-2 {
        fill: #1c1d1c;
      }
    </style>
  </defs>
  <path class="cls-2" d="M16.36,0C7.32,0,0,7.33,0,16.36s7.32,16.35,16.36,16.35,16.36-7.32,16.36-16.35S25.39,0,16.36,0"/>
  <path class="cls-1" d="M25.34,15.89l1.03,1.04,1.03-1.03.96.95v-2.58h-3.99v2.59l.97-.96h0ZM26.38,14.87l.78.78-.26.26-.52-.52-.52.52-.26-.26.78-.78Z"/>
  <polygon class="cls-1" points="27.41 16.42 26.37 17.45 25.34 16.42 24.37 17.38 24.37 18.25 28.37 18.25 28.37 17.38 27.41 16.42"/>
  <path class="cls-1" d="M6.17,15.53c0,.33-.24.57-.56.57h-.34v-1.08h.35c.33,0,.55.22.55.51M7.54,18.26c-.59-1.02-.96-1.67-1.18-1.8.35-.17.71-.52.71-1.03,0-.62-.39-1.16-1.48-1.16h-1.24v3.99h.93v-1.49h.28c.13.05.35.45.94,1.49h1.05,0Z"/>
  <path class="cls-1" d="M9.72,16.57h-.75l.24-.64c.07-.18.12-.35.14-.48h0c.03.13.08.3.15.49l.22.63ZM11.37,18.26l-1.65-4h-.72l-1.57,4h.91l.36-.95h1.29l.38.95h1Z"/>
  <path class="cls-1" d="M13.23,18.31c-1.29,0-2.03-.91-2.03-2.02s.92-2.07,2.3-2.07c.53,0,.87.08,1.22.19l-.02.82c-.35-.18-.68-.27-1.06-.27-1.08,0-1.43.63-1.43,1.28,0,.7.47,1.35,1.26,1.35.19,0,.4-.02.54-.08v-1.32h.92v1.72c-.46.25-1.03.41-1.71.41"/>
  <path class="cls-1" d="M18.33,18.26l-1.66-2.1c-.13-.16-.24-.32-.38-.49h-.01c.02.13.02.4.02.57v2.03h-.92v-3.99h.93l1.6,2.02c.13.17.24.31.36.48h.01c-.01-.21-.01-.49-.01-.65v-1.85h.92v3.99h-.86Z"/>
  <path class="cls-1" d="M22.69,16.28c0,.84-.48,1.31-1.1,1.31s-1.11-.47-1.11-1.31.48-1.32,1.11-1.32,1.1.47,1.1,1.32M23.67,16.25c0-.56-.17-1.05-.5-1.41-.36-.39-.91-.61-1.57-.61-.62,0-1.14.22-1.5.59-.38.38-.58.91-.58,1.49s.22,1.15.64,1.52c.36.31.84.49,1.45.49s1.15-.23,1.53-.61c.36-.36.54-.89.54-1.45"/>
</svg>