<svg width="137" height="10" viewBox="0 0 137 10" fill="none" xmlns="http://www.w3.org/2000/svg">
<path d="M6.55811 0V7.43154L1.63583 0H0V9.9889H1.63583V2.53886L6.55811 9.9889H8.19394V0H6.55811Z" fill="#0F3930" fill-opacity="0.7"/>
<path d="M21.2509 0V9.9889H26.7617V8.65286H22.8867V5.59586H26.3323V4.26351H22.8867V1.33235H26.7617V0H21.2509Z" fill="#0F3930" fill-opacity="0.7"/>
<path d="M50.9105 0.0148926L48.8305 8.0941L46.7506 0.0148926H44.9149L42.6758 8.13481L40.6107 0.0148926H38.8712L41.6988 10.0001L43.5381 9.98899L45.7624 2.43902L47.8572 9.98899H49.7076L52.6647 0.0148926H50.9105Z" fill="#0F3930" fill-opacity="0.7"/>
<path d="M76.9727 0V9.9889H82.4834V8.65286H78.6085V5.59586H82.0504V4.26351H78.6085V1.33235H82.4834V0H76.9727Z" fill="#0F3930" fill-opacity="0.7"/>
<path d="M101.336 7.7055C101.958 7.07263 102.269 6.1844 102.269 5.0371C102.269 3.8898 101.958 2.97566 101.336 2.32429C100.714 1.67292 99.8187 1.34724 98.6529 1.34724H97.0319V8.65294H98.6529C99.8187 8.65294 100.714 8.33836 101.336 7.7055ZM101.443 0.625552C102.243 1.03266 102.861 1.61741 103.294 2.37611C103.731 3.13851 103.945 4.02304 103.945 5.0371C103.945 6.05117 103.727 6.932 103.294 7.67589C102.857 8.42348 102.243 8.99343 101.443 9.38944C100.644 9.78544 99.7151 9.98529 98.6529 9.98529H95.3961V0.0148926H98.6529C99.7151 0.0148926 100.644 0.218446 101.443 0.625552Z" fill="#0F3930" fill-opacity="0.7"/>
<path d="M118.113 0.0148926H116.477V9.98899H118.113V0.0148926Z" fill="#0F3930" fill-opacity="0.7"/>
<path d="M131.17 0.0148926V9.98899H136.177V8.66775H132.805V0.0148926H131.17Z" fill="#0F3930" fill-opacity="0.7"/>
<path d="M66.6396 3.63428H63.9194V6.35449H66.6396V3.63428Z" fill="#0F3930" fill-opacity="0.7"/>
</svg>
