<svg width="273" height="21" viewBox="0 0 273 21" fill="none" xmlns="http://www.w3.org/2000/svg">
<path d="M13.1473 0V14.8983L3.27941 0H0V20.0252H3.27941V5.08977L13.1473 20.0252H16.4267V0H13.1473Z" fill="#0F3930"/>
<path d="M42.6027 0V20.0252H53.6503V17.3468H45.8821V11.2183H52.7896V8.54725H45.8821V2.67102H53.6503V0H42.6027Z" fill="#0F3930"/>
<path d="M102.062 0.0297852L97.8927 16.2265L93.7229 0.0297852H90.0429L85.5541 16.3081L81.414 0.0297852H77.9268L83.5953 20.0476L87.2828 20.0253L91.7419 4.88955L95.9414 20.0253H99.6511L105.579 0.0297852H102.062Z" fill="#0F3930"/>
<path d="M154.31 0V20.0252H165.358V17.3468H157.59V11.2183H164.49V8.54725H157.59V2.67102H165.358V0H154.31Z" fill="#0F3930"/>
<path d="M203.153 15.4475C204.399 14.1787 205.023 12.3981 205.023 10.098C205.023 7.79799 204.399 5.96537 203.153 4.65954C201.906 3.35372 200.111 2.7008 197.774 2.7008H194.524V17.3469H197.774C200.111 17.3469 201.906 16.7162 203.153 15.4475ZM203.368 1.254C204.971 2.07014 206.21 3.24242 207.078 4.76342C207.953 6.29183 208.384 8.06509 208.384 10.098C208.384 12.131 207.946 13.8968 207.078 15.3881C206.202 16.8869 204.971 18.0295 203.368 18.8233C201.766 19.6172 199.903 20.0179 197.774 20.0179H191.245V0.0297852H197.774C199.903 0.0297852 201.766 0.437857 203.368 1.254Z" fill="#0F3930"/>
<path d="M236.785 0.0297852H233.506V20.0253H236.785V0.0297852Z" fill="#0F3930"/>
<path d="M262.961 0.0297852V20.0253H273V17.3765H266.241V0.0297852H262.961Z" fill="#0F3930"/>
<path d="M133.595 7.28589H128.142V12.7392H133.595V7.28589Z" fill="#0F3930"/>
</svg>
