<svg width="516" height="262" viewBox="0 0 516 262" fill="none" xmlns="http://www.w3.org/2000/svg">
<g clip-path="url(#clip0_5_79)">
<path d="M237.799 48.2881H207.872V78.3396H237.799V48.2881Z" fill="#D4F7C7"/>
<path d="M278.201 0V42.5706L237.799 9.13937V48.0908L274.345 78.3536H308.142V0H278.201Z" fill="#D4F7C7"/>
<path d="M24.8499 155.89V184.182L6.19845 155.89H0V193.898H6.19845V165.551L24.8499 193.898H31.0483V155.89H24.8499Z" fill="#D4F7C7"/>
<path d="M80.5238 155.89V193.898H101.405V188.815H86.7222V177.183H99.7782V172.113H86.7222V160.974H101.405V155.89H80.5238Z" fill="#D4F7C7"/>
<path d="M192.909 155.947L185.028 186.688L177.147 155.947H170.191L161.707 186.857L153.881 155.947H147.29L158.004 193.955L164.974 193.898L173.402 165.171L181.34 193.898H188.352L199.556 155.947H192.909Z" fill="#D4F7C7"/>
<path d="M291.664 155.89V193.898H312.545V188.815H297.862V177.183H310.904V172.113H297.862V160.974H312.545V155.89H291.664Z" fill="#D4F7C7"/>
<path d="M383.981 185.21C386.337 182.802 387.515 179.422 387.515 175.056C387.515 170.691 386.337 167.212 383.981 164.734C381.625 162.256 378.232 161.016 373.814 161.016H367.672V188.815H373.814C378.232 188.815 381.625 187.618 383.981 185.21ZM384.388 158.27C387.417 159.819 389.759 162.044 391.4 164.931C393.055 167.832 393.868 171.198 393.868 175.056C393.868 178.915 393.041 182.266 391.4 185.097C389.745 187.942 387.417 190.11 384.388 191.617C381.359 193.124 377.839 193.884 373.814 193.884H361.474V155.933H373.814C377.839 155.933 381.359 156.707 384.388 158.256" fill="#D4F7C7"/>
<path d="M447.551 155.947H441.352V193.898H447.551V155.947Z" fill="#D4F7C7"/>
<path d="M497.026 155.947V193.898H516V188.871H503.224V155.947H497.026Z" fill="#D4F7C7"/>
<path d="M252.51 169.719H242.202V180.069H252.51V169.719Z" fill="#D4F7C7"/>
<path d="M50.9198 253.649C51.4387 254.072 51.8594 254.579 52.1679 255.198C52.4765 255.818 52.6307 256.466 52.6307 257.17C52.6307 258.057 52.4063 258.846 51.9576 259.55C51.5088 260.254 50.8637 260.817 50.0083 261.226C49.1529 261.634 48.1432 261.831 46.9932 261.831H40.5283V244.454H46.7408C47.9188 244.454 48.9145 244.651 49.7419 245.045C50.5693 245.439 51.1863 245.96 51.607 246.622C52.0137 247.284 52.224 248.031 52.224 248.861C52.224 249.889 51.9436 250.748 51.3966 251.424C50.8357 252.1 50.1065 252.579 49.1949 252.889C49.826 252.987 50.401 253.241 50.9198 253.663V253.649ZM42.7861 251.945H46.5865C47.6383 251.945 48.4657 251.692 49.0407 251.199C49.6156 250.706 49.9101 250.016 49.9101 249.129C49.9101 248.242 49.6156 247.552 49.0407 247.059C48.4657 246.566 47.6243 246.312 46.5304 246.312H42.7861V251.945ZM49.4193 259.155C50.0504 258.62 50.3589 257.888 50.3589 256.93C50.3589 255.973 50.0223 255.212 49.3632 254.649C48.7041 254.086 47.8206 253.818 46.6987 253.818H42.7721V259.958H46.7688C47.8907 259.958 48.7742 259.691 49.4053 259.155H49.4193Z" fill="#D4F7C7"/>
<path d="M63.4289 244.439V255.438C63.4289 256.987 63.8076 258.127 64.5648 258.874C65.3221 259.62 66.3599 260 67.7061 260C69.0524 260 70.0761 259.62 70.8194 258.874C71.5626 258.127 71.9553 256.973 71.9553 255.438V244.439H74.2131V255.41C74.2131 256.86 73.9186 258.071 73.3436 259.057C72.7687 260.043 71.9834 260.775 71.0017 261.268C70.02 261.747 68.9122 261.986 67.6921 261.986C66.4721 261.986 65.3642 261.747 64.3825 261.268C63.4009 260.789 62.6156 260.043 62.0406 259.057C61.4656 258.071 61.1852 256.846 61.1852 255.41V244.439H63.443H63.4289Z" fill="#D4F7C7"/>
<path d="M85.6985 244.439V261.817H83.4407V244.439H85.6985Z" fill="#D4F7C7"/>
<path d="M97.268 259.986H103.326V261.831H95.0102V244.454H97.268V259.986Z" fill="#D4F7C7"/>
<path d="M121.501 245.51C122.889 246.214 123.941 247.228 124.684 248.537C125.427 249.847 125.792 251.396 125.792 253.171C125.792 254.945 125.427 256.494 124.684 257.804C123.941 259.113 122.889 260.113 121.501 260.789C120.113 261.479 118.486 261.831 116.593 261.831H111.208V244.454H116.593C118.486 244.454 120.113 244.806 121.501 245.51ZM121.711 258.17C122.889 256.987 123.478 255.311 123.478 253.171C123.478 251.03 122.889 249.326 121.697 248.101C120.519 246.89 118.808 246.284 116.593 246.284H113.465V259.958H116.593C118.822 259.958 120.533 259.367 121.711 258.17Z" fill="#D4F7C7"/>
<path d="M136.492 244.439V261.817H134.234V244.439H136.492Z" fill="#D4F7C7"/>
<path d="M159.421 261.831H157.163L148.076 247.988V261.831H145.818V244.425H148.076L157.163 258.24V244.425H159.421V261.831Z" fill="#D4F7C7"/>
<path d="M181.845 249.481C181.368 248.467 180.667 247.678 179.755 247.129C178.844 246.58 177.778 246.298 176.572 246.298C175.366 246.298 174.272 246.58 173.304 247.129C172.337 247.692 171.579 248.481 171.018 249.523C170.457 250.565 170.191 251.762 170.191 253.128C170.191 254.494 170.471 255.691 171.018 256.719C171.579 257.747 172.337 258.55 173.304 259.099C174.272 259.662 175.366 259.93 176.572 259.93C178.269 259.93 179.657 259.423 180.751 258.409C181.845 257.395 182.476 256.029 182.658 254.297H175.758V252.452H185.07V254.198C184.944 255.635 184.495 256.944 183.724 258.127C182.952 259.31 181.957 260.254 180.723 260.944C179.475 261.634 178.1 261.986 176.572 261.986C174.959 261.986 173.501 261.606 172.182 260.845C170.864 260.085 169.812 259.043 169.041 257.691C168.27 256.339 167.891 254.818 167.891 253.128C167.891 251.438 168.27 249.903 169.041 248.551C169.812 247.199 170.864 246.143 172.182 245.383C173.501 244.622 174.973 244.242 176.572 244.242C178.409 244.242 180.036 244.707 181.452 245.608C182.868 246.509 183.892 247.805 184.551 249.481H181.845Z" fill="#D4F7C7"/>
<path d="M195.938 261.394C195.041 260.986 194.326 260.423 193.821 259.69C193.316 258.958 193.049 258.127 193.021 257.184H195.433C195.518 258.001 195.854 258.691 196.443 259.24C197.032 259.789 197.888 260.071 199.01 260.071C200.131 260.071 200.931 259.803 201.562 259.254C202.179 258.719 202.487 258.015 202.487 257.17C202.487 256.508 202.305 255.959 201.94 255.55C201.576 255.142 201.127 254.818 200.58 254.607C200.033 254.395 199.29 254.156 198.364 253.903C197.229 253.607 196.303 253.311 195.616 253.001C194.929 252.706 194.34 252.227 193.849 251.593C193.358 250.959 193.12 250.086 193.12 249.016C193.12 248.073 193.358 247.228 193.835 246.495C194.312 245.763 194.985 245.2 195.854 244.791C196.724 244.397 197.719 244.2 198.841 244.2C200.468 244.2 201.786 244.608 202.824 245.425C203.862 246.242 204.437 247.326 204.577 248.664H202.095C202.011 248.002 201.66 247.411 201.057 246.904C200.44 246.397 199.627 246.143 198.617 246.143C197.677 246.143 196.906 246.383 196.303 246.876C195.714 247.368 195.405 248.044 195.405 248.932C195.405 249.565 195.588 250.072 195.938 250.481C196.289 250.875 196.738 251.185 197.257 251.396C197.775 251.607 198.505 251.847 199.458 252.1C200.594 252.41 201.52 252.734 202.221 253.029C202.922 253.339 203.511 253.818 204.016 254.452C204.507 255.1 204.759 255.959 204.759 257.057C204.759 257.902 204.535 258.705 204.086 259.451C203.637 260.197 202.978 260.803 202.095 261.268C201.211 261.732 200.187 261.972 198.995 261.972C197.803 261.972 196.836 261.775 195.924 261.366L195.938 261.394Z" fill="#D4F7C7"/>
<path d="M236.312 244.439V246.284H231.586V261.817H229.329V246.284H224.589V244.439H236.312Z" fill="#D4F7C7"/>
<path d="M257.895 244.439V261.817H255.637V253.931H246.816V261.817H244.558V244.439H246.816V252.072H255.637V244.439H257.895Z" fill="#D4F7C7"/>
<path d="M277.444 257.958H269.899L268.511 261.831H266.127L272.381 244.552H274.99L281.23 261.831H278.846L277.458 257.958H277.444ZM276.799 256.114L273.671 247.34L270.544 256.114H276.799Z" fill="#D4F7C7"/>
<path d="M300.064 244.439V246.284H295.338V261.817H293.08V246.284H288.34V244.439H300.064Z" fill="#D4F7C7"/>
<path d="M322.67 244.439V261.817H320.412V244.439H322.67Z" fill="#D4F7C7"/>
<path d="M345.585 261.831H343.327L334.239 247.988V261.831H331.982V244.425H334.239L343.327 258.24V244.425H345.585V261.831Z" fill="#D4F7C7"/>
<path d="M368.513 261.831H366.256L357.168 247.988V261.831H354.91V244.425H357.168L366.256 258.24V244.425H368.513V261.831Z" fill="#D4F7C7"/>
<path d="M381.275 260.873C379.957 260.113 378.905 259.057 378.134 257.705C377.362 256.353 376.984 254.818 376.984 253.128C376.984 251.438 377.362 249.903 378.134 248.551C378.905 247.199 379.957 246.143 381.275 245.383C382.593 244.622 384.066 244.242 385.664 244.242C387.263 244.242 388.763 244.622 390.082 245.383C391.4 246.143 392.452 247.185 393.209 248.537C393.966 249.889 394.345 251.41 394.345 253.128C394.345 254.846 393.966 256.367 393.209 257.719C392.452 259.071 391.4 260.113 390.082 260.873C388.749 261.634 387.277 262.014 385.664 262.014C384.052 262.014 382.593 261.634 381.275 260.873ZM388.946 259.183C389.913 258.62 390.671 257.817 391.232 256.761C391.793 255.719 392.059 254.494 392.059 253.128C392.059 251.762 391.779 250.509 391.232 249.481C390.671 248.439 389.913 247.636 388.96 247.073C388.006 246.509 386.912 246.228 385.678 246.228C384.444 246.228 383.364 246.509 382.397 247.073C381.443 247.636 380.686 248.439 380.125 249.481C379.564 250.523 379.298 251.734 379.298 253.128C379.298 254.522 379.578 255.719 380.125 256.761C380.686 257.803 381.443 258.62 382.411 259.183C383.378 259.747 384.472 260.028 385.678 260.028C386.884 260.028 387.978 259.747 388.946 259.183Z" fill="#D4F7C7"/>
<path d="M417.119 244.439L410.584 261.817H407.976L401.441 244.439H403.853L409.294 259.423L414.735 244.439H417.119Z" fill="#D4F7C7"/>
<path d="M435.294 257.958H427.749L426.361 261.831H423.977L430.231 244.552H432.84L439.08 261.831H436.696L435.308 257.958H435.294ZM434.649 256.114L431.522 247.34L428.394 256.114H434.649Z" fill="#D4F7C7"/>
<path d="M457.928 244.439V246.284H453.202V261.817H450.944V246.284H446.204V244.439H457.928Z" fill="#D4F7C7"/>
<path d="M468.432 246.284V252.1H474.742V253.973H468.432V259.958H475.486V261.831H466.174V244.425H475.486V246.298H468.432V246.284Z" fill="#D4F7C7"/>
</g>
<defs>
<clipPath id="clip0_5_79">
<rect width="516" height="262" fill="white"/>
</clipPath>
</defs>
</svg>
