<?xml version="1.0" encoding="UTF-8"?><svg id="Livello_1" xmlns="http://www.w3.org/2000/svg" viewBox="0 0 32.7119751 32.7109985"><defs><style>.cls-1{fill:#fff;}.cls-1,.cls-2{stroke-width:0px;}.cls-2{fill:#1c1c1c;}</style></defs><path class="cls-2" d="M16.3560181,0C7.3250122,0,0,7.3250046,0,16.3560028s7.3250122,16.3549957,16.3560181,16.3549957c9.0309448,0,16.355957-7.3239975,16.355957-16.3549957S25.3909912,0,16.3560181,0"/><path class="cls-1" d="M25.3413696,15.8934708l1.0310059,1.0390015,1.0339966-1.0349731.9570312.947998v-2.5800171h-3.9940186v2.5930176l.9680176-.9650269h.0039673ZM26.3764038,14.8674698l.7789917.7790527-.2600098.2599487-.5189819-.5199585-.519043.5199585-.2639771-.2639771.78302-.7750244Z"/><polygon class="cls-1" points="27.4105835 16.4175186 26.371582 17.4524918 25.3415527 16.4175186 24.3725586 17.3774796 24.3725586 18.251503 28.3665771 18.251503 28.3665771 17.3774796 27.4105835 16.4175186"/><path class="cls-1" d="M8.9943237,14.2537003l-1.5199585,3.881958c-.5419922-.9431763-.8962402-1.5545044-1.1057129-1.6769409.3510132-.1690063.7090454-.5200195.7090454-1.0270386,0-.6220093-.3870239-1.1619873-1.4840088-1.1619873h-1.2440186v3.9860229h.927002v-1.4920044h.2799683c.132019.0529785.3460083.4530029.9440308,1.4920044h1.8336792l.3629761-.947998h1.2940063l.3840332.947998h.9970093l-1.6530151-4.0020142h-.7250366ZM6.1706543,15.5306778c0,.3260498-.2349854.5690308-.5559692.5690308h-.3380127v-1.0759888h.3460083c.3339844,0,.5529785.2189941.5529785.506958h-.0050049ZM8.9613647,16.5696793l.242981-.6430054c.065979-.177002.1190186-.3459473.1439819-.4779663h.0040283c.0249634.1279907.0789795.2969971.1450195.4909668l.2179565.6300049h-.7539673Z"/><path class="cls-1" d="M14.0106812,17.501503c-.1400146.0540161-.3460083.0780029-.539978.0780029-.7910156,0-1.257019-.6470337-1.257019-1.3480225,0-.6430054.3590088-1.2769775,1.434021-1.2769775.3800049,0,.7179565.0939941,1.0639648.2719727l.0160522-.815979c-.3540039-.1079712-.6920166-.1859741-1.2240601-.1859741-1.3849487,0-2.3039551.9649658-2.3039551,2.0689697,0,1.1049805.7379761,2.0200195,2.0280151,2.0200195.6799927,0,1.2409668-.1650391,1.7059937-.4119873v-1.7190552h-.9230347v1.3190308Z"/><path class="cls-1" d="M18.2730713,16.1208267c0,.1569824,0,.4449463.0130005.651001h-.0130005c-.1149902-.1690063-.230957-.3170166-.3579712-.4820557l-1.6040039-2.0159912h-.927002v3.9860229h.9190063v-2.0280151c0-.1690063,0-.4370117-.0159912-.5689697h.0119629c.132019.1729736.2470093.3299561.375.4949951l1.6570435,2.0979614.0039673.0040283h.8580322v-3.9860229h-.9200439v1.8470459Z"/><path class="cls-1" d="M23.1694336,14.8384781c-.3629761-.3869629-.9069824-.6099854-1.5739746-.6099854-.6229858,0-1.1380005.2230225-1.5009766.5939941-.375.3790283-.5810547.9069824-.5810547,1.4920044s.2230225,1.1500244.6350098,1.5170288c.3580322.3129883.8410034.4859619,1.4470215.4859619.6339722,0,1.1539917-.230957,1.5289917-.6099854.3629761-.3629761.5440063-.8900146.5440063-1.4509888l.0040283-.0040283c0-.5559692-.1650391-1.0509644-.5030518-1.4140015ZM21.5864258,17.5925064c-.617981,0-1.1129761-.4700317-1.1129761-1.3110352s.4830322-1.3150024,1.1129761-1.3150024c.6310425,0,1.1010132.473999,1.1010132,1.3150024s-.4819946,1.3110352-1.1010132,1.3110352Z"/></svg>