<svg width="104" height="103" viewBox="0 0 104 103" fill="none" xmlns="http://www.w3.org/2000/svg">
<path d="M50.5503 67.4827C58.5769 67.4827 65.0838 60.9758 65.0838 52.9492C65.0838 44.9226 58.5769 38.4158 50.5503 38.4158C42.5237 38.4158 36.0168 44.9226 36.0168 52.9492C36.0168 60.9758 42.5237 67.4827 50.5503 67.4827Z" stroke="#D4F7C7" stroke-width="2" stroke-linecap="round" stroke-linejoin="round"/>
<path d="M91.7511 28.3641C98.2397 25.6764 101.321 18.2374 98.6333 11.7488C95.9456 5.2601 88.5067 2.1788 82.0181 4.8665C75.5294 7.55419 72.4481 14.9931 75.1358 21.4818C77.8235 27.9704 85.2624 31.0517 91.7511 28.3641Z" stroke="#D4F7C7" stroke-width="2" stroke-linecap="round" stroke-linejoin="round"/>
<path d="M41.2618 23.2099C45.9072 21.316 48.1377 16.0149 46.2439 11.3695C44.35 6.72405 39.0489 4.49348 34.4035 6.38735C29.758 8.28121 27.5275 13.5824 29.4213 18.2278C31.3152 22.8732 36.6163 25.1038 41.2618 23.2099Z" stroke="#D4F7C7" stroke-width="2" stroke-linecap="round" stroke-linejoin="round"/>
<path d="M8.76673 60.216C12.78 60.216 16.0335 56.9625 16.0335 52.9492C16.0335 48.9359 12.78 45.6825 8.76673 45.6825C4.75343 45.6825 1.5 48.9359 1.5 52.9492C1.5 56.9625 4.75343 60.216 8.76673 60.216Z" stroke="#D4F7C7" stroke-width="2" stroke-linecap="round" stroke-linejoin="round"/>
<path d="M30.5671 102C36.5871 102 41.4672 97.1195 41.4672 91.0996C41.4672 85.0796 36.5871 80.1995 30.5671 80.1995C24.5471 80.1995 19.667 85.0796 19.667 91.0996C19.667 97.1195 24.5471 102 30.5671 102Z" stroke="#D4F7C7" stroke-width="2" stroke-linecap="round" stroke-linejoin="round"/>
<path d="M88.7009 87.4662C94.7208 87.4662 99.601 82.5861 99.601 76.5661C99.601 70.5462 94.7208 65.666 88.7009 65.666C82.6809 65.666 77.8008 70.5462 77.8008 76.5661C77.8008 82.5861 82.6809 87.4662 88.7009 87.4662Z" stroke="#D4F7C7" stroke-width="2" stroke-linecap="round" stroke-linejoin="round"/>
<path d="M45.7059 38.4158L40.708 23.4181" stroke="#D4F7C7" stroke-width="2" stroke-linecap="round" stroke-linejoin="round"/>
<path d="M16.0334 52.9492H36.017" stroke="#D4F7C7" stroke-width="2" stroke-linecap="round" stroke-linejoin="round"/>
<path d="M43.2997 66.7964L35.6252 81.4429" stroke="#D4F7C7" stroke-width="2" stroke-linecap="round" stroke-linejoin="round"/>
<path d="M79.1854 70.676L63.8809 61.201" stroke="#D4F7C7" stroke-width="2" stroke-linecap="round" stroke-linejoin="round"/>
<path d="M77.3767 26.1229L61.4343 42.0653" stroke="#D4F7C7" stroke-width="2" stroke-linecap="round" stroke-linejoin="round"/>
</svg>
