<svg width="106" height="102" viewBox="0 0 106 102" fill="none" xmlns="http://www.w3.org/2000/svg">
<path d="M8.30111 50.6833H1.44824" stroke="#D4F7C7" stroke-width="2" stroke-linecap="round" stroke-linejoin="round"/>
<path d="M104.241 50.6833H97.3884" stroke="#D4F7C7" stroke-width="2" stroke-linecap="round" stroke-linejoin="round"/>
<path d="M16.8102 24.5015L11.2632 20.4735" stroke="#D4F7C7" stroke-width="2" stroke-linecap="round" stroke-linejoin="round"/>
<path d="M94.4265 80.8931L88.8833 76.8651" stroke="#D4F7C7" stroke-width="2" stroke-linecap="round" stroke-linejoin="round"/>
<path d="M39.082 7.51784L36.9614 1" stroke="#D4F7C7" stroke-width="2" stroke-linecap="round" stroke-linejoin="round"/>
<path d="M68.7279 100.367L66.6111 93.8488" stroke="#D4F7C7" stroke-width="2" stroke-linecap="round" stroke-linejoin="round"/>
<path d="M16.8064 76.8651L11.2632 80.8931" stroke="#D4F7C7" stroke-width="2" stroke-linecap="round" stroke-linejoin="round"/>
<path d="M94.4265 20.4735L88.8833 24.5015" stroke="#D4F7C7" stroke-width="2" stroke-linecap="round" stroke-linejoin="round"/>
<path d="M16.8064 76.8651L11.2632 80.8931" stroke="#D4F7C7" stroke-width="2" stroke-linecap="round" stroke-linejoin="round"/>
<path d="M94.4265 20.4735L88.8833 24.5015" stroke="#D4F7C7" stroke-width="2" stroke-linecap="round" stroke-linejoin="round"/>
<path d="M39.0782 93.8488L36.9614 100.367" stroke="#D4F7C7" stroke-width="2" stroke-linecap="round" stroke-linejoin="round"/>
<path d="M68.7279 1L66.6111 7.51784" stroke="#D4F7C7" stroke-width="2" stroke-linecap="round" stroke-linejoin="round"/>
<path d="M16.8672 45.5437H80.2258" stroke="#D4F7C7" stroke-width="2" stroke-linecap="round" stroke-linejoin="round"/>
<path d="M88.8223 45.5437L52.8448 86.6609L16.8672 45.5437" stroke="#D4F7C7" stroke-width="2" stroke-linecap="round" stroke-linejoin="round"/>
<path d="M25.4561 45.5437H88.8223H16.8672L28.8597 24.985H76.8298L88.8223 45.5437" stroke="#D4F7C7" stroke-width="2" stroke-linecap="round" stroke-linejoin="round"/>
<path d="M37.4258 45.5437L52.8447 86.6609L68.2637 45.5437" stroke="#D4F7C7" stroke-width="2" stroke-linecap="round" stroke-linejoin="round"/>
<path d="M28.8599 24.985L37.426 45.5437L52.8449 24.985L68.2639 45.5437L76.83 24.985" stroke="#D4F7C7" stroke-width="2" stroke-linecap="round" stroke-linejoin="round"/>
</svg>
