<svg width="80" height="96" viewBox="0 0 80 96" fill="none" xmlns="http://www.w3.org/2000/svg">
<path d="M78.2223 54.8586C78.2223 76.9271 40.0001 94.8182 40.0001 94.8182C40.0001 94.8182 1.77783 76.9271 1.77783 54.8586V18.3737C13.5881 18.3737 25.0278 14.0457 34.1007 6.13877L40.0001 1L45.8994 6.13877C54.9724 14.0457 66.412 18.3737 78.2223 18.3737V54.8586Z" stroke="#D4F7C7" stroke-width="2" stroke-linecap="round" stroke-linejoin="round"/>
<path d="M39.9998 87.0425C29.4713 81.4713 8.72705 67.8426 8.72705 54.8586V24.8831C19.6957 23.4893 30.1315 18.8177 38.6678 11.3779L39.9998 10.2158L41.3356 11.3779C49.8681 18.8139 60.3039 23.4855 71.2725 24.8831V54.8586C71.2725 67.8426 50.5283 81.4752 39.9998 87.0425Z" stroke="#D4F7C7" stroke-width="2" stroke-linecap="round" stroke-linejoin="round"/>
<path d="M27.8384 47.9091L36.5252 56.596L52.1616 40.9596" stroke="#D4F7C7" stroke-width="2" stroke-linecap="round" stroke-linejoin="round"/>
<path d="M40.0003 68.7576C51.5146 68.7576 60.8488 59.4234 60.8488 47.9091C60.8488 36.3948 51.5146 27.0606 40.0003 27.0606C28.486 27.0606 19.1519 36.3948 19.1519 47.9091C19.1519 59.4234 28.486 68.7576 40.0003 68.7576Z" stroke="#D4F7C7" stroke-width="2" stroke-linecap="round" stroke-linejoin="round"/>
</svg>
