<svg width="84" height="116" viewBox="0 0 84 116" fill="none" xmlns="http://www.w3.org/2000/svg">
<path d="M33.4692 99.2372L46.4782 99.3353C47.565 99.3434 48.6395 99.1024 49.6242 98.6284L60.8436 93.2435C61.8446 92.7613 62.2123 91.4825 61.6199 90.5142C59.6955 87.3682 55.9039 86.0444 52.525 87.3437L46.2248 89.7665C43.847 89.7175 26.7482 76.8066 14.0906 88.6797C13.5186 89.2149 12.8935 89.6889 12.1948 90.028L1.61279 95.2087" stroke="#D4F7C7" stroke-width="2" stroke-linecap="round" stroke-linejoin="round"/>
<path d="M61.6608 90.5837L72.5697 83.0987C75.7975 80.876 80.161 81.8362 82.2325 85.2232C82.7555 86.0812 82.5348 87.213 81.7259 87.7932L68.0754 97.5376L56.7253 106.232C51.3035 110.383 44.4395 111.972 37.7757 110.62L21.0487 107.225C19.6269 106.935 18.1601 107.09 16.82 107.662C12.8078 109.382 8.85283 111.249 4.97139 113.264L1.62109 115" stroke="#D4F7C7" stroke-width="2" stroke-linecap="round" stroke-linejoin="round"/>
<path d="M69.0762 76.6881C67.4665 75.6013 65.5217 74.9639 63.4338 74.9639C63.0906 74.9639 62.7515 74.9802 62.4165 75.017C60.3042 71.1274 56.1858 68.488 51.4504 68.488C46.7151 68.488 42.4455 71.2377 40.374 75.2499C39.3158 74.6983 38.1309 74.3551 36.8521 74.3551C34.511 74.3551 32.415 75.4051 31.0095 77.0558" stroke="#D4F7C7" stroke-width="2" stroke-linecap="round" stroke-linejoin="round"/>
<path d="M47.3319 34.9483C55.1315 42.748 49.9304 55.7487 49.9304 55.7487C49.9304 55.7487 36.9296 60.9499 29.13 53.1502C21.3303 45.3506 21.3303 27.1487 21.3303 27.1487C21.3303 27.1487 39.5322 27.1486 47.3319 34.9483Z" stroke="#D4F7C7" stroke-width="2" stroke-linecap="round" stroke-linejoin="round"/>
<path d="M36.9297 42.7479L49.9305 55.7487" stroke="#D4F7C7" stroke-width="2" stroke-linecap="round" stroke-linejoin="round"/>
<path d="M56.7496 57.4075C60.8802 57.6445 65.824 56.8968 69.5706 53.1502C77.3702 45.3506 77.3702 27.1487 77.3702 27.1487C77.3702 27.1487 63.5196 27.1487 54.8088 32.3253" stroke="#D4F7C7" stroke-width="2" stroke-linecap="round" stroke-linejoin="round"/>
<path d="M61.7711 42.7479L58.9519 45.5671" stroke="#D4F7C7" stroke-width="2" stroke-linecap="round" stroke-linejoin="round"/>
<path d="M61.8772 21.6329C59.8303 11.4799 49.3504 1 49.3504 1C49.3504 1 38.8174 11.533 36.8113 21.7065" stroke="#D4F7C7" stroke-width="2" stroke-linecap="round" stroke-linejoin="round"/>
<path d="M49.3506 23.0629V27.0833" stroke="#D4F7C7" stroke-width="2" stroke-linecap="round" stroke-linejoin="round"/>
<path d="M49.9307 55.7487C49.9307 61.7711 50.6089 68.484 51.4465 68.484" stroke="#D4F7C7" stroke-width="2" stroke-linecap="round" stroke-linejoin="round"/>
</svg>
